# Blender v2.90.0 OBJ File: 'ChiliPlant_Stage01.blend'
# www.blender.org
mtllib ChiliPlant_Stage01.mtl
o ChiliPlant_Stage01_Cylinder.029
v -0.207549 -0.747131 0.036503
v -0.179000 0.284951 0.016512
v -0.205388 -0.747131 -0.087308
v -0.177554 0.284951 -0.066333
v -0.086970 -0.747131 -0.123512
v -0.098316 0.284951 -0.090559
v -0.015944 -0.747131 -0.022077
v -0.050791 0.284951 -0.022685
v -0.090466 -0.747131 0.076817
v -0.100656 0.284951 0.043488
v -0.179000 -0.593127 0.016512
v -0.177554 -0.593127 -0.066333
v -0.098316 -0.593127 -0.090559
v -0.050791 -0.593127 -0.022685
v -0.100656 -0.593127 0.043488
v -0.093327 0.243619 -0.010449
v -0.089139 0.257579 -0.013381
v -0.121080 0.243619 -0.050085
v -0.116893 0.257579 -0.053018
v -0.301157 0.247760 0.105541
v -0.221062 0.243208 0.076085
v -0.220216 0.262361 0.075493
v -0.246084 0.243208 0.040351
v -0.245237 0.262361 0.039758
v -0.483586 0.107994 0.413111
v -0.486090 0.112259 0.414864
v -0.652572 0.107994 0.171773
v -0.655076 0.112259 0.173527
v -0.713488 0.006407 0.394259
v -0.715992 0.010672 0.396012
v -0.273486 0.130197 0.381905
v -0.274521 0.135290 0.382630
v -0.551390 0.130197 -0.014984
v -0.552425 0.135290 -0.014259
v -0.476996 0.199071 0.228665
v -0.475961 0.193978 0.227940
v -0.148046 0.183511 0.186574
v -0.149082 0.188604 0.187299
v -0.324936 0.183511 -0.066051
v -0.325972 0.188604 -0.065326
v -0.252393 0.261721 0.071397
v -0.253429 0.266814 0.072122
v -0.095929 0.241514 -0.035812
v -0.103210 0.251144 -0.044489
v -0.132996 0.241514 -0.004710
v -0.140276 0.251144 -0.013387
v 0.016669 0.361769 0.136015
v -0.011331 0.317160 0.068713
v -0.017974 0.333318 0.060795
v -0.044749 0.317160 0.096753
v -0.051392 0.333318 0.088836
v 0.356046 0.400679 0.311296
v 0.356405 0.405897 0.311724
v 0.130355 0.400679 0.500673
v 0.130714 0.405897 0.501101
v 0.374665 0.399731 0.562658
v 0.375024 0.404949 0.563086
v 0.315466 0.326392 0.115225
v 0.314561 0.331447 0.114146
v -0.055691 0.326392 0.426663
v -0.056597 0.331447 0.425583
v 0.152162 0.425155 0.297488
v 0.153067 0.420101 0.298568
v 0.110982 0.266966 0.008521
v 0.110076 0.272020 0.007441
v -0.125265 0.266966 0.206755
v -0.126171 0.272020 0.205676
v -0.021051 0.344590 0.091062
v -0.021956 0.349645 0.089982
v -0.129240 -0.063657 -0.043242
v -0.140636 -0.045546 -0.050505
v -0.140394 -0.042754 0.026385
v -0.151790 -0.024642 0.019122
v 0.213746 0.031292 0.022039
v 0.098171 -0.011986 -0.018503
v 0.091369 0.014849 -0.027649
v 0.088115 0.006860 0.044270
v 0.081314 0.033694 0.035125
v 0.767466 -0.122471 -0.079617
v 0.770806 -0.115403 -0.081204
v 0.699555 0.004807 0.344329
v 0.702895 0.011875 0.342743
v 1.023668 -0.144037 0.204417
v 1.027008 -0.136970 0.202830
v 0.502611 -0.195073 -0.252691
v 0.503075 -0.187427 -0.254913
v 0.390927 0.014239 0.444504
v 0.391392 0.021886 0.442283
v 0.544199 0.033483 0.074316
v 0.543735 0.025837 0.076537
v 0.150393 -0.152704 -0.180451
v 0.150857 -0.145058 -0.182672
v 0.079305 -0.019474 0.263324
v 0.079769 -0.011827 0.261102
v 0.121978 0.031336 0.007325
v 0.122442 0.038983 0.005104
v -0.134904 -0.088317 -0.069911
v -0.132876 -0.068787 -0.067237
v -0.077979 -0.098156 -0.041234
v -0.075951 -0.078626 -0.038559
v 0.019819 -0.173137 -0.333614
v -0.050890 -0.144799 -0.248919
v -0.044953 -0.120156 -0.252249
v 0.000431 -0.153670 -0.223064
v 0.006368 -0.129027 -0.226394
v -0.028948 -0.437486 -0.769096
v -0.025893 -0.433180 -0.773683
v 0.317658 -0.497394 -0.594483
v 0.320713 -0.493088 -0.599071
v 0.203585 -0.660014 -0.865432
v 0.206641 -0.655708 -0.870020
v -0.233330 -0.321714 -0.608297
v -0.230939 -0.315714 -0.610983
v 0.336676 -0.420234 -0.321141
v 0.339066 -0.414234 -0.323827
v 0.116541 -0.312034 -0.573261
v 0.114151 -0.318034 -0.570575
v -0.224961 -0.194814 -0.317405
v -0.222571 -0.188814 -0.320091
v 0.137855 -0.257523 -0.134626
v 0.140245 -0.251524 -0.137312
v -0.006849 -0.134036 -0.267264
v -0.004459 -0.128036 -0.269950
vt 1.000000 1.000000
vt 0.800000 0.548327
vt 1.000000 0.548327
vt 0.800000 1.000000
vt 0.600000 0.548327
vt 0.600000 1.000000
vt 0.400000 0.548327
vt 0.250000 0.490000
vt 0.021746 0.324164
vt 0.108932 0.055836
vt 0.400000 1.000000
vt 0.200000 0.548327
vt 0.200000 1.000000
vt 0.000000 0.548327
vt 0.978254 0.324164
vt 0.891068 0.055836
vt 0.608932 0.055836
vt 0.000000 0.500000
vt 0.200000 0.500000
vt 0.400000 0.500000
vt 0.600000 0.500000
vt 0.800000 0.500000
vt 1.000000 0.500000
vt 0.375000 0.125000
vt 0.625000 0.125000
vt 0.500000 0.375000
vt 0.625000 0.625000
vt 0.375000 0.750000
vt 0.375000 0.625000
vt 0.625000 0.750000
vt 0.375000 1.000000
vt 0.125000 0.750000
vt 0.125000 0.625000
vt 0.875000 0.750000
vt 0.875000 0.625000
vt 0.375000 0.000000
vt 0.375000 0.083333
vt 0.625000 0.000000
vt 0.625000 0.083333
vt 0.375000 0.375000
vt 0.625000 0.500000
vt 0.375000 0.500000
vt 0.250000 0.666667
vt 0.375000 0.750000
vt 0.250000 0.750000
vt 0.875000 0.750000
vt 0.750000 0.666667
vt 0.875000 0.666667
vt 0.125000 0.750000
vt 0.125000 0.666667
vt 0.625000 0.750000
vt 0.625000 0.666667
vt 0.375000 0.666667
vt 0.625000 0.250000
vt 0.375000 0.250000
vt 0.750000 0.500000
vt 0.875000 0.500000
vt 0.250000 0.500000
vt 0.375000 0.875000
vt 0.625000 1.000000
vt 0.375000 1.000000
vt 0.125000 0.500000
vt 0.375000 0.125000
vt 0.625000 0.125000
vt 0.500000 0.375000
vt 0.625000 0.625000
vt 0.375000 0.750000
vt 0.375000 0.625000
vt 0.625000 0.750000
vt 0.375000 1.000000
vt 0.125000 0.750000
vt 0.125000 0.625000
vt 0.875000 0.750000
vt 0.875000 0.625000
vt 0.375000 0.000000
vt 0.375000 0.083333
vt 0.625000 0.000000
vt 0.625000 0.083333
vt 0.375000 0.375000
vt 0.625000 0.500000
vt 0.375000 0.500000
vt 0.250000 0.666667
vt 0.375000 0.750000
vt 0.250000 0.750000
vt 0.875000 0.750000
vt 0.750000 0.666667
vt 0.875000 0.666667
vt 0.125000 0.750000
vt 0.125000 0.666667
vt 0.625000 0.750000
vt 0.625000 0.666667
vt 0.375000 0.666667
vt 0.625000 0.250000
vt 0.375000 0.250000
vt 0.750000 0.500000
vt 0.875000 0.500000
vt 0.250000 0.500000
vt 0.375000 0.875000
vt 0.625000 1.000000
vt 0.375000 1.000000
vt 0.125000 0.500000
vt 0.375000 0.125000
vt 0.625000 0.125000
vt 0.500000 0.375000
vt 0.625000 0.625000
vt 0.375000 0.750000
vt 0.375000 0.625000
vt 0.625000 0.750000
vt 0.375000 1.000000
vt 0.125000 0.750000
vt 0.125000 0.625000
vt 0.875000 0.750000
vt 0.875000 0.625000
vt 0.375000 0.000000
vt 0.625000 0.083333
vt 0.375000 0.000000
vt 0.625000 0.000000
vt 0.375000 0.375000
vt 0.625000 0.500000
vt 0.375000 0.500000
vt 0.250000 0.666667
vt 0.375000 0.750000
vt 0.250000 0.750000
vt 0.875000 0.750000
vt 0.750000 0.666667
vt 0.875000 0.666667
vt 0.125000 0.750000
vt 0.125000 0.666667
vt 0.625000 0.750000
vt 0.625000 0.666667
vt 0.375000 0.666667
vt 0.625000 0.250000
vt 0.375000 0.250000
vt 0.750000 0.500000
vt 0.875000 0.500000
vt 0.250000 0.500000
vt 0.375000 0.083333
vt 0.375000 0.875000
vt 0.625000 1.000000
vt 0.375000 1.000000
vt 0.125000 0.500000
vt 0.375000 0.125000
vt 0.625000 0.125000
vt 0.500000 0.375000
vt 0.625000 0.625000
vt 0.375000 0.750000
vt 0.375000 0.625000
vt 0.625000 1.000000
vt 0.375000 1.000000
vt 0.125000 0.750000
vt 0.125000 0.625000
vt 0.875000 0.750000
vt 0.625000 0.750000
vt 0.875000 0.625000
vt 0.375000 0.000000
vt 0.375000 0.083333
vt 0.625000 0.000000
vt 0.625000 0.083333
vt 0.375000 0.375000
vt 0.625000 0.500000
vt 0.375000 0.500000
vt 0.250000 0.666667
vt 0.375000 0.750000
vt 0.250000 0.750000
vt 0.875000 0.750000
vt 0.750000 0.666667
vt 0.875000 0.666667
vt 0.125000 0.750000
vt 0.125000 0.666667
vt 0.625000 0.750000
vt 0.625000 0.666667
vt 0.375000 0.666667
vt 0.625000 0.250000
vt 0.375000 0.250000
vt 0.750000 0.500000
vt 0.875000 0.500000
vt 0.250000 0.500000
vt 0.375000 0.875000
vt 0.625000 1.000000
vt 0.375000 1.000000
vt 0.125000 0.500000
vt 0.391068 0.055836
vt 0.478254 0.324164
vt 0.000000 1.000000
vt 0.521746 0.324164
vt 0.750000 0.490000
vt 0.625000 1.000000
vt 0.625000 0.000000
vt 0.375000 0.000000
vt 0.625000 0.375000
vt 0.750000 0.750000
vt 0.625000 0.875000
vt 0.625000 1.000000
vt 0.625000 0.000000
vt 0.375000 0.000000
vt 0.625000 0.375000
vt 0.750000 0.750000
vt 0.625000 0.875000
vt 0.625000 1.000000
vt 0.625000 0.000000
vt 0.625000 0.375000
vt 0.750000 0.750000
vt 0.625000 0.875000
vt 0.625000 0.000000
vt 0.375000 0.000000
vt 0.625000 0.375000
vt 0.750000 0.750000
vt 0.625000 0.875000
vn -0.9998 0.0000 -0.0175
vn -0.2924 0.0000 -0.9563
vn 0.8192 0.0000 -0.5736
vn 0.0000 1.0000 -0.0000
vn 0.7986 0.0000 0.6018
vn -0.3256 0.0000 0.9455
vn 0.0000 -1.0000 0.0000
vn -0.3202 0.1801 0.9301
vn 0.7856 0.1801 0.5920
vn 0.8058 0.1801 -0.5642
vn -0.2876 0.1801 -0.9407
vn -0.9835 0.1801 -0.0172
vn 0.3458 0.0137 0.9382
vn -0.5862 0.0008 -0.8102
vn 0.7692 -0.3439 -0.5386
vn 0.0022 -1.0000 -0.0015
vn 0.0247 0.9995 -0.0173
vn -0.1410 0.9851 0.0988
vn -0.0451 -0.9985 0.0316
vn -0.7633 0.0137 -0.6458
vn 0.5609 0.0008 0.8279
vn 0.8269 0.0891 0.5553
vn -0.8551 -0.3416 -0.3901
vn 0.4406 -0.8602 0.2569
vn 0.0686 0.9504 0.3035
vn -0.0686 -0.9504 -0.3035
vn -0.2617 0.9504 -0.1683
vn -0.2390 0.0891 -0.9669
vn 0.0741 -0.3416 0.9369
vn -0.4857 0.8378 0.2495
vn -0.4006 0.8378 0.3710
vn 0.4868 -0.8373 -0.2490
vn -0.8259 -0.2849 -0.4864
vn 0.1572 -0.1078 0.9817
vn 0.7950 0.2409 -0.5567
vn 0.4005 -0.8373 -0.3723
vn 0.8789 0.1375 -0.4568
vn -0.7576 0.0083 0.6527
vn -0.4163 -0.7619 -0.4962
vn 0.3152 -0.8715 0.3756
vn -0.3334 0.8549 -0.3974
vn -0.2156 0.9420 -0.2570
vn 0.3470 -0.8418 0.4136
vn -0.6025 0.1375 0.7862
vn 0.7743 0.0083 -0.6327
vn 0.4829 -0.0993 -0.8701
vn -0.2457 -0.0624 0.9673
vn 0.5078 -0.8537 -0.1154
vn -0.0145 0.8851 -0.4652
vn 0.0145 -0.8851 0.4652
vn -0.4556 0.8851 -0.0950
vn -0.9407 -0.0993 0.3244
vn 0.9953 -0.0624 -0.0740
vn -0.0195 0.9956 0.0921
vn 0.0941 0.9956 -0.0032
vn 0.0198 -0.9954 -0.0934
vn -0.3555 -0.0521 0.9332
vn 0.9621 0.1202 -0.2447
vn -0.6192 -0.2685 -0.7379
vn -0.0955 -0.9954 0.0033
vn 0.3918 -0.2063 -0.8966
vn -0.1368 0.2883 0.9477
vn -0.8501 -0.5262 0.0218
vn 0.1786 -0.9341 0.3091
vn -0.2105 0.9265 -0.3119
vn -0.0112 0.9572 -0.2892
vn 0.2345 -0.9201 0.3138
vn 0.0985 0.3433 0.9340
vn 0.1665 -0.2800 -0.9454
vn -0.2239 -0.2593 -0.9395
vn 0.4022 0.0154 0.9154
vn 0.0187 -0.9813 -0.1917
vn -0.0140 0.8311 -0.5559
vn 0.0140 -0.8311 0.5559
vn -0.1014 0.9948 -0.0107
vn -0.5057 0.2688 0.8198
vn 0.6479 -0.4450 -0.6182
vn 0.3626 0.9213 -0.1402
vn 0.3851 0.8792 -0.2806
vn -0.3631 -0.9213 0.1389
vn 0.3057 0.0688 0.9497
vn 0.5771 -0.2599 -0.7742
vn -0.9867 0.0129 -0.1619
vn -0.3860 -0.8785 0.2814
vn -0.7491 0.0918 -0.6561
vn 0.8888 -0.1559 0.4309
vn -0.4588 -0.0736 0.8855
vn -0.2549 -0.9500 0.1801
vn 0.2418 0.9585 -0.1512
vn 0.3182 0.8901 -0.3263
vn -0.2317 -0.9642 0.1291
vn 0.9577 -0.2032 0.2037
vn -0.8762 0.1492 -0.4583
vn -0.9394 0.3232 -0.1140
vn 0.8168 -0.5770 0.0024
vn -0.7117 -0.6896 0.1344
vn 0.0338 0.9157 -0.4004
vn -0.0338 -0.9157 0.4004
vn 0.5421 0.8278 -0.1444
vn 0.7007 0.0397 0.7123
vn -0.6130 -0.3298 -0.7179
vn 0.4922 0.6392 -0.5909
vn 0.3613 0.6619 -0.6568
vn -0.4933 -0.6384 0.5908
vn 0.8548 -0.5112 0.0895
vn -0.6449 -0.0832 -0.7597
vn -0.3228 0.4909 0.8092
vn -0.3604 -0.6614 0.6578
vn -0.5857 0.0054 -0.8105
vn 0.5613 0.0054 0.8276
vn 0.2617 -0.9504 0.1683
vn 0.0908 0.8602 0.5019
vn -0.0908 -0.8602 -0.5019
vn -0.4406 0.8602 -0.2569
vn -0.4074 0.9064 -0.1115
vn -0.0345 0.9064 0.4209
vn 0.4059 -0.9070 0.1121
vn -0.8687 -0.1078 -0.4835
vn 0.1746 -0.2849 0.9425
vn 0.0335 -0.9070 -0.4198
vn -0.7594 0.0121 0.6506
vn 0.7725 0.0121 -0.6348
vn 0.4556 -0.8851 0.0950
vn 0.2018 0.8537 -0.4800
vn -0.2018 -0.8537 0.4800
vn -0.5078 0.8537 0.1154
vn -0.3851 0.9217 0.0466
vn 0.1128 0.9217 -0.3712
vn 0.3859 -0.9214 -0.0452
vn -0.4080 0.1202 0.9050
vn 0.9808 -0.0521 -0.1881
vn -0.1115 -0.9214 0.3722
vn -0.1382 0.2925 0.9462
vn 0.1651 -0.2758 -0.9469
vn 0.4023 0.0154 0.9154
vn 0.1014 -0.9948 0.0107
vn 0.1218 0.7180 -0.6853
vn -0.1218 -0.7180 0.6853
vn -0.0187 0.9813 0.1917
vn 0.0485 0.9975 0.0516
vn 0.1471 0.8128 -0.5637
vn -0.0470 -0.9976 -0.0510
vn 0.3059 0.2484 0.9191
vn 0.5702 -0.4270 -0.7018
vn -0.1455 -0.8130 0.5637
vn 0.8898 -0.1514 0.4306
vn -0.8752 0.1537 -0.4586
vn -0.5421 -0.8279 0.1444
vn -0.1059 0.8309 -0.5463
vn 0.1059 -0.8309 0.5463
vn 0.7117 0.6896 -0.1344
vn -0.6131 -0.3298 -0.7179
vn 0.6237 0.7395 -0.2534
vn 0.0500 0.8386 -0.5424
vn -0.6229 -0.7404 0.2524
vn 0.9338 -0.3561 0.0355
vn -0.6849 -0.2451 -0.6862
vn -0.0498 -0.8395 0.5411
usemtl Green_ChiliPlant
s off
f 2/1/1 12/2/1 11/3/1
f 4/4/2 13/5/2 12/2/2
f 6/6/3 14/7/3 13/5/3
f 2/8/4 10/9/4 8/10/4
f 8/11/5 15/12/5 14/7/5
f 10/13/6 11/14/6 15/12/6
f 3/15/7 5/16/7 7/17/7
f 15/12/8 1/18/8 9/19/8
f 14/7/9 9/19/9 7/20/9
f 13/5/10 7/20/10 5/21/10
f 3/22/11 13/5/11 5/21/11
f 11/3/12 3/22/12 1/23/12
f 21/24/13 22/25/13 20/26/13
f 24/27/14 18/28/14 23/29/14
f 19/30/15 16/31/15 18/28/15
f 23/29/16 16/32/16 21/33/16
f 24/27/17 17/34/17 19/30/17
f 20/26/18 22/35/18 24/27/18
f 20/26/19 23/29/19 21/33/19
f 20/26/20 24/27/20 23/29/20
f 16/36/21 22/25/21 21/24/21
f 31/37/22 38/38/22 32/39/22
f 29/40/23 28/41/23 27/42/23
f 36/43/24 39/44/24 41/45/24
f 38/46/25 35/47/25 32/48/25
f 36/43/26 37/49/26 31/50/26
f 35/47/27 40/51/27 34/52/27
f 40/51/28 33/53/28 34/52/28
f 26/54/29 29/40/29 25/55/29
f 35/47/30 28/41/30 30/56/30
f 26/57/31 35/47/31 30/56/31
f 27/42/32 36/43/32 29/58/32
f 34/52/33 27/42/33 28/41/33
f 32/39/34 25/55/34 31/37/34
f 41/59/35 38/60/35 37/61/35
f 40/51/35 41/59/35 39/44/35
f 36/43/36 25/62/36 29/58/36
f 48/63/37 49/64/37 47/65/37
f 51/66/38 45/67/38 50/68/38
f 46/69/39 43/70/39 45/67/39
f 50/68/40 43/71/40 48/72/40
f 51/66/41 44/73/41 46/69/41
f 47/65/42 49/74/42 51/66/42
f 47/65/43 50/68/43 48/72/43
f 47/65/44 51/66/44 50/68/44
f 43/75/45 49/64/45 48/63/45
f 58/76/46 65/77/46 59/78/46
f 56/79/47 55/80/47 54/81/47
f 63/82/48 66/83/48 68/84/48
f 65/85/49 62/86/49 59/87/49
f 63/82/50 64/88/50 58/89/50
f 62/86/51 67/90/51 61/91/51
f 67/90/52 60/92/52 61/91/52
f 53/93/53 56/79/53 52/94/53
f 62/86/54 55/80/54 57/95/54
f 53/96/55 62/86/55 57/95/55
f 54/81/56 63/82/56 56/97/56
f 61/91/57 54/81/57 55/80/57
f 59/78/58 52/94/58 58/76/58
f 68/98/59 65/99/59 64/100/59
f 67/90/59 68/98/59 66/83/59
f 63/82/60 52/101/60 56/97/60
f 75/102/61 76/103/61 74/104/61
f 78/105/62 72/106/62 77/107/62
f 73/108/63 70/109/63 72/106/63
f 77/107/64 70/110/64 75/111/64
f 78/105/65 71/112/65 73/108/65
f 74/104/66 76/113/66 78/105/66
f 74/104/67 77/107/67 75/111/67
f 74/104/68 78/105/68 77/107/68
f 70/114/69 76/103/69 75/102/69
f 86/115/70 91/116/70 92/117/70
f 83/118/71 82/119/71 81/120/71
f 90/121/72 93/122/72 95/123/72
f 92/124/73 89/125/73 86/126/73
f 90/121/74 91/127/74 85/128/74
f 89/125/75 94/129/75 88/130/75
f 88/130/76 93/122/76 87/131/76
f 80/132/77 83/118/77 79/133/77
f 89/125/78 82/119/78 84/134/78
f 80/135/79 89/125/79 84/134/79
f 81/120/80 90/121/80 83/136/80
f 88/130/81 81/120/81 82/119/81
f 86/115/82 79/133/82 85/137/82
f 95/138/83 92/139/83 91/140/83
f 94/129/83 95/138/83 93/122/83
f 90/121/84 79/141/84 83/136/84
f 102/142/85 103/143/85 101/144/85
f 105/145/86 99/146/86 104/147/86
f 99/146/87 98/148/87 97/149/87
f 104/147/88 97/150/88 102/151/88
f 105/145/89 98/152/89 100/153/89
f 101/144/90 103/154/90 105/145/90
f 101/144/91 104/147/91 102/151/91
f 101/144/92 105/145/92 104/147/92
f 97/155/93 103/143/93 102/142/93
f 112/156/94 119/157/94 113/158/94
f 110/159/95 109/160/95 108/161/95
f 117/162/96 120/163/96 122/164/96
f 119/165/97 116/166/97 113/167/97
f 117/162/98 118/168/98 112/169/98
f 116/166/99 121/170/99 115/171/99
f 121/170/100 114/172/100 115/171/100
f 107/173/101 110/159/101 106/174/101
f 116/166/102 109/160/102 111/175/102
f 107/176/103 116/166/103 111/175/103
f 108/161/104 117/162/104 110/177/104
f 115/171/105 108/161/105 109/160/105
f 113/158/106 106/174/106 112/156/106
f 122/178/107 119/179/107 118/180/107
f 121/170/107 122/178/107 120/163/107
f 117/162/108 106/181/108 110/177/108
f 2/1/1 4/4/1 12/2/1
f 4/4/2 6/6/2 13/5/2
f 6/6/3 8/11/3 14/7/3
f 6/182/4 4/183/4 8/10/4
f 4/183/4 2/8/4 8/10/4
f 8/11/5 10/13/5 15/12/5
f 10/13/6 2/184/6 11/14/6
f 9/185/7 1/186/7 7/17/7
f 1/186/7 3/15/7 7/17/7
f 15/12/8 11/14/8 1/18/8
f 14/7/9 15/12/9 9/19/9
f 13/5/10 14/7/10 7/20/10
f 3/22/11 12/2/11 13/5/11
f 11/3/12 12/2/12 3/22/12
f 24/27/109 19/30/109 18/28/109
f 19/30/15 17/187/15 16/31/15
f 23/29/16 18/28/16 16/32/16
f 24/27/17 22/35/17 17/34/17
f 16/36/110 17/188/110 22/25/110
f 31/37/22 37/189/22 38/38/22
f 29/40/23 30/190/23 28/41/23
f 36/43/111 33/53/111 39/44/111
f 38/46/112 42/191/112 35/47/112
f 36/43/113 41/45/113 37/49/113
f 35/47/114 42/191/114 40/51/114
f 40/51/28 39/44/28 33/53/28
f 26/54/29 30/190/29 29/40/29
f 35/47/115 34/52/115 28/41/115
f 26/57/116 32/48/116 35/47/116
f 27/42/117 33/53/117 36/43/117
f 34/52/118 33/53/118 27/42/118
f 32/39/119 26/54/119 25/55/119
f 41/59/35 42/192/35 38/60/35
f 40/51/35 42/192/35 41/59/35
f 36/43/120 31/50/120 25/62/120
f 51/66/121 46/69/121 45/67/121
f 46/69/39 44/193/39 43/70/39
f 50/68/40 45/67/40 43/71/40
f 51/66/41 49/74/41 44/73/41
f 43/75/122 44/194/122 49/64/122
f 58/76/46 64/195/46 65/77/46
f 56/79/47 57/196/47 55/80/47
f 63/82/123 60/92/123 66/83/123
f 65/85/124 69/197/124 62/86/124
f 63/82/125 68/84/125 64/88/125
f 62/86/126 69/197/126 67/90/126
f 67/90/52 66/83/52 60/92/52
f 53/93/53 57/196/53 56/79/53
f 62/86/127 61/91/127 55/80/127
f 53/96/128 59/87/128 62/86/128
f 54/81/129 60/92/129 63/82/129
f 61/91/130 60/92/130 54/81/130
f 59/78/131 53/93/131 52/94/131
f 68/98/59 69/198/59 65/99/59
f 67/90/59 69/198/59 68/98/59
f 63/82/132 58/89/132 52/101/132
f 78/105/133 73/108/133 72/106/133
f 73/108/63 71/199/63 70/109/63
f 77/107/64 72/106/64 70/110/64
f 78/105/65 76/113/65 71/112/65
f 70/114/134 71/200/134 76/103/134
f 86/115/70 85/137/70 91/116/70
f 83/118/135 84/201/135 82/119/135
f 90/121/136 87/131/136 93/122/136
f 92/124/137 96/202/137 89/125/137
f 90/121/138 95/123/138 91/127/138
f 89/125/139 96/202/139 94/129/139
f 88/130/76 94/129/76 93/122/76
f 80/132/77 84/201/77 83/118/77
f 89/125/140 88/130/140 82/119/140
f 80/135/141 86/126/141 89/125/141
f 81/120/142 87/131/142 90/121/142
f 88/130/143 87/131/143 81/120/143
f 86/115/144 80/132/144 79/133/144
f 95/138/83 96/203/83 92/139/83
f 94/129/83 96/203/83 95/138/83
f 90/121/145 85/128/145 79/141/145
f 105/145/146 100/153/146 99/146/146
f 99/146/87 100/153/87 98/148/87
f 104/147/88 99/146/88 97/150/88
f 105/145/89 103/154/89 98/152/89
f 97/155/147 98/204/147 103/143/147
f 112/156/94 118/205/94 119/157/94
f 110/159/95 111/206/95 109/160/95
f 117/162/148 114/172/148 120/163/148
f 119/165/149 123/207/149 116/166/149
f 117/162/150 122/164/150 118/168/150
f 116/166/151 123/207/151 121/170/151
f 121/170/100 120/163/100 114/172/100
f 107/173/152 111/206/152 110/159/152
f 116/166/153 115/171/153 109/160/153
f 107/176/154 113/167/154 116/166/154
f 108/161/155 114/172/155 117/162/155
f 115/171/156 114/172/156 108/161/156
f 113/158/157 107/173/157 106/174/157
f 122/178/107 123/208/107 119/179/107
f 121/170/107 123/208/107 122/178/107
f 117/162/158 112/169/158 106/181/158
