# Blender v2.90.0 OBJ File: 'Mushroom_04.blend'
# www.blender.org
mtllib Mushroom_04.mtl
o Mushroom_04_Cylinder.007
v 0.243238 0.101024 -0.119718
v 0.118157 0.538384 -0.052259
v 0.282094 0.107431 0.090902
v 0.136447 0.541399 0.046883
v 0.160570 0.112536 0.267304
v 0.079244 0.543803 0.129919
v -0.050148 0.113349 0.306153
v -0.019945 0.544185 0.148206
v -0.226623 0.109394 0.184693
v -0.103015 0.542323 0.091032
v -0.265479 0.102987 -0.025927
v -0.121305 0.539308 -0.008110
v -0.143955 0.097882 -0.202329
v -0.064102 0.536904 -0.091146
v 0.066762 0.097069 -0.241179
v 0.035087 0.536522 -0.109433
v 0.206702 0.238819 -0.100327
v 0.185822 0.400034 -0.091819
v 0.215266 0.404889 0.067779
v 0.239554 0.244236 0.077746
v 0.123180 0.408758 0.201449
v 0.136809 0.248552 0.226889
v -0.036491 0.409374 0.230887
v -0.041347 0.249240 0.259735
v -0.170216 0.406376 0.138850
v -0.190551 0.245895 0.157044
v -0.199660 0.401522 -0.020748
v -0.223403 0.240479 -0.021030
v -0.107574 0.397653 -0.154417
v -0.120658 0.236162 -0.170172
v 0.052097 0.397037 -0.183856
v 0.057497 0.235475 -0.203018
v 0.091840 -0.399011 -0.005944
v 0.056986 0.108779 0.000811
v 0.085673 -0.395541 0.109668
v 0.053354 0.110822 0.068887
v -0.026236 -0.394831 0.139537
v -0.012541 0.111240 0.086475
v -0.089232 -0.397862 0.042385
v -0.049635 0.109455 0.029269
v -0.016257 -0.400446 -0.047527
v -0.006665 0.107934 -0.023674
v 0.504746 -0.156591 -0.087852
v 0.466528 0.078617 -0.070409
v 0.525266 -0.147397 0.021181
v 0.476187 0.082945 -0.019086
v 0.462927 -0.130587 0.111872
v 0.446843 0.090858 0.023604
v 0.354246 -0.116007 0.131096
v 0.395685 0.097721 0.032653
v 0.262888 -0.112197 0.067592
v 0.352681 0.099514 0.002761
v 0.242368 -0.121390 -0.041441
v 0.343022 0.095187 -0.048563
v 0.304707 -0.138201 -0.132131
v 0.372366 0.087274 -0.091253
v 0.413388 -0.152781 -0.151356
v 0.423524 0.080410 -0.100302
v 0.494187 -0.082731 -0.083309
v 0.493111 0.001816 -0.085250
v 0.508660 0.008783 -0.002631
v 0.511535 -0.074958 0.008874
v 0.461422 0.021521 0.066091
v 0.458830 -0.060746 0.085551
v 0.379069 0.032569 0.080658
v 0.366943 -0.048418 0.101804
v 0.309842 0.035456 0.032538
v 0.289703 -0.045198 0.048114
v 0.294293 0.028489 -0.050082
v 0.272354 -0.052970 -0.044070
v 0.341531 0.015751 -0.118803
v 0.325060 -0.067183 -0.120747
v 0.423884 0.004703 -0.133371
v 0.416946 -0.079510 -0.137000
v 0.396583 -0.400381 -0.010108
v 0.409141 -0.136715 -0.026478
v 0.393654 -0.393709 0.049629
v 0.407416 -0.132787 0.008697
v 0.335956 -0.385462 0.064613
v 0.373441 -0.127930 0.017520
v 0.303226 -0.387037 0.014137
v 0.354169 -0.128858 -0.012202
v 0.340695 -0.396258 -0.032043
v 0.376232 -0.134287 -0.039394
v 0.393329 -0.266799 -0.012167
v 0.391003 -0.261498 0.035290
v 0.345166 -0.254946 0.047193
v 0.319165 -0.256198 0.007094
v 0.348931 -0.263523 -0.029592
v -0.537389 -0.155198 0.081969
v -0.491834 0.129470 0.043547
v -0.562391 -0.152097 -0.051181
v -0.503603 0.130930 -0.019129
v -0.486567 -0.138056 -0.162614
v -0.467911 0.137539 -0.071583
v -0.354333 -0.121301 -0.187054
v -0.405667 0.145426 -0.083087
v -0.243151 -0.111646 -0.110184
v -0.353331 0.149971 -0.046903
v -0.218149 -0.114747 0.022967
v -0.341562 0.148511 0.015774
v -0.293973 -0.128788 0.134400
v -0.377254 0.141902 0.068227
v -0.426207 -0.145543 0.158839
v -0.439499 0.134015 0.079731
v -0.524839 -0.065744 0.071040
v -0.523879 0.037131 0.067207
v -0.542824 0.039481 -0.033688
v -0.545978 -0.063122 -0.041535
v -0.485368 0.050121 -0.118127
v -0.481871 -0.051251 -0.135748
v -0.385167 0.062817 -0.136646
v -0.370071 -0.037085 -0.156411
v -0.300918 0.070133 -0.078398
v -0.276069 -0.028922 -0.091420
v -0.281973 0.067783 0.022498
v -0.254931 -0.031544 0.021155
v -0.339429 0.057143 0.106936
v -0.319038 -0.043415 0.115369
v -0.439630 0.044447 0.125456
v -0.430838 -0.057581 0.136032
v -0.404715 -0.456663 0.005346
v -0.421088 -0.135150 0.005930
v -0.401170 -0.452918 -0.067727
v -0.419000 -0.132945 -0.037098
v -0.330969 -0.443757 -0.086545
v -0.377664 -0.127550 -0.048178
v -0.291128 -0.441840 -0.025102
v -0.354204 -0.126421 -0.011999
v -0.336705 -0.449816 0.031690
v -0.381042 -0.131118 0.021442
v -0.401305 -0.294190 -0.001936
v -0.398488 -0.291215 -0.059986
v -0.342719 -0.283937 -0.074935
v -0.311069 -0.282414 -0.026124
v -0.347276 -0.288750 0.018992
vt 1.000000 1.000000
vt 0.800000 0.500000
vt 1.000000 0.500000
vt 0.600000 1.000000
vt 0.600000 0.500000
vt 0.400000 0.500000
vt 0.250000 0.490000
vt 0.108932 0.055836
vt 0.391068 0.055836
vt 0.400000 1.000000
vt 0.200000 0.500000
vt 0.000000 1.000000
vt 0.000000 0.500000
vt 0.978254 0.324164
vt 0.891068 0.055836
vt 0.608932 0.055836
vt 1.000000 0.750000
vt 0.800000 1.000000
vt 0.800000 0.750000
vt 0.600000 1.000000
vt 0.600000 0.750000
vt 0.400000 0.750000
vt 0.250000 0.490000
vt 0.108932 0.055836
vt 0.391068 0.055836
vt 0.400000 1.000000
vt 0.200000 0.750000
vt 0.200000 1.000000
vt 0.000000 0.750000
vt 0.978254 0.324164
vt 0.891068 0.055836
vt 0.608932 0.055836
vt 0.200000 0.500000
vt 0.000000 0.500000
vt 0.400000 0.500000
vt 0.600000 0.500000
vt 0.800000 0.500000
vt 1.000000 0.500000
vt 1.000000 0.750000
vt 0.800000 1.000000
vt 0.800000 0.750000
vt 0.600000 1.000000
vt 0.600000 0.750000
vt 0.400000 0.750000
vt 0.250000 0.490000
vt 0.108932 0.055836
vt 0.391068 0.055836
vt 0.400000 1.000000
vt 0.200000 0.750000
vt 0.200000 1.000000
vt 0.000000 0.750000
vt 0.978254 0.324164
vt 0.891068 0.055836
vt 0.608932 0.055836
vt 0.200000 0.500000
vt 0.000000 0.500000
vt 0.400000 0.500000
vt 0.600000 0.500000
vt 0.800000 0.500000
vt 1.000000 0.500000
vt 0.800000 1.000000
vt 0.478254 0.324164
vt 0.021746 0.324164
vt 0.200000 1.000000
vt 0.521746 0.324164
vt 0.750000 0.490000
vt 1.000000 1.000000
vt 0.478254 0.324164
vt 0.021746 0.324164
vt 0.000000 1.000000
vt 0.521746 0.324164
vt 0.750000 0.490000
vt 1.000000 1.000000
vt 0.478254 0.324164
vt 0.021746 0.324164
vt 0.000000 1.000000
vt 0.521746 0.324164
vt 0.750000 0.490000
vt 1.000000 1.000000
vt 0.875000 0.833333
vt 1.000000 0.833333
vt 0.875000 1.000000
vt 0.750000 0.833333
vt 0.750000 1.000000
vt 0.625000 0.833333
vt 0.625000 1.000000
vt 0.500000 0.833333
vt 0.500000 1.000000
vt 0.375000 0.833333
vt 0.010000 0.250000
vt 0.250000 0.010000
vt 0.490000 0.250000
vt 0.250000 1.000000
vt 0.250000 0.833333
vt 0.125000 1.000000
vt 0.125000 0.833333
vt 0.919706 0.080294
vt 0.580294 0.080294
vt 0.580294 0.419706
vt 0.125000 0.666667
vt 0.000000 0.500000
vt 0.125000 0.500000
vt 0.000000 0.666667
vt 0.250000 0.500000
vt 0.250000 0.666667
vt 0.375000 0.500000
vt 0.375000 0.666667
vt 0.500000 0.500000
vt 0.500000 0.666667
vt 0.625000 0.666667
vt 0.625000 0.500000
vt 0.750000 0.666667
vt 0.750000 0.500000
vt 0.875000 0.666667
vt 0.875000 0.500000
vt 1.000000 0.666667
vt 1.000000 0.500000
vt 0.000000 1.000000
vt 0.000000 0.833333
vt 1.000000 1.000000
vt 0.875000 0.833333
vt 1.000000 0.833333
vt 0.750000 1.000000
vt 0.750000 0.833333
vt 0.625000 0.833333
vt 0.625000 1.000000
vt 0.500000 0.833333
vt 0.375000 1.000000
vt 0.375000 0.833333
vt 0.250000 0.490000
vt 0.010000 0.250000
vt 0.250000 0.010000
vt 0.250000 1.000000
vt 0.250000 0.833333
vt 0.125000 0.833333
vt 0.919706 0.419706
vt 0.919706 0.080294
vt 0.580294 0.080294
vt 0.125000 0.666667
vt 0.000000 0.500000
vt 0.125000 0.500000
vt 0.000000 0.666667
vt 0.250000 0.500000
vt 0.250000 0.666667
vt 0.375000 0.500000
vt 0.375000 0.666667
vt 0.500000 0.500000
vt 0.500000 0.666667
vt 0.625000 0.666667
vt 0.625000 0.500000
vt 0.750000 0.666667
vt 0.750000 0.500000
vt 0.875000 0.666667
vt 0.875000 0.500000
vt 1.000000 0.500000
vt 1.000000 0.666667
vt 0.000000 1.000000
vt 0.000000 0.833333
vt 1.000000 0.833333
vt 0.875000 1.000000
vt 0.875000 0.833333
vt 0.750000 0.833333
vt 0.750000 1.000000
vt 0.625000 0.833333
vt 0.625000 1.000000
vt 0.500000 0.833333
vt 0.500000 1.000000
vt 0.375000 0.833333
vt 0.250000 0.490000
vt 0.010000 0.250000
vt 0.250000 0.010000
vt 0.375000 1.000000
vt 0.250000 0.833333
vt 0.125000 1.000000
vt 0.125000 0.833333
vt 0.919706 0.080294
vt 0.580294 0.080294
vt 0.580294 0.419706
vt 0.125000 0.666667
vt 0.000000 0.500000
vt 0.125000 0.500000
vt 0.000000 0.833333
vt 0.000000 0.666667
vt 0.250000 0.500000
vt 0.250000 0.666667
vt 0.375000 0.666667
vt 0.375000 0.500000
vt 0.500000 0.666667
vt 0.500000 0.500000
vt 0.625000 0.666667
vt 0.625000 0.500000
vt 0.750000 0.666667
vt 0.750000 0.500000
vt 0.875000 0.666667
vt 0.875000 0.500000
vt 1.000000 0.500000
vt 1.000000 0.666667
vt 0.375000 1.000000
vt 0.419706 0.419706
vt 0.250000 0.490000
vt 0.080294 0.419706
vt 0.080294 0.080294
vt 0.419706 0.080294
vt 0.750000 0.490000
vt 0.919706 0.419706
vt 0.990000 0.250000
vt 0.750000 0.010000
vt 0.510000 0.250000
vt 0.875000 1.000000
vt 0.500000 1.000000
vt 0.490000 0.250000
vt 0.419706 0.419706
vt 0.080294 0.419706
vt 0.080294 0.080294
vt 0.419706 0.080294
vt 0.125000 1.000000
vt 0.580294 0.419706
vt 0.750000 0.490000
vt 0.990000 0.250000
vt 0.750000 0.010000
vt 0.510000 0.250000
vt 1.000000 1.000000
vt 0.490000 0.250000
vt 0.419706 0.419706
vt 0.080294 0.419706
vt 0.080294 0.080294
vt 0.419706 0.080294
vt 0.250000 1.000000
vt 0.750000 0.490000
vt 0.919706 0.419706
vt 0.990000 0.250000
vt 0.750000 0.010000
vt 0.510000 0.250000
vt 0.000000 1.000000
vn 0.9964 0.0677 0.0511
vn 0.2573 0.0939 0.9618
vn -0.8375 0.0793 0.5406
vn -0.0017 0.9995 -0.0301
vn -0.7751 0.0442 -0.6303
vn 0.3584 0.0370 -0.9329
vn 0.0017 -0.9995 0.0301
vn 0.9916 -0.1138 0.0613
vn 0.2696 0.1617 0.9493
vn -0.8049 0.2989 0.5126
vn 0.1140 0.9879 -0.1048
vn -0.7606 0.1122 -0.6395
vn 0.3523 -0.1445 -0.9247
vn -0.1140 -0.9879 0.1048
vn 0.3650 -0.0055 -0.9310
vn -0.7693 0.0595 -0.6361
vn -0.8337 0.1304 0.5365
vn 0.2645 0.1092 0.9582
vn 0.9986 0.0250 0.0462
vn -0.9912 -0.1206 -0.0543
vn -0.2701 0.1034 -0.9573
vn 0.8039 0.2703 -0.5297
vn -0.1174 0.9921 0.0451
vn 0.7601 0.1530 0.6315
vn -0.3519 -0.0898 0.9317
vn 0.1174 -0.9921 -0.0451
vn -0.3651 0.0493 0.9297
vn 0.7691 0.1002 0.6313
vn 0.8333 0.1008 -0.5435
vn -0.2647 0.0505 -0.9630
vn -0.9987 0.0188 -0.0475
vn 0.8641 0.4723 -0.1738
vn 0.7236 0.4919 0.4842
vn 0.1587 0.5020 0.8502
vn -0.4996 0.4966 0.7098
vn -0.8657 0.4790 0.1451
vn -0.7252 0.4594 -0.5129
vn -0.1603 0.4494 -0.8788
vn 0.5440 0.2567 -0.7988
vn 0.5614 0.1159 -0.8194
vn -0.1746 0.2508 -0.9522
vn -0.1798 0.1099 -0.9775
vn -0.7912 0.2618 -0.5527
vn -0.8158 0.1213 -0.5655
vn -0.9446 0.2832 0.1657
vn -0.9740 0.1433 0.1753
vn -0.5450 0.3024 0.7820
vn -0.5618 0.1631 0.8110
vn 0.1736 0.3083 0.9353
vn 0.1793 0.1692 0.9691
vn 0.7903 0.2973 0.5358
vn 0.8153 0.1578 0.5571
vn 0.9437 0.2759 -0.1825
vn 0.9736 0.1358 -0.1837
vn 0.4980 0.4547 -0.7384
vn 0.9129 0.3550 -0.2017
vn 0.7760 0.4400 0.4518
vn 0.2164 0.5428 0.8115
vn -0.4382 0.6029 0.6666
vn -0.8044 0.5853 0.1020
vn -0.6675 0.5002 -0.5515
vn -0.1079 0.3975 -0.9112
vn 0.5695 0.1313 -0.8114
vn 0.5704 -0.0116 -0.8213
vn -0.1451 0.1970 -0.9696
vn -0.1666 0.0562 -0.9844
vn -0.7560 0.3091 -0.5770
vn -0.7967 0.1718 -0.5795
vn -0.9054 0.4020 0.1365
vn -0.9508 0.2676 0.1564
vn -0.5057 0.4213 0.7528
vn -0.5386 0.2874 0.7920
vn 0.2088 0.3556 0.9110
vn 0.1984 0.2197 0.9552
vn 0.8198 0.2434 0.5184
vn 0.8285 0.1040 0.5502
vn 0.9692 0.1506 -0.1951
vn 0.9826 0.0082 -0.1856
vn 0.5468 0.3373 -0.7663
vn -0.9141 0.3634 0.1801
vn -0.7774 0.4094 -0.4774
vn -0.2181 0.4922 -0.8427
vn 0.4363 0.5632 -0.7017
vn 0.8024 0.5808 -0.1371
vn 0.6657 0.5348 0.5204
vn 0.1064 0.4520 0.8857
vn -0.5700 0.1780 0.8021
vn -0.5704 0.0359 0.8206
vn 0.1443 0.2555 0.9560
vn 0.1663 0.1158 0.9792
vn 0.7549 0.3459 0.5572
vn 0.7960 0.2090 0.5680
vn 0.9040 0.3962 -0.1605
vn 0.9499 0.2609 -0.1723
vn 0.5044 0.3769 -0.7769
vn 0.5377 0.2411 -0.8079
vn -0.2100 0.2994 -0.9307
vn -0.1991 0.1612 -0.9666
vn -0.8205 0.2090 -0.5320
vn -0.8288 0.0679 -0.5554
vn -0.9697 0.1587 0.1858
vn -0.9826 0.0161 0.1849
vn -0.5480 0.3810 0.7447
vn -0.7560 0.3092 -0.5770
usemtl Gray_Mushroom04
s off
f 34/1/1 35/2/1 33/3/1
f 35/2/2 38/4/2 37/5/2
f 38/4/3 39/6/3 37/5/3
f 34/7/4 40/8/4 38/9/4
f 40/10/5 41/11/5 39/6/5
f 41/11/6 34/12/6 33/13/6
f 35/14/7 37/15/7 39/16/7
f 85/17/8 78/18/8 86/19/8
f 86/19/9 80/20/9 87/21/9
f 80/20/10 88/22/10 87/21/10
f 76/23/11 82/24/11 80/25/11
f 82/26/12 89/27/12 88/22/12
f 84/28/13 85/29/13 89/27/13
f 77/30/14 79/31/14 81/32/14
f 83/33/15 85/29/15 75/34/15
f 81/35/16 89/27/16 83/33/16
f 87/21/17 81/35/17 79/36/17
f 86/19/18 79/36/18 77/37/18
f 85/17/19 77/37/19 75/38/19
f 132/39/20 125/40/20 133/41/20
f 133/41/21 127/42/21 134/43/21
f 127/42/22 135/44/22 134/43/22
f 123/45/23 129/46/23 127/47/23
f 129/48/24 136/49/24 135/44/24
f 131/50/25 132/51/25 136/49/25
f 124/52/26 126/53/26 128/54/26
f 130/55/27 132/51/27 122/56/27
f 128/57/28 136/49/28 130/55/28
f 126/58/29 135/44/29 128/57/29
f 133/41/30 126/58/30 124/59/30
f 132/39/31 124/59/31 122/60/31
f 34/1/1 36/61/1 35/2/1
f 35/2/2 36/61/2 38/4/2
f 38/4/3 40/10/3 39/6/3
f 38/9/4 36/62/4 34/7/4
f 34/7/4 42/63/4 40/8/4
f 40/10/5 42/64/5 41/11/5
f 41/11/6 42/64/6 34/12/6
f 41/65/7 33/66/7 39/16/7
f 33/66/7 35/14/7 39/16/7
f 85/17/8 76/67/8 78/18/8
f 86/19/9 78/18/9 80/20/9
f 80/20/10 82/26/10 88/22/10
f 80/25/11 78/68/11 76/23/11
f 76/23/11 84/69/11 82/24/11
f 82/26/12 84/28/12 89/27/12
f 84/28/13 76/70/13 85/29/13
f 83/71/14 75/72/14 81/32/14
f 75/72/14 77/30/14 81/32/14
f 83/33/15 89/27/15 85/29/15
f 81/35/16 88/22/16 89/27/16
f 87/21/17 88/22/17 81/35/17
f 86/19/18 87/21/18 79/36/18
f 85/17/19 86/19/19 77/37/19
f 132/39/20 123/73/20 125/40/20
f 133/41/21 125/40/21 127/42/21
f 127/42/22 129/48/22 135/44/22
f 127/47/23 125/74/23 123/45/23
f 123/45/23 131/75/23 129/46/23
f 129/48/24 131/50/24 136/49/24
f 131/50/25 123/76/25 132/51/25
f 130/77/26 122/78/26 128/54/26
f 122/78/26 124/52/26 128/54/26
f 130/55/27 136/49/27 132/51/27
f 128/57/28 135/44/28 136/49/28
f 126/58/29 134/43/29 135/44/29
f 133/41/30 134/43/30 126/58/30
f 132/39/31 133/41/31 124/59/31
usemtl Brown_Mushroom04
f 2/79/32 19/80/32 18/81/32
f 4/82/33 21/83/33 19/80/33
f 6/84/34 23/85/34 21/83/34
f 8/86/35 25/87/35 23/85/35
f 10/88/36 27/89/36 25/87/36
f 14/90/4 10/91/4 6/92/4
f 27/89/37 14/93/37 29/94/37
f 29/94/38 16/95/38 31/96/38
f 7/97/7 11/98/7 15/99/7
f 32/100/39 1/101/39 15/102/39
f 31/96/40 17/103/40 32/100/40
f 13/104/41 32/100/41 15/102/41
f 29/94/42 32/100/42 30/105/42
f 11/106/43 30/105/43 13/104/43
f 27/89/44 30/105/44 28/107/44
f 9/108/45 28/107/45 11/106/45
f 25/87/46 28/107/46 26/109/46
f 24/110/47 9/108/47 7/111/47
f 23/85/48 26/109/48 24/110/48
f 22/112/49 7/111/49 5/113/49
f 21/83/50 24/110/50 22/112/50
f 20/114/51 5/113/51 3/115/51
f 19/80/52 22/112/52 20/114/52
f 17/116/53 3/115/53 1/117/53
f 18/81/54 20/114/54 17/116/54
f 31/96/55 2/118/55 18/119/55
f 44/120/56 61/121/56 60/122/56
f 61/121/57 48/123/57 63/124/57
f 48/123/58 65/125/58 63/124/58
f 50/126/59 67/127/59 65/125/59
f 67/127/60 54/128/60 69/129/60
f 44/130/11 56/131/11 52/132/11
f 69/129/61 56/133/61 71/134/61
f 56/133/62 73/135/62 71/134/62
f 45/136/14 49/137/14 53/138/14
f 74/139/63 43/140/63 57/141/63
f 73/135/64 59/142/64 74/139/64
f 55/143/65 74/139/65 57/141/65
f 71/134/66 74/139/66 72/144/66
f 53/145/67 72/144/67 55/143/67
f 70/146/68 71/134/68 72/144/68
f 51/147/69 70/146/69 53/145/69
f 67/127/70 70/146/70 68/148/70
f 66/149/71 51/147/71 49/150/71
f 66/149/72 67/127/72 68/148/72
f 64/151/73 49/150/73 47/152/73
f 64/151/74 65/125/74 66/149/74
f 62/153/75 47/152/75 45/154/75
f 61/121/76 64/151/76 62/153/76
f 43/155/77 62/153/77 45/154/77
f 59/156/78 61/121/78 62/153/78
f 73/135/79 44/157/79 60/158/79
f 107/159/80 93/160/80 108/161/80
f 93/160/81 110/162/81 108/161/81
f 95/163/82 112/164/82 110/162/82
f 97/165/83 114/166/83 112/164/83
f 99/167/84 116/168/84 114/166/84
f 91/169/23 103/170/23 99/171/23
f 101/172/85 118/173/85 116/168/85
f 118/173/86 105/174/86 120/175/86
f 96/176/26 100/177/26 104/178/26
f 121/179/87 90/180/87 104/181/87
f 121/179/88 107/182/88 106/183/88
f 102/184/89 121/179/89 104/181/89
f 119/185/90 120/175/90 121/179/90
f 117/186/91 102/184/91 100/187/91
f 117/186/92 118/173/92 119/185/92
f 115/188/93 100/187/93 98/189/93
f 114/166/94 117/186/94 115/188/94
f 113/190/95 98/189/95 96/191/95
f 113/190/96 114/166/96 115/188/96
f 111/192/97 96/191/97 94/193/97
f 110/162/98 113/190/98 111/192/98
f 109/194/99 94/193/99 92/195/99
f 108/161/100 111/192/100 109/194/100
f 90/196/101 109/194/101 92/195/101
f 106/197/102 108/161/102 109/194/102
f 105/174/103 107/182/103 120/175/103
f 2/79/32 4/82/32 19/80/32
f 4/82/33 6/84/33 21/83/33
f 6/84/34 8/86/34 23/85/34
f 8/86/35 10/88/35 25/87/35
f 10/88/36 12/198/36 27/89/36
f 6/92/4 4/199/4 14/90/4
f 4/199/4 2/200/4 14/90/4
f 2/200/4 16/201/4 14/90/4
f 14/90/4 12/202/4 10/91/4
f 10/91/4 8/203/4 6/92/4
f 27/89/37 12/198/37 14/93/37
f 29/94/38 14/93/38 16/95/38
f 15/99/7 1/204/7 7/97/7
f 1/204/7 3/205/7 7/97/7
f 3/205/7 5/206/7 7/97/7
f 7/97/7 9/207/7 11/98/7
f 11/98/7 13/208/7 15/99/7
f 32/100/39 17/103/39 1/101/39
f 31/96/40 18/119/40 17/103/40
f 13/104/41 30/105/41 32/100/41
f 29/94/42 31/96/42 32/100/42
f 11/106/43 28/107/43 30/105/43
f 27/89/44 29/94/44 30/105/44
f 9/108/45 26/109/45 28/107/45
f 25/87/46 27/89/46 28/107/46
f 24/110/47 26/109/47 9/108/47
f 23/85/48 25/87/48 26/109/48
f 22/112/49 24/110/49 7/111/49
f 21/83/50 23/85/50 24/110/50
f 20/114/51 22/112/51 5/113/51
f 19/80/52 21/83/52 22/112/52
f 17/116/53 20/114/53 3/115/53
f 18/81/54 19/80/54 20/114/54
f 31/96/55 16/95/55 2/118/55
f 44/120/56 46/209/56 61/121/56
f 61/121/57 46/209/57 48/123/57
f 48/123/58 50/126/58 65/125/58
f 50/126/59 52/210/59 67/127/59
f 67/127/60 52/210/60 54/128/60
f 48/211/11 46/212/11 44/130/11
f 44/130/11 58/213/11 56/131/11
f 56/131/11 54/214/11 52/132/11
f 52/132/11 50/215/11 48/211/11
f 48/211/11 44/130/11 52/132/11
f 69/129/61 54/128/61 56/133/61
f 56/133/62 58/216/62 73/135/62
f 57/217/14 43/218/14 45/136/14
f 45/136/14 47/219/14 49/137/14
f 49/137/14 51/220/14 53/138/14
f 53/138/14 55/221/14 57/217/14
f 57/217/14 45/136/14 53/138/14
f 74/139/63 59/142/63 43/140/63
f 73/135/64 60/158/64 59/142/64
f 55/143/65 72/144/65 74/139/65
f 71/134/66 73/135/66 74/139/66
f 53/145/104 70/146/104 72/144/104
f 70/146/68 69/129/68 71/134/68
f 51/147/69 68/148/69 70/146/69
f 67/127/70 69/129/70 70/146/70
f 66/149/71 68/148/71 51/147/71
f 66/149/72 65/125/72 67/127/72
f 64/151/73 66/149/73 49/150/73
f 64/151/74 63/124/74 65/125/74
f 62/153/75 64/151/75 47/152/75
f 61/121/76 63/124/76 64/151/76
f 43/155/77 59/156/77 62/153/77
f 59/156/78 60/122/78 61/121/78
f 73/135/79 58/216/79 44/157/79
f 107/159/80 91/222/80 93/160/80
f 93/160/81 95/163/81 110/162/81
f 95/163/82 97/165/82 112/164/82
f 97/165/83 99/167/83 114/166/83
f 99/167/84 101/172/84 116/168/84
f 95/223/23 93/224/23 91/169/23
f 91/169/23 105/225/23 103/170/23
f 103/170/23 101/226/23 99/171/23
f 99/171/23 97/227/23 95/223/23
f 95/223/23 91/169/23 99/171/23
f 101/172/85 103/228/85 118/173/85
f 118/173/86 103/228/86 105/174/86
f 104/178/26 90/229/26 92/230/26
f 92/230/26 94/231/26 96/176/26
f 96/176/26 98/232/26 100/177/26
f 100/177/26 102/233/26 104/178/26
f 104/178/26 92/230/26 96/176/26
f 121/179/87 106/183/87 90/180/87
f 121/179/88 120/175/88 107/182/88
f 102/184/89 119/185/89 121/179/89
f 119/185/90 118/173/90 120/175/90
f 117/186/91 119/185/91 102/184/91
f 117/186/92 116/168/92 118/173/92
f 115/188/93 117/186/93 100/187/93
f 114/166/94 116/168/94 117/186/94
f 113/190/95 115/188/95 98/189/95
f 113/190/96 112/164/96 114/166/96
f 111/192/97 113/190/97 96/191/97
f 110/162/98 112/164/98 113/190/98
f 109/194/99 111/192/99 94/193/99
f 108/161/100 110/162/100 111/192/100
f 90/196/101 106/197/101 109/194/101
f 106/197/102 107/159/102 108/161/102
f 105/174/103 91/234/103 107/182/103
