# Blender v2.90.0 OBJ File: 'Mushroom_03.blend'
# www.blender.org
mtllib Mushroom_03.mtl
o Mushroom_03_Cylinder.024
v 0.591199 -0.757376 -0.409560
v 0.609139 -0.526040 -0.397834
v 0.700971 -0.757376 -0.451326
v 0.695363 -0.526040 -0.430640
v 0.774614 -0.757376 -0.359832
v 0.753208 -0.526040 -0.358774
v 0.710356 -0.757376 -0.261520
v 0.702734 -0.526040 -0.281552
v 0.596998 -0.757376 -0.292254
v 0.613695 -0.526040 -0.305693
v 0.689179 0.028101 -0.407832
v 0.628919 0.030409 -0.384905
v 0.729606 0.026450 -0.357607
v 0.694331 0.031151 -0.303638
v 0.632103 0.032629 -0.320510
v 0.230774 -0.140342 -0.645142
v 0.612310 0.232119 -0.395761
v 0.524677 -0.193066 -0.810801
v 0.659516 0.232119 -0.427999
v 0.906537 -0.150256 -0.709398
v 0.715691 0.232119 -0.417416
v 1.152665 -0.239670 -0.400334
v 0.747929 0.232119 -0.370210
v 1.118882 -0.154631 -0.064654
v 0.737345 0.232119 -0.314035
v 0.824978 -0.119375 0.101004
v 0.690140 0.232051 -0.281797
v 0.443119 -0.131042 -0.000399
v 0.633965 0.231892 -0.292381
v 0.196991 -0.119375 -0.309463
v 0.601727 0.232051 -0.339586
v 0.470321 0.071338 -0.488569
v 0.624739 0.057643 -0.594026
v 0.808498 0.065467 -0.559406
v 0.913956 0.040355 -0.404987
v 0.879335 0.062442 -0.221228
v 0.724917 0.082562 -0.115770
v 0.541157 0.078991 -0.150391
v 0.435700 0.082562 -0.304809
v 0.179132 -0.647131 0.302953
v 0.153964 -0.306800 0.283958
v 0.013856 -0.647131 0.353344
v 0.024144 -0.306800 0.323538
v -0.085141 -0.647131 0.211729
v -0.053615 -0.306800 0.212303
v 0.018951 -0.647131 0.073815
v 0.028146 -0.306800 0.103976
v 0.182280 -0.647131 0.130195
v 0.156437 -0.306800 0.148261
v 0.035488 0.518364 0.290677
v 0.126216 0.518364 0.263015
v -0.018857 0.518364 0.212937
v 0.038285 0.518364 0.137229
v 0.127945 0.518364 0.168179
v 0.684741 0.294921 0.684569
v 0.149516 0.808570 0.280600
v 0.236883 0.294921 0.898504
v 0.077023 0.808570 0.323226
v -0.313527 0.294921 0.711704
v -0.004378 0.808570 0.302107
v -0.644067 0.294921 0.233594
v -0.047004 0.808570 0.229615
v -0.561111 0.294921 -0.255755
v -0.025885 0.808570 0.148214
v -0.113253 0.294921 -0.469690
v 0.046607 0.808570 0.105588
v 0.437157 0.294921 -0.282890
v 0.128008 0.808570 0.126706
v 0.767697 0.294921 0.195219
v 0.170634 0.808570 0.199199
v 0.348701 0.593385 0.430938
v 0.111563 0.593385 0.570376
v -0.154716 0.593385 0.501293
v -0.294154 0.593385 0.264155
v -0.225071 0.593385 -0.002124
v 0.012067 0.593385 -0.141563
v 0.278346 0.593385 -0.072479
v 0.417785 0.593385 0.164659
v -0.653819 -0.690441 0.157130
v -0.671587 -0.494833 0.153561
v -0.726873 -0.690441 0.224403
v -0.728969 -0.494833 0.206402
v -0.813429 -0.690441 0.175713
v -0.796956 -0.494833 0.168157
v -0.793869 -0.690441 0.078347
v -0.781592 -0.494833 0.091679
v -0.695224 -0.690441 0.066863
v -0.704109 -0.494833 0.082658
v -0.731280 -0.026273 0.186555
v -0.691176 -0.024321 0.149625
v -0.778795 -0.027669 0.159826
v -0.768057 -0.023694 0.106377
v -0.713906 -0.022444 0.100073
v -0.296863 -0.168702 0.228841
v -0.674727 0.146237 0.152930
v -0.475545 -0.213283 0.451221
v -0.701658 0.146237 0.193068
v -0.807175 -0.177084 0.491579
v -0.749082 0.146237 0.202407
v -1.097488 -0.252690 0.326275
v -0.789220 0.146237 0.175477
v -1.176423 -0.180784 0.052141
v -0.798559 0.146237 0.128053
v -0.997741 -0.150973 -0.170238
v -0.771629 0.146179 0.087915
v -0.666111 -0.160838 -0.210596
v -0.724204 0.146045 0.078576
v -0.375798 -0.150973 -0.045292
v -0.684067 0.146179 0.105506
v -0.534104 0.010287 0.181181
v -0.622198 -0.001293 0.312479
v -0.777332 0.005322 0.343030
v -0.908631 -0.015911 0.254936
v -0.939182 0.002765 0.099802
v -0.851088 0.019777 -0.031497
v -0.695954 0.016758 -0.062047
v -0.564655 0.019777 0.026046
vt 1.000000 1.000000
vt 0.800000 0.500000
vt 1.000000 0.500000
vt 0.800000 1.000000
vt 0.600000 0.500000
vt 0.600000 1.000000
vt 0.400000 0.500000
vt 0.200000 1.000000
vt 0.400000 1.000000
vt 0.200000 1.000000
vt 0.200000 0.500000
vt 0.000000 1.000000
vt 0.000000 0.500000
vt 0.978254 0.324164
vt 0.891068 0.055836
vt 0.608932 0.055836
vt 0.250000 0.490000
vt 0.021746 0.324164
vt 0.108932 0.055836
vt 0.600000 1.000000
vt 0.000000 1.000000
vt 0.800000 1.000000
vt 0.400000 1.000000
vt 1.000000 1.000000
vt 0.800000 0.500000
vt 1.000000 0.500000
vt 0.800000 1.000000
vt 0.600000 0.500000
vt 0.600000 1.000000
vt 0.400000 0.500000
vt 0.400000 1.000000
vt 0.200000 1.000000
vt 0.200000 1.000000
vt 0.200000 0.500000
vt 0.000000 0.500000
vt 0.978254 0.324164
vt 0.608932 0.055836
vt 0.521746 0.324164
vt 0.021746 0.324164
vt 0.108932 0.055836
vt 0.391068 0.055836
vt 0.600000 1.000000
vt 0.000000 1.000000
vt 0.000000 1.000000
vt 0.800000 1.000000
vt 0.400000 1.000000
vt 1.000000 1.000000
vt 0.800000 0.500000
vt 1.000000 0.500000
vt 0.800000 1.000000
vt 0.600000 0.500000
vt 0.400000 1.000000
vt 0.400000 0.500000
vt 0.200000 1.000000
vt 0.400000 1.000000
vt 0.200000 1.000000
vt 0.200000 0.500000
vt 0.000000 0.500000
vt 0.891068 0.055836
vt 0.608932 0.055836
vt 0.521746 0.324164
vt 0.250000 0.490000
vt 0.021746 0.324164
vt 0.108932 0.055836
vt 0.600000 1.000000
vt 0.600000 1.000000
vt 0.000000 1.000000
vt 0.000000 1.000000
vt 0.800000 1.000000
vt 0.521746 0.324164
vt 0.750000 0.490000
vt 0.391068 0.055836
vt 0.478254 0.324164
vt 1.000000 1.000000
vt 0.750000 0.490000
vt 0.891068 0.055836
vt 0.478254 0.324164
vt 0.250000 0.490000
vt 1.000000 1.000000
vt 0.750000 0.490000
vt 0.978254 0.324164
vt 0.391068 0.055836
vt 0.478254 0.324164
vt 1.000000 1.000000
vt 1.000000 0.824816
vt 0.875000 1.000000
vt 0.875000 0.824816
vt 0.750000 0.824816
vt 0.625000 1.000000
vt 0.625000 0.824816
vt 0.500000 0.824816
vt 0.500000 1.000000
vt 0.375000 0.824816
vt 0.250000 1.000000
vt 0.250000 0.824816
vt 0.250000 0.490000
vt 0.010000 0.250000
vt 0.250000 0.010000
vt 0.125000 0.824816
vt 0.000000 1.000000
vt 0.000000 0.824816
vt 0.580294 0.080294
vt 0.510000 0.250000
vt 0.990000 0.250000
vt 0.125000 0.500000
vt 0.000000 0.500000
vt 0.250000 0.500000
vt 0.375000 0.500000
vt 0.500000 0.500000
vt 0.625000 0.500000
vt 0.750000 0.500000
vt 0.875000 0.500000
vt 1.000000 0.500000
vt 1.000000 1.000000
vt 0.875000 0.824816
vt 1.000000 0.824816
vt 0.875000 1.000000
vt 0.750000 0.824816
vt 0.750000 1.000000
vt 0.625000 0.824816
vt 0.625000 1.000000
vt 0.500000 0.824816
vt 0.500000 1.000000
vt 0.375000 0.824816
vt 0.375000 1.000000
vt 0.250000 0.824816
vt 0.250000 0.490000
vt 0.010000 0.250000
vt 0.250000 0.010000
vt 0.250000 1.000000
vt 0.125000 0.824816
vt 0.125000 1.000000
vt 0.000000 0.824816
vt 0.580294 0.080294
vt 0.510000 0.250000
vt 0.919706 0.080294
vt 0.125000 0.500000
vt 0.000000 0.500000
vt 0.250000 0.500000
vt 0.375000 0.500000
vt 0.500000 0.500000
vt 0.625000 0.500000
vt 0.750000 0.500000
vt 0.875000 0.500000
vt 1.000000 0.500000
vt 1.000000 0.824816
vt 0.875000 1.000000
vt 0.875000 0.824816
vt 0.750000 0.824816
vt 0.625000 1.000000
vt 0.625000 0.824816
vt 0.500000 0.824816
vt 0.500000 1.000000
vt 0.375000 0.824816
vt 0.250000 1.000000
vt 0.250000 0.824816
vt 0.250000 0.010000
vt 0.419706 0.080294
vt 0.490000 0.250000
vt 0.125000 0.824816
vt 0.000000 1.000000
vt 0.000000 0.824816
vt 0.580294 0.080294
vt 0.510000 0.250000
vt 0.990000 0.250000
vt 0.125000 0.500000
vt 0.000000 0.500000
vt 0.250000 0.500000
vt 0.375000 0.500000
vt 0.500000 0.500000
vt 0.625000 0.500000
vt 0.750000 0.500000
vt 0.875000 0.500000
vt 1.000000 0.500000
vt 1.000000 1.000000
vt 0.750000 1.000000
vt 0.375000 1.000000
vt 0.490000 0.250000
vt 0.419706 0.419706
vt 0.080294 0.419706
vt 0.080294 0.080294
vt 0.419706 0.080294
vt 0.125000 1.000000
vt 0.580294 0.419706
vt 0.750000 0.490000
vt 0.919706 0.419706
vt 0.919706 0.080294
vt 0.750000 0.010000
vt 0.490000 0.250000
vt 0.419706 0.419706
vt 0.080294 0.419706
vt 0.080294 0.080294
vt 0.419706 0.080294
vt 0.000000 1.000000
vt 0.580294 0.419706
vt 0.750000 0.490000
vt 0.919706 0.419706
vt 0.990000 0.250000
vt 0.750000 0.010000
vt 1.000000 1.000000
vt 0.750000 1.000000
vt 0.375000 1.000000
vt 0.419706 0.419706
vt 0.250000 0.490000
vt 0.080294 0.419706
vt 0.010000 0.250000
vt 0.080294 0.080294
vt 0.125000 1.000000
vt 0.580294 0.419706
vt 0.750000 0.490000
vt 0.919706 0.419706
vt 0.919706 0.080294
vt 0.750000 0.010000
vn -0.3546 0.0747 -0.9320
vn 0.7768 0.0747 -0.6253
vn 0.8347 0.0747 0.5456
vn -0.2608 0.0342 0.9648
vn -0.2609 0.0747 0.9625
vn -0.9960 0.0747 0.0492
vn 0.0000 -1.0000 0.0000
vn 0.0335 0.9988 -0.0361
vn 0.7785 0.0346 -0.6266
vn -0.9982 0.0343 0.0494
vn -0.3554 0.0345 -0.9341
vn 0.8379 0.0342 0.5447
vn 0.2908 0.0747 0.9539
vn -0.8173 0.0747 0.5713
vn -0.7959 0.0747 -0.6007
vn 0.3261 0.0341 -0.9447
vn 0.3254 0.0747 -0.9426
vn 0.9970 0.0747 0.0182
vn 0.0000 1.0000 -0.0000
vn -0.8191 0.0341 0.5726
vn 0.9993 0.0341 0.0182
vn 0.2915 0.0341 0.9560
vn -0.7977 0.0341 -0.6021
vn 0.6755 0.0747 0.7336
vn -0.4889 0.0747 0.8691
vn -0.9777 0.0747 -0.1964
vn -0.1164 0.0342 -0.9926
vn -0.1153 0.0747 -0.9905
vn 0.9064 0.0747 -0.4158
vn -0.0177 0.9988 0.0460
vn -0.4900 0.0346 0.8710
vn 0.9084 0.0343 -0.4167
vn 0.6770 0.0345 0.7352
vn -0.9803 0.0342 -0.1944
vn -0.2615 0.0343 0.9646
vn 0.0819 0.9961 -0.0332
vn 0.0266 0.9992 -0.0306
vn 0.7791 0.0345 -0.6260
vn -0.9983 0.0342 0.0482
vn -0.3542 0.0343 -0.9345
vn 0.8366 0.0346 0.5468
vn -0.1156 0.0343 -0.9927
vn -0.0637 0.9961 0.0613
vn -0.0134 0.9992 0.0383
vn -0.4908 0.0345 0.8706
vn 0.9089 0.0342 -0.4156
vn 0.6761 0.0343 0.7360
vn -0.9798 0.0346 -0.1968
vn -0.3729 0.6776 -0.6339
vn 0.1090 0.6738 -0.7309
vn 0.6740 0.6479 -0.3549
vn 0.7602 0.6463 0.0655
vn 0.4665 0.6918 0.5511
vn -0.1422 0.7185 0.6808
vn -0.0017 1.0000 0.0026
vn -0.5665 0.7185 0.4035
vn -0.6868 0.7061 -0.1725
vn 0.0199 -0.9990 0.0401
vn -0.6165 0.7795 -0.1107
vn -0.5719 0.6649 0.4805
vn -0.2106 0.6649 0.7166
vn 0.3766 0.7782 0.5026
vn 0.7050 0.7011 -0.1067
vn 0.7043 0.5939 -0.3890
vn 0.1369 0.6161 -0.7757
vn -0.2294 0.7331 -0.6402
vn 0.3458 0.7311 0.5882
vn -0.1713 0.7311 0.6605
vn -0.5882 0.7311 0.3458
vn -0.6605 0.7311 -0.1713
vn -0.3458 0.7311 -0.5882
vn 0.1713 0.7311 -0.6605
vn 0.5882 0.7311 -0.3458
vn 0.6605 0.7311 0.1713
vn 0.6153 0.7814 0.1043
vn 0.6095 0.6715 -0.4214
vn 0.2382 0.6715 -0.7017
vn -0.2690 0.7814 -0.5631
vn -0.6153 0.7814 -0.1043
vn -0.6095 0.6715 0.4214
vn -0.2382 0.6715 0.7017
vn 0.2690 0.7814 0.5631
vn 0.5817 0.6776 0.4500
vn 0.1703 0.6738 0.7191
vn -0.4939 0.6479 0.5799
vn -0.7302 0.6463 0.2216
vn -0.6379 0.6918 -0.3383
vn -0.1209 0.7185 -0.6849
vn 0.3760 0.7185 -0.5851
vn 0.7017 0.7061 -0.0950
vn -0.0333 -0.9990 -0.0298
vn 0.6135 0.7795 -0.1262
vn 0.3524 0.6649 -0.6586
vn -0.0707 0.6649 -0.7436
vn -0.5364 0.7782 -0.3267
vn -0.6149 0.7011 0.3610
vn -0.5093 0.5939 0.6228
vn 0.1611 0.6161 0.7711
vn 0.4508 0.7331 0.5092
vn -0.4039 0.6980 -0.5914
vn 0.1349 0.6851 -0.7159
vn 0.6016 0.6851 -0.4108
vn 0.7219 0.6785 0.1360
vn 0.3884 0.7238 0.5703
vn -0.1298 0.7232 0.6783
vn 0.0025 1.0000 0.0017
vn -0.0025 1.0000 -0.0016
vn -0.5692 0.7232 0.3912
vn -0.6783 0.7238 -0.1269
vn -0.1509 -0.9874 0.0465
vn 0.0611 -0.9810 0.1841
vn -0.3429 -0.9394 0.0013
vn -0.0447 -0.9990 -0.0021
vn 0.0234 -0.9685 0.2477
vn -0.6350 0.7545 -0.1657
vn -0.6403 0.6214 0.4516
vn -0.1567 0.6214 0.7677
vn 0.4370 0.7498 0.4968
vn 0.7589 0.6480 0.0651
vn 0.7077 0.5909 -0.3872
vn 0.1227 0.6036 -0.7878
vn -0.3667 0.6879 -0.6263
vn 0.6319 0.7576 0.1639
vn 0.6679 0.6322 -0.3927
vn 0.1946 0.6322 -0.7500
vn -0.3309 0.7576 -0.5627
vn -0.6319 0.7576 -0.1639
vn -0.6679 0.6322 0.3927
vn -0.1946 0.6322 0.7500
vn 0.3309 0.7576 0.5627
vn 0.5947 0.6980 0.3990
vn 0.1408 0.6851 0.7148
vn -0.4059 0.6851 0.6049
vn -0.7208 0.6785 0.1419
vn -0.5725 0.7238 -0.3852
vn -0.1315 0.7232 -0.6780
vn -0.0007 1.0000 -0.0011
vn -0.0020 1.0000 -0.0020
vn 0.0026 1.0000 -0.0010
vn 0.0011 1.0000 -0.0007
vn 0.3831 0.7232 -0.5746
vn 0.6769 0.7238 -0.1342
vn 0.1229 -0.9874 -0.0992
vn -0.1251 -0.9810 -0.1482
vn 0.3179 -0.9394 -0.1286
vn 0.0423 -0.9990 -0.0146
vn -0.1138 -0.9685 -0.2213
vn 0.6512 0.7545 -0.0821
vn 0.4266 0.6214 -0.6572
vn -0.1397 0.6214 -0.7710
vn -0.5903 0.7498 -0.2989
vn -0.7287 0.6480 0.2215
vn -0.5132 0.5909 0.6225
vn 0.1788 0.6036 0.7770
vn 0.5732 0.6879 0.4452
usemtl Gray_Mushroom03
s off
f 2/1/1 3/2/1 1/3/1
f 4/4/2 5/5/2 3/2/2
f 6/6/3 7/7/3 5/5/3
f 10/8/4 14/9/4 15/10/4
f 7/7/5 10/8/5 9/11/5
f 9/11/6 2/12/6 1/13/6
f 3/14/7 5/15/7 7/16/7
f 12/17/8 15/18/8 14/19/8
f 4/4/9 13/20/9 6/6/9
f 10/8/10 12/21/10 2/12/10
f 2/1/11 11/22/11 4/4/11
f 8/23/12 13/20/12 14/9/12
f 41/24/13 42/25/13 40/26/13
f 43/27/14 44/28/14 42/25/14
f 45/29/15 46/30/15 44/28/15
f 47/31/16 54/32/16 49/33/16
f 47/31/17 48/34/17 46/30/17
f 49/33/18 40/35/18 48/34/18
f 42/36/7 46/37/7 48/38/7
f 54/39/19 53/40/19 52/41/19
f 43/27/20 52/42/20 45/29/20
f 49/33/21 51/43/21 41/44/21
f 41/24/22 50/45/22 43/27/22
f 45/29/23 53/46/23 47/31/23
f 80/47/24 81/48/24 79/49/24
f 82/50/25 83/51/25 81/48/25
f 83/51/26 86/52/26 85/53/26
f 88/54/27 92/55/27 93/56/27
f 86/52/28 87/57/28 85/53/28
f 88/54/29 79/58/29 87/57/29
f 83/59/7 85/60/7 87/61/7
f 90/62/30 93/63/30 92/64/30
f 82/50/31 91/65/31 84/66/31
f 88/54/32 90/67/32 80/68/32
f 80/47/33 89/69/33 82/50/33
f 86/52/34 91/65/34 92/55/34
f 2/1/1 4/4/1 3/2/1
f 4/4/2 6/6/2 5/5/2
f 6/6/3 8/23/3 7/7/3
f 10/8/35 8/23/35 14/9/35
f 7/7/5 8/23/5 10/8/5
f 9/11/6 10/8/6 2/12/6
f 9/70/7 1/71/7 7/16/7
f 1/71/7 3/14/7 7/16/7
f 13/72/36 11/73/36 14/19/36
f 11/73/37 12/17/37 14/19/37
f 4/4/38 11/22/38 13/20/38
f 10/8/39 15/10/39 12/21/39
f 2/1/40 12/74/40 11/22/40
f 8/23/41 6/6/41 13/20/41
f 41/24/13 43/27/13 42/25/13
f 43/27/14 45/29/14 44/28/14
f 45/29/15 47/31/15 46/30/15
f 47/31/16 53/46/16 54/32/16
f 47/31/17 49/33/17 48/34/17
f 49/33/18 41/44/18 40/35/18
f 48/38/7 40/75/7 42/36/7
f 42/36/7 44/76/7 46/37/7
f 52/41/19 50/77/19 51/78/19
f 51/78/19 54/39/19 52/41/19
f 43/27/20 50/45/20 52/42/20
f 49/33/21 54/32/21 51/43/21
f 41/24/22 51/79/22 50/45/22
f 45/29/23 52/42/23 53/46/23
f 80/47/24 82/50/24 81/48/24
f 82/50/25 84/66/25 83/51/25
f 83/51/26 84/66/26 86/52/26
f 88/54/42 86/52/42 92/55/42
f 86/52/28 88/54/28 87/57/28
f 88/54/29 80/68/29 79/58/29
f 87/61/7 79/80/7 81/81/7
f 81/81/7 83/59/7 87/61/7
f 91/82/43 89/83/43 92/64/43
f 89/83/44 90/62/44 92/64/44
f 82/50/45 89/69/45 91/65/45
f 88/54/46 93/56/46 90/67/46
f 80/47/47 90/84/47 89/69/47
f 86/52/48 84/66/48 91/65/48
usemtl Red_Mushroom03
f 32/85/49 19/86/49 33/87/49
f 19/86/50 34/88/50 33/87/50
f 34/88/51 23/89/51 35/90/51
f 23/89/52 36/91/52 35/90/52
f 25/92/53 37/93/53 36/91/53
f 37/93/54 29/94/54 38/95/54
f 17/96/55 29/97/55 25/98/55
f 29/94/56 39/99/56 38/95/56
f 39/99/57 17/100/57 32/101/57
f 26/102/58 28/103/58 20/104/58
f 30/105/59 32/101/59 16/106/59
f 28/107/60 39/99/60 30/105/60
f 37/93/61 28/107/61 26/108/61
f 36/91/62 26/108/62 24/109/62
f 22/110/63 36/91/63 24/109/63
f 20/111/64 35/90/64 22/110/64
f 33/87/65 20/111/65 18/112/65
f 32/85/66 18/112/66 16/113/66
f 56/114/67 72/115/67 71/116/67
f 58/117/68 73/118/68 72/115/68
f 60/119/69 74/120/69 73/118/69
f 62/121/70 75/122/70 74/120/70
f 64/123/71 76/124/71 75/122/71
f 66/125/72 77/126/72 76/124/72
f 56/127/19 68/128/19 64/129/19
f 68/130/73 78/131/73 77/126/73
f 70/132/74 71/133/74 78/131/74
f 65/134/7 67/135/7 61/136/7
f 69/137/75 71/133/75 55/138/75
f 67/139/76 78/131/76 69/137/76
f 76/124/77 67/139/77 65/140/77
f 75/122/78 65/140/78 63/141/78
f 61/142/79 75/122/79 63/141/79
f 59/143/80 74/120/80 61/142/80
f 72/115/81 59/143/81 57/144/81
f 71/116/82 57/144/82 55/145/82
f 110/146/83 97/147/83 111/148/83
f 97/147/84 112/149/84 111/148/84
f 112/149/85 101/150/85 113/151/85
f 101/150/86 114/152/86 113/151/86
f 103/153/87 115/154/87 114/152/87
f 115/154/88 107/155/88 116/156/88
f 103/157/19 101/158/19 99/159/19
f 107/155/89 117/160/89 116/156/89
f 117/160/90 95/161/90 110/162/90
f 104/163/91 106/164/91 98/165/91
f 108/166/92 110/162/92 94/167/92
f 106/168/93 117/160/93 108/166/93
f 115/154/94 106/168/94 104/169/94
f 114/152/95 104/169/95 102/170/95
f 100/171/96 114/152/96 102/170/96
f 98/172/97 113/151/97 100/171/97
f 111/148/98 98/172/98 96/173/98
f 110/146/99 96/173/99 94/174/99
f 32/85/100 17/175/100 19/86/100
f 19/86/101 21/176/101 34/88/101
f 34/88/102 21/176/102 23/89/102
f 23/89/103 25/92/103 36/91/103
f 25/92/104 27/177/104 37/93/104
f 37/93/105 27/177/105 29/94/105
f 21/178/19 19/179/19 17/96/19
f 17/96/106 31/180/106 29/97/106
f 29/97/107 27/181/107 25/98/107
f 25/98/19 23/182/19 21/178/19
f 21/178/19 17/96/19 25/98/19
f 29/94/108 31/183/108 39/99/108
f 39/99/109 31/183/109 17/100/109
f 30/184/110 16/185/110 18/186/110
f 18/186/111 20/104/111 30/184/111
f 20/104/112 22/187/112 26/102/112
f 30/184/113 20/104/113 28/103/113
f 22/187/114 24/188/114 26/102/114
f 30/105/115 39/99/115 32/101/115
f 28/107/116 38/95/116 39/99/116
f 37/93/117 38/95/117 28/107/117
f 36/91/118 37/93/118 26/108/118
f 22/110/119 35/90/119 36/91/119
f 20/111/120 34/88/120 35/90/120
f 33/87/121 34/88/121 20/111/121
f 32/85/122 33/87/122 18/112/122
f 56/114/67 58/117/67 72/115/67
f 58/117/68 60/119/68 73/118/68
f 60/119/69 62/121/69 74/120/69
f 62/121/70 64/123/70 75/122/70
f 64/123/71 66/125/71 76/124/71
f 66/125/72 68/130/72 77/126/72
f 60/189/19 58/190/19 56/127/19
f 56/127/19 70/191/19 68/128/19
f 68/128/19 66/192/19 64/129/19
f 64/129/19 62/193/19 60/189/19
f 60/189/19 56/127/19 64/129/19
f 68/130/73 70/132/73 78/131/73
f 70/132/74 56/194/74 71/133/74
f 69/195/7 55/196/7 57/197/7
f 57/197/7 59/198/7 69/195/7
f 59/198/7 61/136/7 67/135/7
f 69/195/7 59/198/7 67/135/7
f 61/136/7 63/199/7 65/134/7
f 69/137/123 78/131/123 71/133/123
f 67/139/124 77/126/124 78/131/124
f 76/124/125 77/126/125 67/139/125
f 75/122/126 76/124/126 65/140/126
f 61/142/127 74/120/127 75/122/127
f 59/143/128 73/118/128 74/120/128
f 72/115/129 73/118/129 59/143/129
f 71/116/130 72/115/130 57/144/130
f 110/146/131 95/200/131 97/147/131
f 97/147/132 99/201/132 112/149/132
f 112/149/133 99/201/133 101/150/133
f 101/150/134 103/153/134 114/152/134
f 103/153/135 105/202/135 115/154/135
f 115/154/136 105/202/136 107/155/136
f 99/159/19 97/203/19 95/204/19
f 95/204/137 109/205/137 99/159/137
f 109/205/138 107/206/138 99/159/138
f 107/206/139 105/207/139 99/159/139
f 105/207/140 103/157/140 99/159/140
f 107/155/141 109/208/141 117/160/141
f 117/160/142 109/208/142 95/161/142
f 108/209/143 94/210/143 96/211/143
f 96/211/144 98/165/144 108/209/144
f 98/165/145 100/212/145 104/163/145
f 108/209/146 98/165/146 106/164/146
f 100/212/147 102/213/147 104/163/147
f 108/166/148 117/160/148 110/162/148
f 106/168/149 116/156/149 117/160/149
f 115/154/150 116/156/150 106/168/150
f 114/152/151 115/154/151 104/169/151
f 100/171/152 113/151/152 114/152/152
f 98/172/153 112/149/153 113/151/153
f 111/148/154 112/149/154 98/172/154
f 110/146/155 111/148/155 96/173/155
