# Blender v2.90.0 OBJ File: 'Mushroom_02.blend'
# www.blender.org
mtllib Mushroom_02.mtl
o Mushroom_02_Cylinder.027
v 0.233193 -0.532178 -0.183669
v 0.318015 0.295763 -0.188049
v 0.192091 -0.532178 -0.067887
v 0.255167 0.295763 -0.011005
v 0.081158 -0.532178 -0.015079
v 0.085537 0.295763 0.069743
v -0.034625 -0.532178 -0.056180
v -0.091507 0.295763 0.006895
v -0.087433 -0.532178 -0.167114
v -0.172255 0.295763 -0.162734
v -0.046332 -0.532178 -0.282897
v -0.109407 0.295763 -0.339778
v 0.064602 -0.532178 -0.335705
v 0.060222 0.295763 -0.420527
v 0.180385 -0.532178 -0.294603
v 0.237266 0.295763 -0.357679
v 0.460440 0.318670 -0.195403
v 0.361077 0.318670 0.084505
v 0.092892 0.318670 0.212169
v -0.187016 0.318670 0.112805
v -0.314680 0.318670 -0.155380
v -0.215317 0.318670 -0.435288
v 0.052868 0.318670 -0.562952
v 0.332776 0.318670 -0.463589
v 0.526763 0.373416 0.233921
v 0.683251 0.373416 -0.206908
v 0.560237 0.182142 -0.200556
v 0.104396 0.373416 0.434980
v -0.336433 0.373416 0.278492
v -0.537492 0.373416 -0.143875
v -0.381003 0.373416 -0.584704
v 0.041363 0.373416 -0.785763
v 0.482192 0.373416 -0.629275
v 0.435287 0.182142 0.151427
v 0.098044 0.182142 0.311965
v -0.253939 0.182142 0.187016
v -0.414477 0.182142 -0.150227
v -0.289527 0.182142 -0.502211
v 0.047715 0.182142 -0.662749
v 0.399699 0.182142 -0.537799
v -0.242460 0.483885 0.174287
v -0.397360 0.483885 -0.151111
v -0.276799 0.483885 -0.490732
v 0.048599 0.483885 -0.645631
v 0.097161 0.483885 0.294848
v 0.422558 0.483885 0.139949
v 0.388220 0.483885 -0.525070
v 0.543119 0.483885 -0.199672
v 0.237086 -0.023571 -0.027311
v 0.084282 -0.023571 0.045429
v -0.075201 -0.023571 -0.011186
v -0.147941 -0.023571 -0.163990
v -0.091326 -0.023571 -0.323473
v 0.061478 -0.023571 -0.396212
v 0.220961 -0.023571 -0.339598
v 0.293700 -0.023571 -0.186794
v -0.660551 -0.571818 -0.057981
v -0.622435 0.049664 -0.109088
v -0.613351 -0.571818 0.021249
v -0.550260 0.049664 0.012064
v -0.635999 -0.571818 0.110649
v -0.584892 0.049664 0.148766
v -0.715230 -0.571818 0.157850
v -0.706044 0.049664 0.220940
v -0.804630 -0.571818 0.135201
v -0.842746 0.049664 0.186308
v -0.851830 -0.571818 0.055971
v -0.914920 0.049664 0.065157
v -0.829181 -0.571818 -0.033429
v -0.880288 0.049664 -0.071545
v -0.749951 -0.571818 -0.080630
v -0.759137 0.049664 -0.143720
v -0.558434 0.066859 -0.194901
v -0.444325 0.066859 -0.003360
v -0.499079 0.066859 0.212767
v -0.690620 0.066859 0.326875
v -0.906747 0.066859 0.272121
v -1.020855 0.066859 0.080580
v -0.966102 0.066859 -0.135547
v -0.774560 0.066859 -0.249655
v -0.278600 0.107953 -0.027489
v -0.458310 0.107953 -0.329149
v -0.513588 -0.035624 -0.255030
v -0.364832 0.107953 0.312891
v -0.666491 0.107953 0.492600
v -1.006871 0.107953 0.406369
v -1.186581 0.107953 0.104709
v -1.100349 0.107953 -0.235670
v -0.798689 0.107953 -0.415380
v -0.370098 -0.035624 -0.014167
v -0.438950 -0.035624 0.257612
v -0.679813 -0.035624 0.401103
v -0.951592 -0.035624 0.332250
v -1.095083 -0.035624 0.091387
v -1.026230 -0.035624 -0.180392
v -0.785368 -0.035624 -0.323883
v -0.681667 0.190875 0.388371
v -0.943900 0.190875 0.321937
v -1.082351 0.190875 0.089534
v -1.015917 0.190875 -0.172700
v -0.449264 0.190875 0.249920
v -0.382829 0.190875 -0.012314
v -0.783514 0.190875 -0.311151
v -0.521280 0.190875 -0.244717
v -0.568346 -0.190039 0.014697
v -0.599542 -0.190039 0.137839
v -0.708677 -0.190039 0.202855
v -0.831820 -0.190039 0.171658
v -0.896835 -0.190039 0.062523
v -0.865638 -0.190039 -0.060619
v -0.756504 -0.190039 -0.125635
v -0.633361 -0.190039 -0.094438
v 0.582249 -0.500418 0.085765
v 0.541264 -0.022037 0.058773
v 0.641011 -0.500418 0.045934
v 0.631117 -0.022037 -0.002133
v 0.710727 -0.500418 0.059320
v 0.737719 -0.022037 0.018335
v 0.750558 -0.500418 0.118082
v 0.798625 -0.022037 0.108188
v 0.737172 -0.500418 0.187798
v 0.778157 -0.022037 0.214790
v 0.678410 -0.500418 0.227629
v 0.688304 -0.022037 0.275696
v 0.608694 -0.500418 0.214243
v 0.581702 -0.022037 0.255228
v 0.568863 -0.500418 0.155481
v 0.520796 -0.022037 0.165375
v 0.472446 -0.008801 0.013449
v 0.614504 -0.008801 -0.082844
v 0.783043 -0.008801 -0.050483
v 0.879336 -0.008801 0.091575
v 0.846975 -0.008801 0.260114
v 0.704917 -0.008801 0.356407
v 0.536378 -0.008801 0.324046
v 0.440085 -0.008801 0.181988
v 0.588515 0.022831 -0.209108
v 0.364787 0.022831 -0.057456
v 0.424226 -0.087687 -0.018309
v 0.853948 0.022831 -0.158142
v 1.005600 0.022831 0.065586
v 0.954634 0.022831 0.331019
v 0.730906 0.022831 0.482671
v 0.465473 0.022831 0.431705
v 0.313821 0.022831 0.207977
v 0.602863 -0.087687 -0.139397
v 0.814801 -0.087687 -0.098703
v 0.935889 -0.087687 0.079935
v 0.895195 -0.087687 0.291872
v 0.716557 -0.087687 0.412960
v 0.504620 -0.087687 0.372266
v 0.383532 -0.087687 0.193628
v 0.926189 0.086660 0.081931
v 0.886924 0.086660 0.286425
v 0.714561 0.086660 0.403260
v 0.510067 0.086660 0.363995
v 0.809354 0.086660 -0.090432
v 0.604860 0.086660 -0.129697
v 0.393232 0.086660 0.191632
v 0.432497 0.086660 -0.012862
v 0.633953 -0.206547 0.011646
v 0.729982 -0.206547 0.030084
v 0.784846 -0.206547 0.111024
v 0.766408 -0.206547 0.207053
v 0.685468 -0.206547 0.261917
v 0.589439 -0.206547 0.243479
v 0.534575 -0.206547 0.162539
v 0.553013 -0.206547 0.066510
vt 0.510000 0.250000
vt 0.580294 0.419706
vt 0.919706 0.080294
vt 0.125000 0.915842
vt 0.000000 0.707921
vt 0.125000 0.707921
vt 0.250000 0.707921
vt 0.375000 0.915842
vt 0.375000 0.707921
vt 0.500000 0.915842
vt 0.500000 0.707921
vt 0.625000 0.915842
vt 0.625000 0.707921
vt 0.750000 0.915842
vt 0.750000 0.707921
vt 0.875000 0.915842
vt 0.875000 0.707921
vt 1.000000 0.915842
vt 1.000000 0.707921
vt 0.875000 0.500000
vt 1.000000 0.500000
vt 0.750000 0.500000
vt 0.625000 0.500000
vt 0.500000 0.500000
vt 0.375000 0.500000
vt 0.250000 0.500000
vt 0.125000 0.500000
vt 0.000000 0.500000
vt 0.919706 0.080294
vt 0.580294 0.080294
vt 0.580294 0.419706
vt 0.125000 0.915842
vt 0.000000 0.707921
vt 0.125000 0.707921
vt 0.250000 0.915842
vt 0.250000 0.707921
vt 0.375000 0.707921
vt 0.500000 0.915842
vt 0.500000 0.707921
vt 0.625000 0.915842
vt 0.625000 0.707921
vt 0.750000 0.915842
vt 0.750000 0.707921
vt 0.875000 0.707921
vt 1.000000 0.915842
vt 1.000000 0.707921
vt 0.875000 0.500000
vt 1.000000 0.500000
vt 0.750000 0.500000
vt 0.625000 0.500000
vt 0.500000 0.500000
vt 0.375000 0.500000
vt 0.250000 0.500000
vt 0.125000 0.500000
vt 0.000000 0.500000
vt 0.510000 0.250000
vt 0.580294 0.419706
vt 0.919706 0.080294
vt 0.125000 0.915842
vt 0.000000 0.707921
vt 0.125000 0.707921
vt 0.250000 0.915842
vt 0.250000 0.707921
vt 0.375000 0.915842
vt 0.375000 0.707921
vt 0.500000 0.915842
vt 0.500000 0.707921
vt 0.625000 0.915842
vt 0.625000 0.707921
vt 0.750000 0.915842
vt 0.750000 0.707921
vt 0.875000 0.915842
vt 0.875000 0.707921
vt 1.000000 0.915842
vt 1.000000 0.707921
vt 0.875000 0.500000
vt 1.000000 0.500000
vt 0.750000 0.500000
vt 0.625000 0.500000
vt 0.500000 0.500000
vt 0.375000 0.500000
vt 0.250000 0.500000
vt 0.125000 0.500000
vt 0.000000 0.500000
vt 0.750000 0.490000
vt 0.919706 0.419706
vt 0.990000 0.250000
vt 0.750000 0.010000
vt 0.580294 0.080294
vt 0.000000 0.915842
vt 0.250000 0.915842
vt 0.750000 0.490000
vt 0.919706 0.419706
vt 0.990000 0.250000
vt 0.750000 0.010000
vt 0.510000 0.250000
vt 0.000000 0.915842
vt 0.375000 0.915842
vt 0.875000 0.915842
vt 0.750000 0.490000
vt 0.919706 0.419706
vt 0.990000 0.250000
vt 0.750000 0.010000
vt 0.580294 0.080294
vt 0.000000 0.915842
vt 0.080294 0.419706
vt 0.010000 0.250000
vt 0.010000 0.250000
vt 0.490000 0.250000
vt 0.419706 0.419706
vt 0.419706 0.419706
vt 0.250000 0.010000
vt 0.419706 0.080294
vt 0.419706 0.080294
vt 0.250000 0.490000
vt 0.010000 0.250000
vt 0.250000 0.010000
vt 0.080294 0.080294
vt 0.080294 0.080294
vt 1.000000 1.000000
vt 0.875000 0.915842
vt 1.000000 0.915842
vt 0.750000 1.000000
vt 0.750000 0.915842
vt 0.625000 1.000000
vt 0.625000 0.915842
vt 0.500000 1.000000
vt 0.500000 0.915842
vt 0.375000 0.915842
vt 0.375000 1.000000
vt 0.250000 0.915842
vt 0.125000 1.000000
vt 0.125000 0.915842
vt 0.000000 0.915842
vt 0.250000 0.010000
vt 0.490000 0.250000
vt 0.250000 0.490000
vt 0.080294 0.419706
vt 0.250000 0.490000
vt 0.419706 0.419706
vt 0.080294 0.419706
vt 0.419706 0.080294
vt 0.490000 0.250000
vt 0.080294 0.080294
vt 0.080294 0.419706
vt 0.010000 0.250000
vt 0.010000 0.250000
vt 0.490000 0.250000
vt 0.419706 0.419706
vt 0.419706 0.419706
vt 0.250000 0.010000
vt 0.419706 0.080294
vt 0.419706 0.080294
vt 0.490000 0.250000
vt 0.250000 0.490000
vt 0.010000 0.250000
vt 0.080294 0.080294
vt 0.080294 0.080294
vt 1.000000 1.000000
vt 0.875000 0.915842
vt 1.000000 0.915842
vt 0.875000 1.000000
vt 0.750000 0.915842
vt 0.750000 1.000000
vt 0.625000 0.915842
vt 0.625000 1.000000
vt 0.500000 0.915842
vt 0.375000 1.000000
vt 0.375000 0.915842
vt 0.250000 1.000000
vt 0.250000 0.915842
vt 0.125000 0.915842
vt 0.000000 1.000000
vt 0.000000 0.915842
vt 0.250000 0.010000
vt 0.490000 0.250000
vt 0.250000 0.490000
vt 0.080294 0.419706
vt 0.250000 0.490000
vt 0.419706 0.419706
vt 0.080294 0.419706
vt 0.419706 0.080294
vt 0.250000 0.010000
vt 0.080294 0.080294
vt 0.010000 0.250000
vt 0.080294 0.419706
vt 0.010000 0.250000
vt 0.419706 0.419706
vt 0.490000 0.250000
vt 0.419706 0.419706
vt 0.250000 0.010000
vt 0.419706 0.080294
vt 0.419706 0.080294
vt 0.419706 0.080294
vt 0.490000 0.250000
vt 0.010000 0.250000
vt 0.080294 0.080294
vt 0.080294 0.080294
vt 1.000000 1.000000
vt 0.875000 0.915842
vt 1.000000 0.915842
vt 0.875000 1.000000
vt 0.750000 0.915842
vt 0.750000 1.000000
vt 0.625000 0.915842
vt 0.625000 1.000000
vt 0.500000 0.915842
vt 0.500000 1.000000
vt 0.375000 0.915842
vt 0.375000 1.000000
vt 0.250000 0.915842
vt 0.250000 1.000000
vt 0.125000 0.915842
vt 0.125000 1.000000
vt 0.000000 0.915842
vt 0.250000 0.010000
vt 0.490000 0.250000
vt 0.250000 0.490000
vt 0.080294 0.419706
vt 0.250000 0.490000
vt 0.419706 0.419706
vt 0.250000 0.490000
vt 0.080294 0.419706
vt 0.250000 0.010000
vt 0.080294 0.080294
vt 0.875000 1.000000
vt 0.250000 1.000000
vt 0.000000 1.000000
vt 0.500000 1.000000
vt 0.125000 1.000000
vt 0.000000 1.000000
vn 0.0000 -1.0000 0.0000
vn 0.8232 -0.4109 -0.3919
vn 0.3050 -0.4109 -0.8592
vn -0.3919 -0.4109 -0.8232
vn -0.8592 -0.4109 -0.3050
vn -0.8232 -0.4109 0.3919
vn -0.3050 -0.4109 0.8592
vn 0.3919 -0.4109 0.8232
vn 0.8592 -0.4109 0.3050
vn 0.9367 -0.1094 0.3325
vn 0.4272 -0.1094 0.8975
vn -0.3325 -0.1094 0.9367
vn -0.8975 -0.1094 0.4272
vn -0.9367 -0.1094 -0.3325
vn -0.4272 -0.1094 -0.8975
vn 0.3325 -0.1094 -0.9367
vn 0.8975 -0.1094 -0.4272
vn 0.2239 -0.4109 -0.8838
vn -0.4666 -0.4109 -0.7832
vn -0.8838 -0.4109 -0.2239
vn -0.7832 -0.4109 0.4666
vn -0.2239 -0.4109 0.8838
vn 0.4666 -0.4109 0.7832
vn 0.8838 -0.4109 0.2239
vn 0.7832 -0.4109 -0.4666
vn 0.8539 -0.1094 -0.5087
vn 0.9636 -0.1094 0.2441
vn 0.5087 -0.1094 0.8539
vn -0.2441 -0.1094 0.9636
vn -0.8539 -0.1094 0.5087
vn -0.9636 -0.1094 -0.2441
vn -0.5087 -0.1094 -0.8539
vn 0.2441 -0.1094 -0.9636
vn -0.8953 -0.4109 -0.1719
vn -0.7546 -0.4109 0.5115
vn -0.1719 -0.4109 0.8953
vn 0.5115 -0.4109 0.7546
vn 0.8953 -0.4109 0.1719
vn 0.7546 -0.4109 -0.5115
vn 0.1719 -0.4109 -0.8953
vn -0.5115 -0.4109 -0.7546
vn -0.5577 -0.1094 -0.8228
vn 0.1874 -0.1094 -0.9762
vn 0.8228 -0.1094 -0.5577
vn 0.9762 -0.1094 0.1874
vn 0.5577 -0.1094 0.8228
vn -0.1874 -0.1094 0.9762
vn -0.8228 -0.1094 0.5577
vn -0.9762 -0.1094 -0.1874
vn 0.2170 0.7611 -0.6112
vn 0.2788 0.7611 0.5856
vn -0.5856 0.7611 0.2788
vn 0.0000 1.0000 -0.0000
vn -0.2788 0.7611 -0.5856
vn 0.8099 -0.5113 0.2875
vn 0.3694 -0.5113 0.7760
vn -0.2875 -0.5113 0.8099
vn -0.7760 -0.5113 0.3694
vn -0.8099 -0.5113 -0.2875
vn -0.3694 -0.5113 -0.7760
vn 0.2875 -0.5113 -0.8099
vn 0.7760 -0.5113 -0.3694
vn -0.6112 0.7611 -0.2170
vn -0.2170 0.7611 0.6112
vn 0.5856 0.7611 -0.2788
vn 0.6112 0.7611 0.2170
vn -0.6317 0.7421 -0.2243
vn -0.6053 0.7421 0.2881
vn 0.2243 0.7421 -0.6317
vn 0.6317 0.7421 0.2243
vn 0.2881 0.7421 0.6053
vn 0.6053 0.7421 -0.2881
vn -0.2881 0.7421 -0.6053
vn -0.2243 0.7421 0.6317
vn -0.7807 -0.5602 -0.2771
vn -0.3561 -0.5602 -0.7480
vn 0.2771 -0.5602 -0.7807
vn 0.7480 -0.5602 -0.3561
vn 0.7807 -0.5602 0.2771
vn 0.3561 -0.5602 0.7480
vn -0.2771 -0.5602 0.7807
vn -0.7480 -0.5602 0.3561
vn -0.3320 0.7611 -0.5572
vn 0.6287 0.7611 0.1593
vn -0.1593 0.7611 0.6287
vn -0.6287 0.7611 -0.1593
vn 0.7383 -0.5113 -0.4398
vn 0.8331 -0.5113 0.2111
vn 0.4398 -0.5113 0.7383
vn -0.2111 -0.5113 0.8331
vn -0.7383 -0.5113 0.4398
vn -0.8331 -0.5113 -0.2111
vn -0.4398 -0.5113 -0.7383
vn 0.2111 -0.5113 -0.8331
vn -0.5572 0.7611 0.3320
vn 0.3320 0.7611 0.5572
vn 0.1593 0.7611 -0.6287
vn 0.5572 0.7611 -0.3319
vn -0.5759 0.7421 0.3431
vn -0.1646 0.7421 0.6498
vn -0.3431 0.7421 -0.5759
vn 0.5759 0.7421 -0.3431
vn 0.6498 0.7421 0.1646
vn 0.1646 0.7421 -0.6498
vn -0.6498 0.7421 -0.1646
vn 0.3431 0.7421 0.5759
vn -0.7117 -0.5602 0.4240
vn -0.8030 -0.5602 -0.2034
vn -0.4240 -0.5602 -0.7117
vn 0.2034 -0.5602 -0.8030
vn 0.7117 -0.5602 -0.4240
vn 0.8030 -0.5602 0.2034
vn 0.4240 -0.5602 0.7117
vn -0.2034 -0.5602 0.8030
vn -0.5369 0.7611 0.3639
vn 0.1223 0.7611 -0.6370
vn 0.6370 0.7611 0.1223
vn -0.1223 0.7611 0.6370
vn -0.4822 -0.5113 -0.7114
vn 0.1621 -0.5113 -0.8440
vn 0.7114 -0.5113 -0.4822
vn 0.8440 -0.5113 0.1621
vn 0.4822 -0.5113 0.7114
vn -0.1621 -0.5113 0.8440
vn -0.7114 -0.5113 0.4822
vn -0.8440 -0.5113 -0.1621
vn 0.3639 0.7611 0.5369
vn 0.5369 0.7611 -0.3639
vn -0.6370 0.7611 -0.1223
vn -0.3639 0.7611 -0.5369
vn 0.3761 0.7421 0.5549
vn 0.6583 0.7421 0.1264
vn -0.5549 0.7421 0.3761
vn -0.3761 0.7421 -0.5549
vn 0.1264 0.7421 -0.6583
vn -0.6583 0.7421 -0.1264
vn -0.1264 0.7421 0.6583
vn 0.5549 0.7421 -0.3761
vn 0.4648 -0.5602 0.6857
vn -0.1562 -0.5602 0.8135
vn -0.6857 -0.5602 0.4648
vn -0.8135 -0.5602 -0.1562
vn -0.4648 -0.5602 -0.6857
vn 0.1562 -0.5602 -0.8135
vn 0.6857 -0.5602 -0.4648
vn 0.8135 -0.5602 0.1562
vn -0.5572 0.7611 0.3319
vn 0.3319 0.7611 0.5572
usemtl LightOrange_Mushroom02
s off
f 13/1/1 15/2/1 7/3/1
f 24/4/2 56/5/2 55/6/2
f 54/7/3 24/4/3 55/6/3
f 22/8/4 54/7/4 53/9/4
f 21/10/5 53/9/5 52/11/5
f 20/12/6 52/11/6 51/13/6
f 19/14/7 51/13/7 50/15/7
f 18/16/8 50/15/8 49/17/8
f 17/18/9 49/17/9 56/19/9
f 56/19/10 3/20/10 1/21/10
f 49/17/11 5/22/11 3/20/11
f 50/15/12 7/23/12 5/22/12
f 51/13/13 9/24/13 7/23/13
f 52/11/14 11/25/14 9/24/14
f 53/9/15 13/26/15 11/25/15
f 54/7/16 15/27/16 13/26/16
f 15/27/17 56/5/17 1/28/17
f 63/29/1 67/30/1 71/31/1
f 80/32/18 112/33/18 111/34/18
f 79/35/19 111/34/19 110/36/19
f 109/37/20 79/35/20 110/36/20
f 77/38/21 109/37/21 108/39/21
f 76/40/22 108/39/22 107/41/22
f 75/42/23 107/41/23 106/43/23
f 105/44/24 75/42/24 106/43/24
f 73/45/25 105/44/25 112/46/25
f 112/46/26 59/47/26 57/48/26
f 105/44/27 61/49/27 59/47/27
f 106/43/28 63/50/28 61/49/28
f 107/41/29 65/51/29 63/50/29
f 108/39/30 67/52/30 65/51/30
f 67/52/31 110/36/31 69/53/31
f 69/53/32 111/34/32 71/54/32
f 111/34/33 57/55/33 71/54/33
f 125/56/1 127/57/1 119/58/1
f 136/59/34 168/60/34 167/61/34
f 135/62/35 167/61/35 166/63/35
f 134/64/36 166/63/36 165/65/36
f 133/66/37 165/65/37 164/67/37
f 132/68/38 164/67/38 163/69/38
f 131/70/39 163/69/39 162/71/39
f 130/72/40 162/71/40 161/73/40
f 129/74/41 161/73/41 168/75/41
f 168/75/42 115/76/42 113/77/42
f 161/73/43 117/78/43 115/76/43
f 162/71/44 119/79/44 117/78/44
f 163/69/45 121/80/45 119/79/45
f 164/67/46 123/81/46 121/80/46
f 123/81/47 166/63/47 125/82/47
f 166/63/48 127/83/48 125/82/48
f 167/61/49 113/84/49 127/83/49
f 15/2/1 1/85/1 3/86/1
f 3/86/1 5/87/1 15/2/1
f 5/87/1 7/3/1 15/2/1
f 7/3/1 9/88/1 11/89/1
f 11/89/1 13/1/1 7/3/1
f 24/4/2 17/90/2 56/5/2
f 54/7/3 23/91/3 24/4/3
f 22/8/4 23/91/4 54/7/4
f 21/10/5 22/8/5 53/9/5
f 20/12/6 21/10/6 52/11/6
f 19/14/7 20/12/7 51/13/7
f 18/16/8 19/14/8 50/15/8
f 17/18/9 18/16/9 49/17/9
f 56/19/10 49/17/10 3/20/10
f 49/17/11 50/15/11 5/22/11
f 50/15/12 51/13/12 7/23/12
f 51/13/13 52/11/13 9/24/13
f 52/11/14 53/9/14 11/25/14
f 53/9/15 54/7/15 13/26/15
f 54/7/16 55/6/16 15/27/16
f 15/27/17 55/6/17 56/5/17
f 71/31/1 57/92/1 59/93/1
f 59/93/1 61/94/1 71/31/1
f 61/94/1 63/29/1 71/31/1
f 63/29/1 65/95/1 67/30/1
f 67/30/1 69/96/1 71/31/1
f 80/32/18 73/97/18 112/33/18
f 79/35/19 80/32/19 111/34/19
f 109/37/20 78/98/20 79/35/20
f 77/38/21 78/98/21 109/37/21
f 76/40/22 77/38/22 108/39/22
f 75/42/23 76/40/23 107/41/23
f 105/44/24 74/99/24 75/42/24
f 73/45/25 74/99/25 105/44/25
f 112/46/26 105/44/26 59/47/26
f 105/44/27 106/43/27 61/49/27
f 106/43/28 107/41/28 63/50/28
f 107/41/29 108/39/29 65/51/29
f 108/39/30 109/37/30 67/52/30
f 67/52/31 109/37/31 110/36/31
f 69/53/32 110/36/32 111/34/32
f 111/34/33 112/33/33 57/55/33
f 127/57/1 113/100/1 119/58/1
f 113/100/1 115/101/1 119/58/1
f 115/101/1 117/102/1 119/58/1
f 119/58/1 121/103/1 123/104/1
f 123/104/1 125/56/1 119/58/1
f 136/59/34 129/105/34 168/60/34
f 135/62/35 136/59/35 167/61/35
f 134/64/36 135/62/36 166/63/36
f 133/66/37 134/64/37 165/65/37
f 132/68/38 133/66/38 164/67/38
f 131/70/39 132/68/39 163/69/39
f 130/72/40 131/70/40 162/71/40
f 129/74/41 130/72/41 161/73/41
f 168/75/42 161/73/42 115/76/42
f 161/73/43 162/71/43 117/78/43
f 162/71/44 163/69/44 119/79/44
f 163/69/45 164/67/45 121/80/45
f 164/67/46 165/65/46 123/81/46
f 123/81/47 165/65/47 166/63/47
f 166/63/48 167/61/48 127/83/48
f 167/61/49 168/60/49 113/84/49
usemtl DarkOrange_Mushroom02
f 47/106/50 32/107/50 44/108/50
f 45/109/51 25/110/51 46/111/51
f 42/112/52 29/113/52 41/114/52
f 2/115/53 14/116/53 10/117/53
f 44/108/54 31/118/54 43/119/54
f 26/120/55 34/121/55 27/122/55
f 34/121/56 28/123/56 35/124/56
f 35/124/57 29/125/57 36/126/57
f 36/126/58 30/127/58 37/128/58
f 30/127/59 38/129/59 37/128/59
f 31/130/60 39/131/60 38/129/60
f 39/131/61 33/132/61 40/133/61
f 33/132/62 27/134/62 40/133/62
f 43/119/63 30/135/63 42/112/63
f 41/114/64 28/136/64 45/109/64
f 47/106/65 26/137/65 33/138/65
f 46/111/66 26/137/66 48/139/66
f 4/140/67 48/139/67 2/115/67
f 2/115/68 47/106/68 16/141/68
f 8/142/69 45/109/69 6/143/69
f 10/117/70 43/119/70 42/112/70
f 14/116/71 43/119/71 12/144/71
f 10/117/72 41/114/72 8/142/72
f 6/143/73 46/111/73 4/140/73
f 16/141/74 44/108/74 14/116/74
f 34/121/75 17/18/75 27/122/75
f 35/124/76 18/16/76 34/121/76
f 36/126/77 19/14/77 35/124/77
f 36/126/78 21/10/78 20/12/78
f 38/129/79 21/10/79 37/128/79
f 38/129/80 23/91/80 22/8/80
f 39/131/81 24/4/81 23/91/81
f 40/133/82 17/90/82 24/4/82
f 103/145/83 88/146/83 100/147/83
f 101/148/84 81/149/84 102/150/84
f 98/151/85 85/152/85 97/153/85
f 62/154/53 58/155/53 70/156/53
f 100/147/86 87/157/86 99/158/86
f 82/159/87 90/160/87 83/161/87
f 81/162/88 91/163/88 90/160/88
f 84/164/89 92/165/89 91/163/89
f 85/166/90 93/167/90 92/165/90
f 93/167/91 87/168/91 94/169/91
f 94/169/92 88/170/92 95/171/92
f 88/170/93 96/172/93 95/171/93
f 96/172/94 82/173/94 83/174/94
f 99/158/95 86/175/95 98/151/95
f 97/153/96 84/176/96 101/148/96
f 104/177/97 89/178/97 103/145/97
f 102/150/98 82/179/98 104/177/98
f 60/180/99 104/177/99 58/155/99
f 58/155/100 103/145/100 72/181/100
f 64/182/101 101/148/101 62/154/101
f 66/183/102 99/158/102 98/151/102
f 68/184/103 100/147/103 99/158/103
f 66/183/104 97/153/104 64/182/104
f 62/154/105 102/150/105 60/180/105
f 72/181/106 100/147/106 70/156/106
f 90/160/107 73/45/107 83/161/107
f 91/163/108 74/99/108 90/160/108
f 92/165/109 75/42/109 91/163/109
f 93/167/110 76/40/110 92/165/110
f 94/169/111 77/38/111 93/167/111
f 95/171/112 78/98/112 94/169/112
f 95/171/113 80/32/113 79/35/113
f 96/172/114 73/97/114 80/32/114
f 156/185/115 145/186/115 144/187/115
f 158/188/116 140/189/116 137/190/116
f 154/191/117 141/192/117 153/193/117
f 120/194/53 118/195/53 126/196/53
f 156/185/118 143/197/118 155/198/118
f 138/199/119 146/200/119 139/201/119
f 137/202/120 147/203/120 146/200/120
f 140/204/121 148/205/121 147/203/121
f 141/206/122 149/207/122 148/205/122
f 142/208/123 150/209/123 149/207/123
f 143/210/124 151/211/124 150/209/124
f 144/212/125 152/213/125 151/211/125
f 145/214/126 139/215/126 152/213/126
f 154/191/127 143/197/127 142/216/127
f 157/217/128 141/192/128 140/189/128
f 160/218/129 145/186/129 159/219/129
f 160/218/130 137/190/130 138/220/130
f 116/221/131 160/218/131 114/222/131
f 114/222/132 159/219/132 128/223/132
f 118/195/133 153/193/133 157/217/133
f 122/224/134 155/198/134 154/191/134
f 126/196/135 155/198/135 124/225/135
f 122/224/136 153/193/136 120/194/136
f 116/221/137 157/217/137 158/188/137
f 128/223/138 156/185/138 126/196/138
f 146/200/139 129/74/139 139/201/139
f 146/200/140 131/70/140 130/72/140
f 148/205/141 131/70/141 147/203/141
f 148/205/142 133/66/142 132/68/142
f 149/207/143 134/64/143 133/66/143
f 150/209/144 135/62/144 134/64/144
f 151/211/145 136/59/145 135/62/145
f 139/215/146 136/59/146 152/213/146
f 47/106/50 33/138/50 32/107/50
f 45/109/51 28/136/51 25/110/51
f 42/112/52 30/135/52 29/113/52
f 6/143/53 4/140/53 2/115/53
f 2/115/53 16/141/53 14/116/53
f 14/116/53 12/144/53 10/117/53
f 10/117/53 8/142/53 6/143/53
f 6/143/53 2/115/53 10/117/53
f 44/108/54 32/107/54 31/118/54
f 26/120/55 25/226/55 34/121/55
f 34/121/56 25/226/56 28/123/56
f 35/124/57 28/123/57 29/125/57
f 36/126/58 29/125/58 30/127/58
f 30/127/59 31/130/59 38/129/59
f 31/130/60 32/227/60 39/131/60
f 39/131/61 32/227/61 33/132/61
f 33/132/62 26/228/62 27/134/62
f 43/119/63 31/118/63 30/135/63
f 41/114/64 29/113/64 28/136/64
f 47/106/65 48/139/65 26/137/65
f 46/111/66 25/110/66 26/137/66
f 4/140/67 46/111/67 48/139/67
f 2/115/68 48/139/68 47/106/68
f 8/142/69 41/114/69 45/109/69
f 10/117/70 12/144/70 43/119/70
f 14/116/71 44/108/71 43/119/71
f 10/117/72 42/112/72 41/114/72
f 6/143/73 45/109/73 46/111/73
f 16/141/74 47/106/74 44/108/74
f 34/121/75 18/16/75 17/18/75
f 35/124/76 19/14/76 18/16/76
f 36/126/77 20/12/77 19/14/77
f 36/126/78 37/128/78 21/10/78
f 38/129/79 22/8/79 21/10/79
f 38/129/80 39/131/80 23/91/80
f 39/131/81 40/133/81 24/4/81
f 40/133/82 27/134/82 17/90/82
f 103/145/83 89/178/83 88/146/83
f 101/148/84 84/176/84 81/149/84
f 98/151/85 86/175/85 85/152/85
f 62/154/53 60/180/53 58/155/53
f 58/155/53 72/181/53 70/156/53
f 70/156/53 68/184/53 62/154/53
f 68/184/53 66/183/53 62/154/53
f 66/183/53 64/182/53 62/154/53
f 100/147/86 88/146/86 87/157/86
f 82/159/87 81/162/87 90/160/87
f 81/162/88 84/164/88 91/163/88
f 84/164/89 85/166/89 92/165/89
f 85/166/90 86/229/90 93/167/90
f 93/167/91 86/229/91 87/168/91
f 94/169/92 87/168/92 88/170/92
f 88/170/93 89/230/93 96/172/93
f 96/172/94 89/230/94 82/173/94
f 99/158/147 87/157/147 86/175/147
f 97/153/148 85/152/148 84/176/148
f 104/177/97 82/179/97 89/178/97
f 102/150/98 81/149/98 82/179/98
f 60/180/99 102/150/99 104/177/99
f 58/155/100 104/177/100 103/145/100
f 64/182/101 97/153/101 101/148/101
f 66/183/102 68/184/102 99/158/102
f 68/184/103 70/156/103 100/147/103
f 66/183/104 98/151/104 97/153/104
f 62/154/105 101/148/105 102/150/105
f 72/181/106 103/145/106 100/147/106
f 90/160/107 74/99/107 73/45/107
f 91/163/108 75/42/108 74/99/108
f 92/165/109 76/40/109 75/42/109
f 93/167/110 77/38/110 76/40/110
f 94/169/111 78/98/111 77/38/111
f 95/171/112 79/35/112 78/98/112
f 95/171/113 96/172/113 80/32/113
f 96/172/114 83/174/114 73/97/114
f 156/185/115 159/219/115 145/186/115
f 158/188/116 157/217/116 140/189/116
f 154/191/117 142/216/117 141/192/117
f 118/195/53 116/221/53 114/222/53
f 114/222/53 128/223/53 118/195/53
f 128/223/53 126/196/53 118/195/53
f 126/196/53 124/225/53 122/224/53
f 122/224/53 120/194/53 126/196/53
f 156/185/118 144/187/118 143/197/118
f 138/199/119 137/202/119 146/200/119
f 137/202/120 140/204/120 147/203/120
f 140/204/121 141/206/121 148/205/121
f 141/206/122 142/208/122 149/207/122
f 142/208/123 143/210/123 150/209/123
f 143/210/124 144/212/124 151/211/124
f 144/212/125 145/214/125 152/213/125
f 145/214/126 138/231/126 139/215/126
f 154/191/127 155/198/127 143/197/127
f 157/217/128 153/193/128 141/192/128
f 160/218/129 138/220/129 145/186/129
f 160/218/130 158/188/130 137/190/130
f 116/221/131 158/188/131 160/218/131
f 114/222/132 160/218/132 159/219/132
f 118/195/133 120/194/133 153/193/133
f 122/224/134 124/225/134 155/198/134
f 126/196/135 156/185/135 155/198/135
f 122/224/136 154/191/136 153/193/136
f 116/221/137 118/195/137 157/217/137
f 128/223/138 159/219/138 156/185/138
f 146/200/139 130/72/139 129/74/139
f 146/200/140 147/203/140 131/70/140
f 148/205/141 132/68/141 131/70/141
f 148/205/142 149/207/142 133/66/142
f 149/207/143 150/209/143 134/64/143
f 150/209/144 151/211/144 135/62/144
f 151/211/145 152/213/145 136/59/145
f 139/215/146 129/105/146 136/59/146
