# Blender v2.90.0 OBJ File: 'Mushroom_01.blend'
# www.blender.org
mtllib Mushroom_01.mtl
o Mushroom_01_Cylinder.032
v 0.330260 0.163159 -0.460017
v 0.432757 0.239609 -0.481349
v 0.342142 0.209877 -0.235485
v 0.444639 0.286327 -0.256817
v 0.251478 0.369825 -0.097881
v 0.353974 0.446275 -0.119213
v 0.111376 0.549307 -0.127812
v 0.213872 0.625758 -0.149143
v 0.003906 0.643186 -0.307744
v 0.106403 0.719636 -0.329075
v -0.007976 0.596468 -0.532276
v 0.094520 0.672918 -0.553607
v 0.082689 0.436520 -0.669880
v 0.185185 0.512970 -0.691211
v 0.222791 0.257037 -0.639949
v 0.325287 0.333488 -0.661281
v 0.467239 0.507918 -0.378359
v 0.462868 0.490733 -0.460953
v 0.433888 0.566755 -0.327741
v 0.382351 0.632778 -0.338751
v 0.342818 0.667311 -0.404939
v 0.338447 0.650126 -0.487534
v 0.371799 0.591289 -0.538151
v 0.423335 0.525266 -0.527142
v 0.546710 0.662974 -0.449558
v 0.545853 0.659605 -0.465751
v 0.540172 0.674509 -0.439635
v 0.530068 0.687452 -0.441793
v 0.522318 0.694222 -0.454769
v 0.521461 0.690853 -0.470962
v 0.528000 0.679318 -0.480885
v 0.538103 0.666375 -0.478727
v 0.159460 -0.752127 -0.009246
v -0.041252 -0.216879 0.001117
v 0.078115 -0.752127 0.115803
v -0.092986 -0.216879 0.080647
v -0.065952 -0.752127 0.077082
v -0.184611 -0.216879 0.056021
v -0.073644 -0.752127 -0.071899
v -0.189503 -0.216879 -0.038729
v 0.065668 -0.752127 -0.125253
v -0.100903 -0.216879 -0.072661
v -0.102316 0.170213 -0.179643
v -0.091290 0.126878 -0.219686
v -0.156236 0.193547 -0.191936
v -0.178535 0.164632 -0.239578
v -0.138397 0.123428 -0.256728
v 0.334806 0.562356 -0.449608
v 0.329582 0.538431 -0.470512
v 0.314500 0.586329 -0.456647
v 0.296726 0.577221 -0.481901
v 0.306047 0.547619 -0.490470
v -0.661147 -0.255826 0.020925
v -0.736854 -0.220279 -0.009315
v -0.585544 -0.203722 -0.107102
v -0.661250 -0.168175 -0.137342
v -0.508428 -0.071639 -0.144901
v -0.584135 -0.036092 -0.175141
v -0.474973 0.063051 -0.070330
v -0.550680 0.098598 -0.100570
v -0.504777 0.121449 0.072928
v -0.580483 0.156996 0.042688
v -0.580380 0.069346 0.200956
v -0.656086 0.104892 0.170716
v -0.657496 -0.062738 0.238755
v -0.733202 -0.027191 0.208515
v -0.690951 -0.197428 0.164183
v -0.766657 -0.161881 0.133943
v -0.758050 -0.035649 -0.079291
v -0.785860 -0.054815 -0.032196
v -0.729683 0.012938 -0.093195
v -0.717376 0.062484 -0.065764
v -0.728339 0.083966 -0.013066
v -0.756150 0.064799 0.034029
v -0.784517 0.016212 0.047933
v -0.796824 -0.033334 0.020502
v -0.854225 0.050245 -0.072460
v -0.859677 0.046487 -0.063227
v -0.848664 0.059770 -0.075186
v -0.846251 0.069483 -0.069808
v -0.848400 0.073695 -0.059477
v -0.853852 0.069937 -0.050244
v -0.859414 0.060412 -0.047518
v -0.861826 0.050699 -0.052896
v -0.240442 -0.798357 -0.158855
v -0.216764 -0.414763 -0.080474
v -0.147145 -0.775303 -0.194044
v -0.157429 -0.400101 -0.102854
v -0.085723 -0.760562 -0.113519
v -0.118366 -0.390726 -0.051641
v -0.141060 -0.774506 -0.028563
v -0.153559 -0.399594 0.002390
v -0.236682 -0.797865 -0.056582
v -0.214373 -0.414450 -0.015430
v -0.319622 -0.167093 0.044972
v -0.334393 -0.201406 0.062298
v -0.299573 -0.145810 0.073968
v -0.301953 -0.166969 0.109216
v -0.323473 -0.201329 0.102004
v -0.724718 0.010596 0.014459
v -0.726358 -0.006765 0.028018
v -0.720613 0.028487 0.026745
v -0.719716 0.022185 0.047896
v -0.723266 0.000398 0.048682
v 0.420690 -0.293537 0.395818
v 0.432059 -0.257990 0.476544
v 0.272020 -0.241433 0.393812
v 0.283389 -0.205887 0.474538
v 0.200903 -0.109350 0.345667
v 0.212272 -0.073804 0.426393
v 0.248998 0.025340 0.279584
v 0.260367 0.060887 0.360310
v 0.388133 0.083738 0.234275
v 0.399502 0.119284 0.315001
v 0.536803 0.031634 0.236280
v 0.548172 0.067181 0.317006
v 0.607920 -0.100449 0.284426
v 0.619288 -0.064902 0.365152
v 0.559824 -0.235139 0.350508
v 0.571193 -0.199593 0.431234
v 0.381861 -0.073360 0.529704
v 0.436550 -0.092527 0.530442
v 0.355701 -0.024773 0.511994
v 0.373393 0.024773 0.487685
v 0.424573 0.046254 0.471018
v 0.479262 0.027088 0.471756
v 0.505422 -0.021499 0.489466
v 0.487730 -0.071045 0.513775
v 0.435571 0.012534 0.609776
v 0.446293 0.008776 0.609921
v 0.430443 0.022059 0.606304
v 0.433911 0.031772 0.601539
v 0.443945 0.035984 0.598271
v 0.454666 0.032226 0.598416
v 0.459795 0.022701 0.601888
v 0.456327 0.012987 0.606653
v 0.055651 -0.836069 0.120027
v 0.111911 -0.452474 0.060537
v -0.021240 -0.813015 0.056542
v 0.063009 -0.437812 0.020161
v 0.018128 -0.798274 -0.036770
v 0.088047 -0.428437 -0.039184
v 0.119350 -0.812217 -0.030954
v 0.152423 -0.437305 -0.035485
v 0.142541 -0.835576 0.065952
v 0.167172 -0.452161 0.026146
v 0.271881 -0.204805 0.087478
v 0.294257 -0.239117 0.091688
v 0.287085 -0.183521 0.055672
v 0.318857 -0.204680 0.040225
v 0.323290 -0.239040 0.062485
v 0.446662 -0.027116 0.454200
v 0.459243 -0.044476 0.448887
v 0.455285 -0.009224 0.444534
v 0.473195 -0.015527 0.433247
v 0.475641 -0.037313 0.435937
vt 1.000000 1.000000
vt 0.800000 0.500000
vt 1.000000 0.500000
vt 0.800000 1.000000
vt 0.600000 0.500000
vt 0.600000 1.000000
vt 0.400000 0.500000
vt 0.800000 1.000000
vt 0.600000 1.000000
vt 0.200000 1.000000
vt 0.200000 0.500000
vt 0.000000 1.000000
vt 0.000000 0.500000
vt 0.978254 0.324164
vt 0.608932 0.055836
vt 0.521746 0.324164
vt 0.600000 1.000000
vt 0.000000 1.000000
vt 0.400000 1.000000
vt 0.400000 1.000000
vt 0.200000 1.000000
vt 0.250000 0.490000
vt 0.108932 0.055836
vt 0.391068 0.055836
vt 0.200000 1.000000
vt 0.000000 1.000000
vt 0.400000 1.000000
vt 1.000000 1.000000
vt 0.800000 1.000000
vt 1.000000 1.000000
vt 0.800000 0.500000
vt 1.000000 0.500000
vt 0.800000 1.000000
vt 0.600000 0.500000
vt 0.400000 1.000000
vt 0.400000 0.500000
vt 0.600000 1.000000
vt 0.800000 1.000000
vt 0.600000 1.000000
vt 0.200000 1.000000
vt 0.200000 0.500000
vt 0.000000 1.000000
vt 0.000000 0.500000
vt 0.891068 0.055836
vt 0.608932 0.055836
vt 0.521746 0.324164
vt 0.600000 1.000000
vt 0.000000 1.000000
vt 0.400000 1.000000
vt 0.200000 1.000000
vt 0.021746 0.324164
vt 0.108932 0.055836
vt 0.391068 0.055836
vt 0.200000 1.000000
vt 0.000000 1.000000
vt 0.400000 1.000000
vt 1.000000 1.000000
vt 0.800000 1.000000
vt 1.000000 1.000000
vt 0.800000 0.500000
vt 1.000000 0.500000
vt 0.800000 1.000000
vt 0.600000 0.500000
vt 0.600000 1.000000
vt 0.400000 0.500000
vt 0.800000 1.000000
vt 0.600000 1.000000
vt 0.200000 1.000000
vt 0.200000 0.500000
vt 0.000000 1.000000
vt 0.000000 0.500000
vt 0.891068 0.055836
vt 0.608932 0.055836
vt 0.521746 0.324164
vt 0.600000 1.000000
vt 0.000000 1.000000
vt 0.400000 1.000000
vt 0.400000 1.000000
vt 0.200000 1.000000
vt 0.250000 0.490000
vt 0.108932 0.055836
vt 0.391068 0.055836
vt 0.200000 1.000000
vt 0.000000 1.000000
vt 0.400000 1.000000
vt 1.000000 1.000000
vt 0.800000 1.000000
vt 0.750000 0.490000
vt 0.891068 0.055836
vt 1.000000 1.000000
vt 0.478254 0.324164
vt 0.021746 0.324164
vt 0.750000 0.490000
vt 0.978254 0.324164
vt 1.000000 1.000000
vt 0.478254 0.324164
vt 0.250000 0.490000
vt 0.750000 0.490000
vt 0.978254 0.324164
vt 1.000000 1.000000
vt 0.478254 0.324164
vt 0.021746 0.324164
vt 1.000000 1.000000
vt 0.875000 0.500000
vt 1.000000 0.500000
vt 0.875000 1.000000
vt 0.750000 0.500000
vt 0.625000 1.000000
vt 0.625000 0.500000
vt 0.500000 0.500000
vt 0.500000 1.000000
vt 0.375000 0.500000
vt 0.375000 1.000000
vt 0.250000 0.500000
vt 0.750000 1.000000
vt 0.625000 1.000000
vt 0.250000 1.000000
vt 0.125000 0.500000
vt 0.125000 1.000000
vt 0.000000 0.500000
vt 0.919706 0.080294
vt 0.580294 0.080294
vt 0.580294 0.419706
vt 0.250000 1.000000
vt 0.125000 1.000000
vt 0.125000 1.000000
vt 0.500000 1.000000
vt 0.875000 1.000000
vt 0.750000 1.000000
vt 0.375000 1.000000
vt 0.000000 1.000000
vt 0.000000 1.000000
vt 0.010000 0.250000
vt 0.250000 0.010000
vt 0.490000 0.250000
vt 0.500000 1.000000
vt 0.375000 1.000000
vt 0.625000 1.000000
vt 1.000000 1.000000
vt 0.875000 1.000000
vt 0.000000 1.000000
vt 0.250000 1.000000
vt 0.750000 1.000000
vt 1.000000 0.500000
vt 0.875000 1.000000
vt 0.875000 0.500000
vt 0.750000 0.500000
vt 0.750000 1.000000
vt 0.625000 0.500000
vt 0.625000 1.000000
vt 0.500000 0.500000
vt 0.500000 1.000000
vt 0.375000 0.500000
vt 0.375000 1.000000
vt 0.250000 0.500000
vt 0.750000 1.000000
vt 0.625000 1.000000
vt 0.250000 1.000000
vt 0.125000 0.500000
vt 0.125000 1.000000
vt 0.000000 0.500000
vt 0.510000 0.250000
vt 0.580294 0.419706
vt 0.919706 0.080294
vt 0.250000 1.000000
vt 0.125000 1.000000
vt 0.125000 1.000000
vt 0.500000 1.000000
vt 0.375000 1.000000
vt 0.000000 1.000000
vt 0.000000 1.000000
vt 1.000000 1.000000
vt 0.875000 1.000000
vt 0.250000 0.010000
vt 0.419706 0.080294
vt 0.490000 0.250000
vt 0.375000 1.000000
vt 0.625000 1.000000
vt 0.875000 1.000000
vt 0.000000 1.000000
vt 0.250000 1.000000
vt 0.500000 1.000000
vt 0.750000 1.000000
vt 1.000000 1.000000
vt 0.875000 0.500000
vt 1.000000 0.500000
vt 0.875000 1.000000
vt 0.750000 0.500000
vt 0.750000 1.000000
vt 0.625000 0.500000
vt 0.625000 1.000000
vt 0.500000 0.500000
vt 0.500000 1.000000
vt 0.375000 0.500000
vt 0.375000 1.000000
vt 0.250000 0.500000
vt 0.625000 1.000000
vt 0.250000 1.000000
vt 0.125000 0.500000
vt 0.000000 1.000000
vt 0.000000 0.500000
vt 0.580294 0.080294
vt 0.510000 0.250000
vt 0.580294 0.419706
vt 0.250000 1.000000
vt 0.125000 1.000000
vt 0.125000 1.000000
vt 0.500000 1.000000
vt 0.125000 1.000000
vt 0.875000 1.000000
vt 0.750000 1.000000
vt 0.375000 1.000000
vt 0.000000 1.000000
vt 0.419706 0.080294
vt 0.490000 0.250000
vt 0.010000 0.250000
vt 0.375000 1.000000
vt 0.750000 1.000000
vt 0.625000 1.000000
vt 1.000000 1.000000
vt 0.875000 1.000000
vt 0.000000 1.000000
vt 0.250000 1.000000
vt 0.500000 1.000000
vt 0.750000 0.490000
vt 0.919706 0.419706
vt 0.990000 0.250000
vt 0.750000 0.010000
vt 0.510000 0.250000
vt 1.000000 1.000000
vt 0.419706 0.419706
vt 0.250000 0.490000
vt 0.080294 0.419706
vt 0.080294 0.080294
vt 0.419706 0.080294
vt 1.000000 1.000000
vt 0.750000 0.490000
vt 0.919706 0.419706
vt 0.990000 0.250000
vt 0.750000 0.010000
vt 0.580294 0.080294
vt 0.419706 0.419706
vt 0.250000 0.490000
vt 0.080294 0.419706
vt 0.010000 0.250000
vt 0.080294 0.080294
vt 1.000000 1.000000
vt 0.750000 0.490000
vt 0.919706 0.080294
vt 0.919706 0.419706
vt 0.990000 0.250000
vt 0.750000 0.010000
vt 0.419706 0.419706
vt 0.250000 0.490000
vt 0.080294 0.419706
vt 0.080294 0.080294
vt 0.250000 0.010000
vt 1.000000 1.000000
vn 0.8021 0.2907 0.5217
vn -0.2595 -0.0195 0.9655
vn -0.9755 -0.2143 0.0504
vn 0.0278 0.5155 0.8564
vn -0.3576 -0.0195 -0.9337
vn 0.7441 0.2907 -0.6016
vn -0.0000 -1.0000 0.0000
vn 0.0355 0.5289 0.8480
vn 0.7467 -0.2791 -0.6037
vn 0.7818 0.3608 0.5086
vn -0.9284 0.1936 0.3171
vn -0.3141 -0.4782 -0.8202
vn 0.6791 0.3932 -0.6198
vn 0.2873 -0.6953 -0.6588
vn -0.6843 0.7198 -0.1166
vn 0.7358 -0.5295 0.4222
vn -0.4311 -0.0449 -0.9012
vn -0.3897 0.2074 -0.8973
vn 0.7680 0.1710 -0.6171
vn 0.8391 -0.0169 0.5438
vn 0.3535 0.6206 -0.6999
vn -0.2602 -0.0881 0.9615
vn -0.9979 0.0542 0.0364
vn 0.2384 -0.9712 -0.0041
vn 0.3394 0.6309 -0.6977
vn -0.8654 -0.5000 0.0342
vn -0.3983 0.2774 -0.8743
vn 0.8603 0.4093 0.3038
vn -0.1187 -0.5251 0.8427
vn -0.9824 0.1634 0.0904
vn -0.4408 -0.8257 0.3521
vn 0.2928 0.8109 0.5066
vn -0.2005 -0.5912 -0.7812
vn -0.1781 -0.0941 0.9795
vn -0.5851 0.2074 0.7840
vn -0.9172 0.1710 -0.3599
vn 0.0550 -0.0169 -0.9983
vn -0.7831 0.6206 0.0409
vn 0.9637 -0.0881 -0.2519
vn 0.5274 0.0542 0.8479
vn -0.1220 -0.9712 -0.2049
vn -0.7741 0.6309 0.0521
vn 0.4596 -0.5000 0.7340
vn -0.5609 0.2774 0.7800
vn -0.1638 0.4093 -0.8976
vn 0.7903 -0.5251 -0.3157
vn 0.5665 0.1633 0.8077
vn 0.5246 -0.8257 0.2076
vn 0.2942 0.8109 -0.5058
vn -0.5784 -0.5912 0.5621
vn 0.9386 -0.0941 -0.3321
vn -0.2183 0.5409 0.8123
vn 0.1796 0.4141 0.8923
vn 0.5985 -0.3291 -0.7304
vn 0.9801 0.1864 0.0681
vn -0.9937 0.0997 0.0513
vn -0.6436 -0.3420 -0.6847
vn 0.4466 -0.7428 -0.4988
vn -0.5915 0.7959 0.1292
vn 0.7145 -0.3680 0.5950
vn -0.5112 0.0866 -0.8551
vn 0.5132 0.6852 -0.5169
vn 0.2805 0.4987 -0.8201
vn -0.8118 -0.5392 0.2243
vn -0.7671 0.0063 -0.6415
vn 0.7789 0.2916 0.5552
vn 0.1839 -0.3109 0.9325
vn -0.4603 -0.8784 0.1283
vn 0.3454 0.9033 0.2545
vn -0.1219 -0.4051 -0.9061
vn -0.1204 0.0554 0.9912
vn -0.7036 0.6852 -0.1886
vn -0.1220 -0.9711 -0.2049
vn -0.8511 0.4988 0.1640
vn 0.5980 -0.5392 0.5931
vn -0.1756 0.0063 0.9844
vn 0.0949 0.2916 -0.9518
vn 0.7179 -0.3109 -0.6229
vn 0.5665 0.1634 0.8077
vn 0.3401 -0.8784 0.3358
vn 0.0493 0.9033 -0.4262
vn -0.7258 -0.4051 0.5560
vn 0.9200 0.0554 -0.3880
vn 0.6101 -0.7816 0.1303
vn 0.4680 -0.4088 0.7835
vn 0.0517 0.2034 0.9777
vn -0.3948 0.6965 0.5992
vn -0.6101 0.7816 -0.1303
vn -0.4680 0.4088 -0.7835
vn 0.6057 0.5661 0.5592
vn -0.0517 -0.2034 -0.9777
vn 0.3948 -0.6965 -0.5992
vn -0.7907 -0.5897 0.1645
vn 0.3037 0.0787 -0.9495
vn 0.2454 0.7084 -0.6617
vn 0.2962 0.9079 0.2968
vn 0.5340 0.2840 -0.7964
vn 0.8943 0.1417 0.4245
vn 0.1469 0.9668 -0.2089
vn 0.8435 -0.0578 -0.5340
vn 0.9928 -0.1167 -0.0282
vn 0.7907 0.5897 -0.1645
vn -0.1969 0.9619 -0.1897
vn 0.3965 0.4435 0.8038
vn 0.8971 -0.4396 0.0440
vn 0.7041 -0.3633 -0.6101
vn -0.0695 0.6277 -0.7754
vn -0.0039 0.8856 0.4644
vn 0.7697 -0.1054 0.6296
vn -0.2123 -0.8549 -0.4733
vn 0.1892 -0.3707 -0.9093
vn 0.4799 0.3307 -0.8126
vn 0.4895 0.8384 -0.2399
vn 0.2123 0.8549 0.4733
vn -0.1892 0.3707 0.9093
vn -0.2809 0.5173 -0.8084
vn -0.4799 -0.3307 0.8126
vn -0.4895 -0.8384 0.2399
vn 0.8513 -0.3997 0.3400
vn -0.8072 -0.1195 0.5780
vn -0.7447 0.5450 0.3853
vn -0.2742 0.8692 -0.4114
vn -0.9462 0.0588 0.3183
vn -0.4824 0.0311 -0.8754
vn -0.4663 0.8807 0.0830
vn -0.9528 -0.2931 -0.0787
vn -0.7607 -0.3046 -0.5732
vn -0.8512 0.3997 -0.3400
vn -0.1866 0.9435 0.2738
vn 0.0533 0.4735 -0.8792
vn -0.5673 -0.5895 -0.5750
vn -0.8158 -0.5747 0.0646
vn -0.5466 0.5093 0.6647
vn 0.0619 0.9287 -0.3657
vn -0.2073 -0.1553 -0.9659
vn -0.3053 -0.8549 0.4194
vn -0.8831 -0.3707 0.2876
vn -0.9436 0.3307 -0.0127
vn -0.4514 0.8384 -0.3056
vn 0.3053 0.8549 -0.4194
vn 0.8831 0.3707 -0.2876
vn -0.5620 0.5173 0.6454
vn 0.9436 -0.3307 0.0127
vn 0.4514 -0.8384 0.3056
vn -0.1278 -0.3997 -0.9077
vn 0.9027 -0.1195 0.4134
vn 0.7043 0.5450 0.4548
vn -0.2208 0.8692 0.4424
vn 0.7463 0.0588 0.6630
vn -0.5201 0.0311 0.8536
vn 0.3038 0.8807 0.3634
vn 0.4050 -0.2931 0.8660
vn -0.1195 -0.3046 0.9450
vn 0.1278 0.3997 0.9077
vn 0.3303 0.9435 0.0259
vn -0.7895 0.4735 0.3905
vn -0.2171 -0.5895 0.7780
vn 0.4613 -0.5747 0.6759
vn 0.8484 0.5093 0.1441
vn -0.3481 0.9287 0.1279
vn -0.7352 -0.1554 0.6598
vn 0.7907 0.5897 -0.1646
vn -0.8513 0.3997 -0.3400
vn -0.8158 -0.5747 0.0645
vn -0.2073 -0.1554 -0.9659
usemtl Gray_Mushroom01
s off
f 34/1/1 35/2/1 33/3/1
f 36/4/2 37/5/2 35/2/2
f 38/6/3 39/7/3 37/5/3
f 38/6/4 43/8/4 45/9/4
f 39/7/5 42/10/5 41/11/5
f 41/11/6 34/12/6 33/13/6
f 35/14/7 39/15/7 41/16/7
f 43/8/8 50/17/8 45/9/8
f 42/10/9 44/18/9 34/12/9
f 34/1/10 43/8/10 36/4/10
f 40/19/11 45/9/11 46/20/11
f 40/19/12 47/21/12 42/10/12
f 49/22/13 51/23/13 50/24/13
f 44/18/14 52/25/14 49/26/14
f 45/9/15 51/27/15 46/20/15
f 43/8/16 49/28/16 48/29/16
f 46/20/17 52/25/17 47/21/17
f 86/30/18 87/31/18 85/32/18
f 88/33/19 89/34/19 87/31/19
f 89/34/20 92/35/20 91/36/20
f 90/37/21 95/38/21 97/39/21
f 91/36/22 94/40/22 93/41/22
f 93/41/23 86/42/23 85/43/23
f 89/44/24 91/45/24 93/46/24
f 95/38/25 102/47/25 97/39/25
f 94/40/26 96/48/26 86/42/26
f 86/30/27 95/38/27 88/33/27
f 92/35/28 97/39/28 98/49/28
f 92/35/29 99/50/29 94/40/29
f 104/51/30 103/52/30 102/53/30
f 96/48/31 104/54/31 101/55/31
f 97/39/32 103/56/32 98/49/32
f 95/38/33 101/57/33 100/58/33
f 98/49/34 104/54/34 99/50/34
f 138/59/35 139/60/35 137/61/35
f 140/62/36 141/63/36 139/60/36
f 142/64/37 143/65/37 141/63/37
f 142/64/38 147/66/38 149/67/38
f 143/65/39 146/68/39 145/69/39
f 145/69/40 138/70/40 137/71/40
f 141/72/41 143/73/41 145/74/41
f 147/66/42 154/75/42 149/67/42
f 146/68/43 148/76/43 138/70/43
f 138/59/44 147/66/44 140/62/44
f 144/77/45 149/67/45 150/78/45
f 144/77/46 151/79/46 146/68/46
f 153/80/47 155/81/47 154/82/47
f 148/76/48 156/83/48 153/84/48
f 149/67/49 155/85/49 150/78/49
f 147/66/50 153/86/50 152/87/50
f 150/78/51 156/83/51 151/79/51
f 34/1/1 36/4/1 35/2/1
f 36/4/2 38/6/2 37/5/2
f 38/6/3 40/19/3 39/7/3
f 38/6/52 36/4/52 43/8/52
f 39/7/5 40/19/5 42/10/5
f 41/11/6 42/10/6 34/12/6
f 41/16/7 33/88/7 35/14/7
f 35/14/7 37/89/7 39/15/7
f 43/8/53 48/29/53 50/17/53
f 42/10/54 47/21/54 44/18/54
f 34/1/55 44/90/55 43/8/55
f 40/19/56 38/6/56 45/9/56
f 40/19/57 46/20/57 47/21/57
f 50/24/13 48/91/13 49/22/13
f 49/22/13 52/92/13 51/23/13
f 44/18/58 47/21/58 52/25/58
f 45/9/59 50/17/59 51/27/59
f 43/8/60 44/90/60 49/28/60
f 46/20/61 51/27/61 52/25/61
f 86/30/18 88/33/18 87/31/18
f 88/33/19 90/37/19 89/34/19
f 89/34/20 90/37/20 92/35/20
f 90/37/62 88/33/62 95/38/62
f 91/36/22 92/35/22 94/40/22
f 93/41/23 94/40/23 86/42/23
f 93/46/24 85/93/24 87/94/24
f 87/94/24 89/44/24 93/46/24
f 95/38/63 100/58/63 102/47/63
f 94/40/64 99/50/64 96/48/64
f 86/30/65 96/95/65 95/38/65
f 92/35/66 90/37/66 97/39/66
f 92/35/67 98/49/67 99/50/67
f 102/53/30 100/96/30 101/97/30
f 101/97/30 104/51/30 102/53/30
f 96/48/68 99/50/68 104/54/68
f 97/39/69 102/47/69 103/56/69
f 95/38/70 96/95/70 101/57/70
f 98/49/71 103/56/71 104/54/71
f 138/59/35 140/62/35 139/60/35
f 140/62/36 142/64/36 141/63/36
f 142/64/37 144/77/37 143/65/37
f 142/64/72 140/62/72 147/66/72
f 143/65/39 144/77/39 146/68/39
f 145/69/40 146/68/40 138/70/40
f 145/74/73 137/98/73 139/99/73
f 139/99/41 141/72/41 145/74/41
f 147/66/74 152/87/74 154/75/74
f 146/68/75 151/79/75 148/76/75
f 138/59/76 148/100/76 147/66/76
f 144/77/77 142/64/77 149/67/77
f 144/77/78 150/78/78 151/79/78
f 154/82/79 152/101/79 153/80/79
f 153/80/79 156/102/79 155/81/79
f 148/76/80 151/79/80 156/83/80
f 149/67/81 154/75/81 155/85/81
f 147/66/82 148/100/82 153/86/82
f 150/78/83 155/85/83 156/83/83
usemtl Purple_Mushroom01
f 2/103/84 3/104/84 1/105/84
f 4/106/85 5/107/85 3/104/85
f 5/107/86 8/108/86 7/109/86
f 8/108/87 9/110/87 7/109/87
f 10/111/88 11/112/88 9/110/88
f 12/113/89 13/114/89 11/112/89
f 6/115/90 20/116/90 8/108/90
f 14/117/91 15/118/91 13/114/91
f 16/119/92 1/120/92 15/118/92
f 7/121/93 11/122/93 15/123/93
f 23/124/94 32/125/94 24/126/94
f 12/113/95 23/124/95 14/117/95
f 10/111/96 20/116/96 21/127/96
f 16/119/97 23/124/97 24/126/97
f 6/115/98 17/128/98 19/129/98
f 12/113/99 21/127/99 22/130/99
f 16/119/100 18/131/100 2/132/100
f 2/103/101 17/128/101 4/106/101
f 31/133/102 29/134/102 27/135/102
f 22/130/103 29/136/103 30/137/103
f 19/129/104 28/138/104 20/116/104
f 17/128/105 26/139/105 25/140/105
f 24/126/106 26/141/106 18/131/106
f 23/124/107 30/137/107 31/142/107
f 20/116/108 29/136/108 21/127/108
f 17/128/109 27/143/109 19/129/109
f 53/144/110 56/145/110 55/146/110
f 56/145/111 57/147/111 55/146/111
f 58/148/112 59/149/112 57/147/112
f 60/150/113 61/151/113 59/149/113
f 62/152/114 63/153/114 61/151/114
f 64/154/115 65/155/115 63/153/115
f 60/150/116 71/156/116 72/157/116
f 66/158/117 67/159/117 65/155/117
f 68/160/118 53/161/118 67/159/118
f 65/162/119 67/163/119 59/164/119
f 75/165/120 84/166/120 76/167/120
f 64/154/121 75/165/121 66/158/121
f 60/150/122 73/168/122 62/152/122
f 68/160/123 75/165/123 76/167/123
f 56/145/124 71/156/124 58/148/124
f 62/152/125 74/169/125 64/154/125
f 54/170/126 76/167/126 70/171/126
f 56/145/127 70/172/127 69/173/127
f 81/174/128 80/175/128 79/176/128
f 73/168/129 82/177/129 74/169/129
f 71/156/130 80/178/130 72/157/130
f 70/172/131 77/179/131 69/173/131
f 70/171/132 84/166/132 78/180/132
f 74/169/133 83/181/133 75/165/133
f 72/157/134 81/182/134 73/168/134
f 69/173/135 79/183/135 71/156/135
f 106/184/136 107/185/136 105/186/136
f 108/187/137 109/188/137 107/185/137
f 110/189/138 111/190/138 109/188/138
f 112/191/139 113/192/139 111/190/139
f 114/193/140 115/194/140 113/192/140
f 116/195/141 117/196/141 115/194/141
f 110/189/142 124/197/142 112/191/142
f 118/198/143 119/199/143 117/196/143
f 119/199/144 106/200/144 105/201/144
f 115/202/145 117/203/145 119/204/145
f 127/205/146 136/206/146 128/207/146
f 116/195/147 127/205/147 118/198/147
f 114/193/148 124/197/148 125/208/148
f 120/209/149 127/205/149 128/207/149
f 110/189/150 121/210/150 123/211/150
f 114/193/151 126/212/151 116/195/151
f 120/209/152 122/213/152 106/200/152
f 106/184/153 121/210/153 108/187/153
f 132/214/154 131/215/154 135/216/154
f 125/208/155 134/217/155 126/212/155
f 124/197/156 131/218/156 132/219/156
f 122/220/157 129/221/157 121/210/157
f 122/213/158 136/206/158 130/222/158
f 127/205/159 134/217/159 135/223/159
f 124/197/160 133/224/160 125/208/160
f 123/211/161 129/221/161 131/218/161
f 2/103/84 4/106/84 3/104/84
f 4/106/85 6/115/85 5/107/85
f 5/107/86 6/115/86 8/108/86
f 8/108/87 10/111/87 9/110/87
f 10/111/88 12/113/88 11/112/88
f 12/113/89 14/117/89 13/114/89
f 6/115/90 19/129/90 20/116/90
f 14/117/91 16/119/91 15/118/91
f 16/119/92 2/132/92 1/120/92
f 15/123/93 1/225/93 3/226/93
f 3/226/93 5/227/93 7/121/93
f 7/121/93 9/228/93 11/122/93
f 11/122/93 13/229/93 15/123/93
f 15/123/93 3/226/93 7/121/93
f 23/124/94 31/142/94 32/125/94
f 12/113/95 22/130/95 23/124/95
f 10/111/96 8/108/96 20/116/96
f 16/119/97 14/117/97 23/124/97
f 6/115/98 4/106/98 17/128/98
f 12/113/99 10/111/99 21/127/99
f 16/119/100 24/126/100 18/131/100
f 2/103/101 18/230/101 17/128/101
f 27/135/102 25/231/102 26/232/102
f 26/232/162 32/233/162 31/133/162
f 31/133/102 30/234/102 29/134/102
f 29/134/102 28/235/102 27/135/102
f 27/135/102 26/232/102 31/133/102
f 22/130/103 21/127/103 29/136/103
f 19/129/104 27/143/104 28/138/104
f 17/128/105 18/230/105 26/139/105
f 24/126/106 32/125/106 26/141/106
f 23/124/107 22/130/107 30/137/107
f 20/116/108 28/138/108 29/136/108
f 17/128/109 25/140/109 27/143/109
f 53/144/110 54/236/110 56/145/110
f 56/145/111 58/148/111 57/147/111
f 58/148/112 60/150/112 59/149/112
f 60/150/113 62/152/113 61/151/113
f 62/152/114 64/154/114 63/153/114
f 64/154/115 66/158/115 65/155/115
f 60/150/116 58/148/116 71/156/116
f 66/158/117 68/160/117 67/159/117
f 68/160/118 54/170/118 53/161/118
f 67/163/119 53/237/119 59/164/119
f 53/237/119 55/238/119 59/164/119
f 55/238/119 57/239/119 59/164/119
f 59/164/119 61/240/119 63/241/119
f 63/241/119 65/162/119 59/164/119
f 75/165/120 83/181/120 84/166/120
f 64/154/121 74/169/121 75/165/121
f 60/150/122 72/157/122 73/168/122
f 68/160/123 66/158/123 75/165/123
f 56/145/124 69/173/124 71/156/124
f 62/152/125 73/168/125 74/169/125
f 54/170/126 68/160/126 76/167/126
f 56/145/127 54/236/127 70/172/127
f 79/176/163 77/242/163 78/243/163
f 78/243/163 84/244/163 79/176/163
f 84/244/163 83/245/163 79/176/163
f 83/245/163 82/246/163 79/176/163
f 82/246/163 81/174/163 79/176/163
f 73/168/129 81/182/129 82/177/129
f 71/156/130 79/183/130 80/178/130
f 70/172/131 78/247/131 77/179/131
f 70/171/164 76/167/164 84/166/164
f 74/169/133 82/177/133 83/181/133
f 72/157/134 80/178/134 81/182/134
f 69/173/165 77/179/165 79/183/165
f 106/184/136 108/187/136 107/185/136
f 108/187/137 110/189/137 109/188/137
f 110/189/138 112/191/138 111/190/138
f 112/191/139 114/193/139 113/192/139
f 114/193/140 116/195/140 115/194/140
f 116/195/141 118/198/141 117/196/141
f 110/189/142 123/211/142 124/197/142
f 118/198/143 120/209/143 119/199/143
f 119/199/144 120/209/144 106/200/144
f 119/204/145 105/248/145 111/249/145
f 105/248/145 107/250/145 111/249/145
f 107/250/145 109/251/145 111/249/145
f 111/249/145 113/252/145 119/204/145
f 113/252/145 115/202/145 119/204/145
f 127/205/146 135/223/146 136/206/146
f 116/195/147 126/212/147 127/205/147
f 114/193/148 112/191/148 124/197/148
f 120/209/149 118/198/149 127/205/149
f 110/189/150 108/187/150 121/210/150
f 114/193/151 125/208/151 126/212/151
f 120/209/152 128/207/152 122/213/152
f 106/184/153 122/220/153 121/210/153
f 131/215/154 129/253/154 130/254/154
f 130/254/154 136/255/154 131/215/154
f 136/255/154 135/216/154 131/215/154
f 135/216/154 134/256/154 133/257/154
f 133/257/154 132/214/154 135/216/154
f 125/208/155 133/224/155 134/217/155
f 124/197/156 123/211/156 131/218/156
f 122/220/157 130/258/157 129/221/157
f 122/213/158 128/207/158 136/206/158
f 127/205/159 126/212/159 134/217/159
f 124/197/160 132/219/160 133/224/160
f 123/211/161 121/210/161 129/221/161
