# Blender v2.82 (sub 7) OBJ File: 'Render_final.blend'
# www.blender.org
mtllib Pine_tree.mtl
o Pine_tree_Circle.004
v -0.054944 -5.675504 -1.389744
v -0.847158 -5.626462 -1.128297
v -1.336773 -5.596152 -0.443820
v -1.336773 -5.596152 0.402240
v -0.847158 -5.626462 1.086717
v -0.054943 -5.675504 1.348164
v 0.737271 -5.724545 1.086717
v 1.226886 -5.754856 0.402240
v 1.226886 -5.754856 -0.443821
v 0.737270 -5.724545 -1.128298
v -0.049211 -3.753422 -0.964162
v -0.573715 -3.635140 -0.783994
v -0.897876 -3.562038 -0.312308
v -0.897876 -3.562038 0.270728
v -0.573714 -3.635140 0.742414
v -0.049210 -3.753422 0.922582
v 0.475294 -3.871705 0.742414
v 0.799455 -3.944807 0.270728
v 0.799455 -3.944807 -0.312308
v 0.475293 -3.871705 -0.783994
v -0.398021 2.556233 -0.279168
v -0.232177 2.633142 -0.340163
v -0.500518 2.508703 -0.119482
v -0.500518 2.508703 0.077901
v -0.398021 2.556233 0.237588
v -0.232177 2.633142 0.298583
v -0.066333 2.710048 0.237588
v 0.036164 2.757579 0.077901
v 0.036164 2.757579 -0.119482
v -0.066333 2.710048 -0.279168
v 0.407130 0.600088 0.472820
v 0.115936 0.463665 0.589345
v -0.355224 0.242926 0.167752
v -0.355224 0.242926 -0.209332
v 0.115936 0.463665 -0.630926
v 0.407129 0.600088 -0.514400
v 0.587097 0.684402 0.167752
v -0.175257 0.327240 0.472820
v -0.175257 0.327240 -0.514400
v 0.587097 0.684402 -0.209333
v -0.469953 -2.537238 4.247540
v 1.692877 -1.659402 2.923791
v 3.758496 -2.650876 1.527027
v 3.208624 -1.851490 -0.974847
v 2.475720 -2.910538 -3.328995
v -0.180281 -2.375340 -3.828193
v -2.545528 -2.957381 -3.609666
v -3.555772 -1.914593 -1.352955
v -4.366055 -2.726669 1.072891
v -2.487749 -1.698402 2.690107
v -0.265208 2.798124 -0.305818
v 0.257794 -1.160554 -3.548452
v -1.581128 -0.413009 -2.537320
v -3.304876 -1.208644 -1.371772
v -2.916010 -0.413145 0.672443
v -2.336391 -1.160819 2.689339
v -0.153378 -0.638710 3.128617
v 1.824836 -1.083172 3.022562
v 2.689804 -0.308542 1.121346
v 3.428129 -1.083008 -0.832606
v 1.883455 -0.348361 -2.259884
v -0.109488 3.477565 -0.042669
v 2.116036 -0.237275 -2.296757
v 0.375272 0.503438 -2.531019
v -1.442961 -0.068379 -2.560108
v -2.146654 0.705978 -0.966690
v -2.785027 0.156336 0.743329
v -1.459261 0.565227 2.123679
v -0.055472 0.126321 3.048317
v 1.530477 0.665544 2.138484
v 2.973551 -0.116944 1.169440
v 2.647864 0.478449 -0.611917
v 0.362089 3.913783 -0.165690
v 2.369407 0.958044 -1.018895
v 1.140550 1.672952 -1.810841
v -0.251007 1.264792 -2.549307
v -1.376584 1.887365 -1.552392
v -2.522343 1.374732 -0.516631
v -2.021655 1.608424 1.060142
v -1.305692 1.135931 2.270044
v 0.262434 1.565664 2.201689
v 1.717576 0.878404 1.959627
v 2.153519 1.474129 0.509308
v 0.303463 4.478473 0.184767
v 2.479220 1.777151 0.697786
v 2.023535 2.297498 -0.686199
v 1.462254 1.744226 -2.017617
v 0.009568 2.276698 -2.017530
v -1.434685 1.736730 -1.889498
v -2.025413 2.083551 -0.456329
v -2.208125 1.765023 0.905089
v -1.032376 2.314813 1.747210
v 0.210802 1.790005 2.504118
v 1.379580 2.321054 1.640539
v 0.092040 4.969464 0.004782
v 1.417390 2.983436 1.045672
v 1.529408 3.377216 0.124869
v 1.522717 3.078866 -0.837646
v 0.679279 3.501255 -1.192176
v -0.234735 3.224491 -1.513847
v -0.948213 3.447572 -0.798610
v -1.426226 3.219061 -0.048444
v -0.925845 3.493940 0.781948
v -0.405157 3.070081 1.533426
v 0.537387 3.372695 1.344944
v -0.031961 5.309199 0.028054
vt 0.000000 0.000000
vt 0.000000 0.000000
vt 0.000000 0.000000
vt 0.000000 0.000000
vt 0.000000 0.000000
vt 0.000000 0.000000
vt 0.000000 0.000000
vt 0.000000 0.000000
vt 0.000000 0.000000
vt 0.000000 0.000000
vt 0.000000 0.000000
vt 0.000000 0.000000
vt 0.000000 0.000000
vt 0.000000 0.000000
vt 0.000000 0.000000
vt 0.000000 0.000000
vt 0.000000 0.000000
vt 0.000000 0.000000
vt 0.000000 0.000000
vt 0.000000 0.000000
vt 0.000000 0.000000
vt 0.000000 0.000000
vt 0.000000 0.000000
vt 0.000000 0.000000
vt 0.000000 0.000000
vt 0.000000 0.000000
vt 0.000000 0.000000
vt 0.000000 0.000000
vt 0.000000 0.000000
vt 0.000000 0.000000
vt 0.000000 0.000000
vt 0.000000 0.000000
vt 0.000000 0.000000
vt 0.000000 0.000000
vt 0.000000 0.000000
vt 0.000000 0.000000
vt 0.000000 0.000000
vt 0.000000 0.000000
vt 0.000000 0.000000
vt 0.000000 0.000000
vt 0.000000 0.000000
vt 0.000000 0.000000
vt 0.000000 0.000000
vt 0.000000 0.000000
vt 0.000000 0.000000
vt 0.000000 0.000000
vt 0.000000 0.000000
vt 0.000000 0.000000
vt 0.000000 0.000000
vt 0.000000 0.000000
vt 0.000000 0.000000
vt 0.000000 0.000000
vt 0.000000 0.000000
vt 0.000000 0.000000
vt 0.000000 0.000000
vt 0.000000 0.000000
vt 0.000000 0.000000
vt 0.000000 0.000000
vt 0.000000 0.000000
vt 0.000000 0.000000
vt 0.000000 0.000000
vt 0.000000 0.000000
vt 0.000000 0.000000
vt 0.000000 0.000000
vt 0.000000 0.000000
vt 0.000000 0.000000
vt 0.000000 0.000000
vt 0.000000 0.000000
vt 0.000000 0.000000
vt 0.000000 0.000000
vt 0.000000 0.000000
vt 0.000000 0.000000
vt 0.000000 0.000000
vt 0.000000 0.000000
vt 0.000000 0.000000
vt 0.000000 0.000000
vt 0.000000 0.000000
vt 0.000000 0.000000
vt 0.000000 0.000000
vt 0.000000 0.000000
vt 0.000000 0.000000
vt 0.000000 0.000000
vt 0.000000 0.000000
vt 0.000000 0.000000
vt 0.000000 0.000000
vt 0.000000 0.000000
vt 0.000000 0.000000
vt 0.000000 0.000000
vt 0.000000 0.000000
vt 0.000000 0.000000
vt 0.000000 0.000000
vt 0.000000 0.000000
vt 0.000000 0.000000
vt 0.000000 0.000000
vt 0.000000 0.000000
vt 0.000000 0.000000
vt 0.000000 0.000000
vt 0.000000 0.000000
vt 0.000000 0.000000
vt 0.000000 0.000000
vt 0.000000 0.000000
vt 0.000000 0.000000
vt 0.000000 0.000000
vt 0.000000 0.000000
vt 0.000000 0.000000
vt 0.000000 0.000000
vn -0.6290 0.5592 -0.5400
vn 0.6748 0.5714 -0.4671
vn 0.2021 0.6313 0.7488
vn -0.8096 0.5821 -0.0756
vn 0.2598 0.5464 -0.7962
vn 0.6215 0.6200 0.4789
vn -0.6824 0.6078 0.4061
vn -0.2097 0.5479 -0.8098
vn 0.8020 0.5971 0.0145
vn -0.2960 0.6266 0.7209
vn 0.6022 0.6053 0.5206
vn -0.6993 0.5810 0.4164
vn -0.1979 0.5810 -0.7894
vn 0.7937 0.6053 0.0600
vn -0.2922 0.5856 0.7561
vn -0.6235 0.5753 -0.5294
vn 0.6780 0.5996 -0.4252
vn 0.1766 0.5995 0.7806
vn -0.8151 0.5753 -0.0688
vn 0.2993 0.5903 -0.7496
vn 0.2237 0.6162 0.7552
vn -0.7740 0.6271 -0.0874
vn 0.3332 0.5382 -0.7741
vn 0.6466 0.5822 0.4928
vn -0.6404 0.6393 0.4257
vn -0.1637 0.5618 -0.8109
vn 0.8340 0.5508 0.0316
vn -0.2732 0.6397 0.7184
vn -0.5866 0.5958 -0.5486
vn 0.7143 0.5340 -0.4523
vn -0.1197 0.5663 0.8154
vn -0.6406 0.6686 -0.3777
vn 0.6539 0.5583 -0.5106
vn 0.3748 0.5242 0.7647
vn -0.7477 0.6488 0.1413
vn 0.2253 0.6085 -0.7609
vn 0.7463 0.5062 0.4322
vn -0.5482 0.6165 0.5652
vn -0.2691 0.6506 -0.7101
vn 0.8529 0.5193 -0.0549
vn -0.6332 0.5939 0.4963
vn -0.2849 0.5812 -0.7623
vn 0.8045 0.5925 -0.0421
vn -0.2171 0.5982 0.7714
vn -0.6954 0.5784 -0.4266
vn 0.6296 0.5868 -0.5092
vn 0.2812 0.5995 0.7493
vn -0.8081 0.5883 0.0292
vn 0.2135 0.5825 -0.7843
vn 0.6715 0.5973 0.4386
vn -0.7967 0.5202 0.3079
vn 0.1061 0.5846 -0.8044
vn 0.7216 0.6005 0.3446
vn -0.5238 0.5337 0.6639
vn -0.5023 0.5452 -0.6711
vn 0.7676 0.6106 -0.1946
vn -0.0139 0.5595 0.8287
vn -0.7784 0.5315 -0.3341
vn 0.5464 0.6055 -0.5786
vn 0.4809 0.5853 0.6528
vn -0.0618 -0.9981 0.0000
vn 0.2949 0.1733 0.9397
vn 0.3585 0.2008 0.9117
vn -0.9775 0.2109 0.0000
vn 0.3180 0.2165 -0.9230
vn 0.8202 0.2145 0.5304
vn -0.7908 0.2079 0.5757
vn -0.2950 0.2074 -0.9327
vn 0.9732 0.2298 0.0000
vn -0.2775 0.2006 0.9396
vn -0.7912 0.2081 -0.5751
vn 0.7965 0.2288 -0.5596
vn -0.9980 -0.0640 0.0000
vn 0.2714 0.1666 -0.9479
vn 0.8053 0.2411 0.5417
vn -0.8566 -0.0345 0.5149
vn -0.3707 0.0647 -0.9265
vn 0.9665 0.2568 0.0000
vn -0.3940 0.0574 0.9173
vn -0.8377 -0.0262 -0.5455
vn 0.7852 0.2335 -0.5735
vn 0.4207 -0.9072 -0.0000
vn 0.8540 0.0507 -0.5178
vn -0.8692 0.1200 -0.4796
vn -0.3042 0.0951 0.9479
vn 0.9989 0.0458 0.0000
vn -0.4053 0.0878 -0.9100
vn -0.8075 0.1307 0.5752
vn 0.8266 0.0464 0.5609
vn 0.3458 0.0617 -0.9363
vn -0.9900 0.1412 0.0000
vn 0.3366 0.0611 0.9397
vn 0.2714 0.1666 0.9479
vn 0.3180 0.2165 0.9230
vn 0.3585 0.2008 -0.9117
vn 0.7965 0.2288 0.5596
vn -0.7912 0.2081 0.5751
vn -0.2775 0.2006 -0.9396
vn -0.2950 0.2074 0.9327
vn -0.7908 0.2079 -0.5757
vn 0.8202 0.2145 -0.5304
vn 0.2949 0.1733 -0.9397
vn 0.7852 0.2335 0.5735
vn -0.8377 -0.0262 0.5455
vn -0.3940 0.0574 -0.9173
vn -0.3707 0.0647 0.9265
vn -0.8566 -0.0345 -0.5149
vn 0.8053 0.2411 -0.5417
vn 0.8266 0.0464 -0.5609
vn -0.8075 0.1307 -0.5752
vn -0.4053 0.0878 0.9100
vn -0.3042 0.0951 -0.9479
vn -0.8692 0.1200 0.4796
vn 0.8540 0.0507 0.5178
vn 0.3366 0.0611 -0.9397
vn 0.3458 0.0617 0.9363
usemtl Pine_leafs
s off
f 47/1/1 48/2/1 51/3/1
f 44/4/2 45/5/2 51/3/2
f 41/6/3 42/7/3 51/3/3
f 48/2/4 49/8/4 51/3/4
f 45/5/5 46/9/5 51/3/5
f 42/7/6 43/10/6 51/3/6
f 49/8/7 50/11/7 51/3/7
f 46/9/8 47/1/8 51/3/8
f 43/10/9 44/4/9 51/3/9
f 50/11/10 41/6/10 51/3/10
f 58/12/11 59/13/11 62/14/11
f 55/15/12 56/16/12 62/14/12
f 52/17/13 53/18/13 62/14/13
f 59/13/14 60/19/14 62/14/14
f 56/16/15 57/20/15 62/14/15
f 53/18/16 54/21/16 62/14/16
f 60/19/17 61/22/17 62/14/17
f 57/20/18 58/12/18 62/14/18
f 54/21/19 55/15/19 62/14/19
f 61/22/20 52/17/20 62/14/20
f 69/23/21 70/24/21 73/25/21
f 66/26/22 67/27/22 73/25/22
f 63/28/23 64/29/23 73/25/23
f 70/24/24 71/30/24 73/25/24
f 67/27/25 68/31/25 73/25/25
f 64/29/26 65/32/26 73/25/26
f 71/30/27 72/33/27 73/25/27
f 68/31/28 69/23/28 73/25/28
f 65/32/29 66/26/29 73/25/29
f 72/33/30 63/28/30 73/25/30
f 80/34/31 81/35/31 84/36/31
f 77/37/32 78/38/32 84/36/32
f 74/39/33 75/40/33 84/36/33
f 81/35/34 82/41/34 84/36/34
f 78/38/35 79/42/35 84/36/35
f 75/40/36 76/43/36 84/36/36
f 82/41/37 83/44/37 84/36/37
f 79/42/38 80/34/38 84/36/38
f 76/43/39 77/37/39 84/36/39
f 83/44/40 74/39/40 84/36/40
f 91/45/41 92/46/41 95/47/41
f 88/48/42 89/49/42 95/47/42
f 85/50/43 86/51/43 95/47/43
f 92/46/44 93/52/44 95/47/44
f 89/49/45 90/53/45 95/47/45
f 86/51/46 87/54/46 95/47/46
f 93/52/47 94/55/47 95/47/47
f 90/53/48 91/45/48 95/47/48
f 87/54/49 88/48/49 95/47/49
f 94/55/50 85/50/50 95/47/50
f 102/56/51 103/57/51 106/58/51
f 99/59/52 100/60/52 106/58/52
f 96/61/53 97/62/53 106/58/53
f 103/57/54 104/63/54 106/58/54
f 100/60/55 101/64/55 106/58/55
f 97/62/56 98/65/56 106/58/56
f 104/63/57 105/66/57 106/58/57
f 101/64/58 102/56/58 106/58/58
f 98/65/59 99/59/59 106/58/59
f 105/66/60 96/61/60 106/58/60
usemtl Pine_bark
f 4/67/61 3/68/61 9/69/61
f 31/70/62 26/71/62 32/72/62
f 6/73/63 17/74/63 16/75/63
f 4/67/64 13/76/64 3/68/64
f 1/77/65 20/78/65 10/79/65
f 7/80/66 18/81/66 17/74/66
f 4/67/67 15/82/67 14/83/67
f 2/84/68 11/85/68 1/77/68
f 9/69/69 18/81/69 8/86/69
f 5/87/70 16/75/70 15/82/70
f 3/68/71 12/88/71 2/84/71
f 10/79/72 19/89/72 9/69/72
f 33/90/73 23/91/73 34/92/73
f 36/93/74 22/94/74 30/95/74
f 37/96/75 27/97/75 31/70/75
f 38/98/76 24/99/76 33/90/76
f 35/100/77 21/101/77 22/94/77
f 40/102/78 28/103/78 37/96/78
f 32/72/79 25/104/79 38/98/79
f 39/105/80 23/91/80 21/101/80
f 40/102/81 30/95/81 29/106/81
f 24/99/82 27/97/82 25/104/82
f 19/89/83 36/93/83 40/102/83
f 12/88/84 34/92/84 39/105/84
f 16/75/85 38/98/85 15/82/85
f 19/89/86 37/96/86 18/81/86
f 11/85/87 39/105/87 35/100/87
f 15/82/88 33/90/88 14/83/88
f 18/81/89 31/70/89 17/74/89
f 20/78/90 35/100/90 36/93/90
f 14/83/91 34/92/91 13/76/91
f 17/74/92 32/72/92 16/75/92
f 3/68/61 2/84/61 10/79/61
f 2/84/61 1/77/61 10/79/61
f 10/79/61 9/69/61 3/68/61
f 9/69/61 8/86/61 4/67/61
f 8/86/61 7/80/61 5/87/61
f 7/80/61 6/73/61 5/87/61
f 5/87/61 4/67/61 8/86/61
f 31/70/93 27/97/93 26/71/93
f 6/73/94 7/80/94 17/74/94
f 4/67/64 14/83/64 13/76/64
f 1/77/95 11/85/95 20/78/95
f 7/80/96 8/86/96 18/81/96
f 4/67/97 5/87/97 15/82/97
f 2/84/98 12/88/98 11/85/98
f 9/69/69 19/89/69 18/81/69
f 5/87/99 6/73/99 16/75/99
f 3/68/100 13/76/100 12/88/100
f 10/79/101 20/78/101 19/89/101
f 33/90/73 24/99/73 23/91/73
f 36/93/102 35/100/102 22/94/102
f 37/96/103 28/103/103 27/97/103
f 38/98/104 25/104/104 24/99/104
f 35/100/105 39/105/105 21/101/105
f 40/102/78 29/106/78 28/103/78
f 32/72/106 26/71/106 25/104/106
f 39/105/107 34/92/107 23/91/107
f 40/102/108 36/93/108 30/95/108
f 24/99/82 23/91/82 29/106/82
f 23/91/82 21/101/82 30/95/82
f 21/101/82 22/94/82 30/95/82
f 30/95/82 29/106/82 23/91/82
f 29/106/82 28/103/82 24/99/82
f 28/103/82 27/97/82 24/99/82
f 27/97/82 26/71/82 25/104/82
f 19/89/109 20/78/109 36/93/109
f 12/88/110 13/76/110 34/92/110
f 16/75/111 32/72/111 38/98/111
f 19/89/86 40/102/86 37/96/86
f 11/85/112 12/88/112 39/105/112
f 15/82/113 38/98/113 33/90/113
f 18/81/114 37/96/114 31/70/114
f 20/78/115 11/85/115 35/100/115
f 14/83/91 33/90/91 34/92/91
f 17/74/116 31/70/116 32/72/116
