# Blender v2.90.0 OBJ File: 'Rock_06.blend'
# www.blender.org
mtllib Rock_06.mtl
o Stone_table_Cube
v -1.721121 -0.805500 0.208096
v 1.929729 -0.805500 0.212133
v 1.998672 -0.007622 0.238897
v -1.888819 -0.007622 0.238897
v 1.856808 -0.805500 -1.331314
v -0.038474 -0.805500 2.166853
v -0.142822 0.790256 0.232075
v 2.027132 -0.600441 0.237070
v -0.019581 -0.007622 -1.642143
v -1.641496 -0.007622 -1.335285
v -1.835763 -0.600869 0.233087
v -1.601967 -0.805500 -1.237739
v -0.036350 -0.805500 -1.646607
v -0.117546 -0.805500 0.228846
v -0.043572 -0.007622 2.148706
v 1.962356 -0.007622 -1.217875
v -0.048994 0.790256 -0.985731
v -0.080138 -0.805500 -1.254852
v -0.037040 -0.601196 2.184300
v 1.952602 -0.601041 -1.280442
v -0.025885 -0.601107 -1.619023
v -1.659129 -0.600702 -1.224309
v -1.445079 -0.805500 2.132968
v -1.603603 -0.805500 1.958744
v -1.590201 -0.805500 -1.349750
v -1.425613 -0.805500 -1.531651
v 1.681399 -0.805500 1.877051
v 1.509415 -0.805500 2.056166
v 1.621609 -0.805500 -1.650279
v 1.813783 -0.805500 -1.487569
v -1.469849 -0.007622 2.207650
v -1.640121 -0.007622 2.044712
v -1.633311 -0.007622 -1.475826
v -1.476259 -0.007622 -1.646117
v 1.704925 -0.007622 -1.525450
v 1.910254 -0.007622 -1.358307
v 1.701242 -0.007622 1.737290
v 1.522124 -0.007622 1.924912
v -1.643747 -0.600934 -1.355591
v -1.476960 -0.601222 -1.533689
v 1.703132 -0.601063 -1.598773
v 1.902147 -0.601050 -1.436744
v 1.732638 -0.600825 1.824639
v 1.555139 -0.600894 2.008149
v -1.650874 -0.601600 2.017298
v -1.486170 -0.601626 2.186960
v -1.861303 0.317789 0.238054
v -1.612264 0.790256 0.237385
v 1.611559 0.790256 0.230495
v 1.831867 0.372440 0.230778
v -1.458115 0.790256 -1.308671
v -1.637016 0.749294 -1.321264
v -0.042148 0.790256 -1.169240
v -0.461008 0.475932 -1.610033
v 1.821211 0.749316 -0.638833
v 1.631516 0.790256 -0.647465
v -0.049893 0.428193 2.006599
v -0.061082 0.790256 1.791906
v -1.438331 0.790256 1.703583
v -1.602525 0.749315 1.827706
v -1.360363 0.790256 1.779252
v -1.428047 0.749322 1.996917
v -1.401750 0.790256 -1.406181
v -1.471401 0.749288 -1.615345
v -1.455657 0.790256 -1.348188
v -1.629220 0.749291 -1.445492
v 0.564236 0.790256 1.758632
v 0.602095 0.566094 1.968805
v 1.225176 0.790256 1.116752
v 1.579048 0.610286 1.184408
v 1.480767 0.790256 -1.156919
v 1.645826 0.749304 -1.275875
v 1.146594 0.790256 -1.251774
v 1.225608 0.749293 -1.456422
vt 0.618591 0.000000
vt 0.500000 0.010698
vt 0.500078 0.000000
vt 0.500000 0.252811
vt 0.406250 0.362550
vt 0.406250 0.252837
vt 0.500000 0.516505
vt 0.406250 0.531250
vt 0.406250 0.515822
vt 0.500000 0.125000
vt 0.406250 0.010870
vt 0.375000 0.218750
vt 0.406250 0.228781
vt 0.375000 0.227884
vt 0.241419 0.625000
vt 0.125000 0.531250
vt 0.241419 0.531250
vt 0.618581 0.831271
vt 0.500000 0.883581
vt 0.500000 0.761395
vt 0.618584 0.125000
vt 0.618586 0.011967
vt 0.500000 0.362550
vt 0.618582 0.488648
vt 0.500000 0.489203
vt 0.375000 0.761574
vt 0.406250 0.883581
vt 0.375000 0.883581
vt 0.618582 0.883581
vt 0.500000 0.989123
vt 0.500000 0.218750
vt 0.618582 0.228429
vt 0.500000 0.229126
vt 0.375000 0.125000
vt 0.406250 0.218750
vt 0.862761 0.625000
vt 0.758581 0.531250
vt 0.861900 0.531250
vt 0.858196 0.523528
vt 0.406250 0.125000
vt 0.618584 0.512889
vt 0.500000 0.531250
vt 0.375000 0.625000
vt 0.406250 0.738083
vt 0.375000 0.738505
vt 0.375000 0.531250
vt 0.643974 0.516353
vt 0.638057 0.531250
vt 0.375000 0.011104
vt 0.618582 0.329970
vt 0.618582 0.252943
vt 0.406250 0.625000
vt 0.500000 0.737482
vt 0.363426 0.750000
vt 0.375000 0.488786
vt 0.375000 0.362550
vt 0.500000 0.625000
vt 0.618586 0.531250
vt 0.618584 0.625000
vt 0.364102 0.500316
vt 0.406250 0.761253
vt 0.758581 0.625000
vt 0.709403 0.735067
vt 0.638116 0.690647
vt 0.375000 0.515957
vt 0.136123 0.507851
vt 0.406250 0.489212
vt 0.375000 0.253272
vt 0.618581 0.695983
vt 0.856668 0.735220
vt 0.758581 0.735355
vt 0.375000 0.988980
vt 0.406291 0.000000
vt 0.406002 1.000000
vt 0.375000 1.000000
vt 0.241419 0.750000
vt 0.136020 0.750000
vt 0.125000 0.738896
vt 0.637039 0.625000
vt 0.625000 0.127082
vt 0.618583 0.218750
vt 0.625000 0.003353
vt 0.625000 0.244932
vt 0.625000 0.236546
vt 0.625000 0.507228
vt 0.625000 0.494630
vt 0.626926 0.742827
vt 0.625000 0.017308
vt 0.625000 0.983866
vt 0.618587 0.988773
vt 0.625000 0.222103
vt 0.625000 0.219014
vt 0.625000 0.258306
vt 0.625000 0.362023
vt 0.625000 0.883581
vt 0.638233 0.522849
vt 0.625000 0.363066
vt 0.625000 0.484059
vt 0.125000 0.625000
vt 0.758581 0.518386
vt 0.861889 0.528219
vt 0.406250 0.989272
vt 0.241419 0.503870
vt 0.125000 0.522116
vt 0.861685 0.729848
vt 0.500000 0.000000
vt 0.625000 0.218750
vt 0.625000 0.008724
vt 0.634561 0.823783
vt 0.625000 0.122272
vt 0.625000 0.884524
vt 0.625000 0.833428
vn -0.6724 0.2328 0.7027
vn -0.0577 -0.1857 -0.9809
vn 0.9513 0.0276 -0.3071
vn -0.9906 0.0116 0.1364
vn -0.9617 -0.2546 -0.1010
vn 0.0000 -1.0000 0.0000
vn 0.1399 0.1495 0.9788
vn -0.9867 0.0882 0.1367
vn 0.0669 0.1326 -0.9889
vn 0.0711 -0.0854 0.9938
vn 0.0393 0.3103 0.9498
vn -0.9983 0.0077 -0.0581
vn -0.9615 -0.2632 -0.0792
vn 0.0000 1.0000 0.0000
vn -0.9889 -0.0873 -0.1199
vn 0.8806 0.3432 -0.3267
vn 0.9680 -0.2054 0.1444
vn -0.9626 -0.2518 0.0997
vn 0.0162 0.0405 -0.9990
vn 0.9802 0.0787 0.1818
vn -0.0022 0.1339 -0.9910
vn -0.9932 0.0078 -0.1164
vn 0.0412 0.0603 0.9973
vn 0.9023 0.3995 0.1621
vn 0.1088 0.1441 0.9836
vn 0.9987 -0.0112 -0.0490
vn 0.9098 -0.3309 -0.2505
vn 0.0117 -0.0390 -0.9992
vn -0.0587 -0.0247 -0.9980
vn 0.9088 -0.4151 -0.0429
vn 0.9205 0.3455 0.1827
vn -0.0240 -0.0849 0.9961
vn -0.7144 -0.2061 -0.6687
vn 0.6294 -0.0798 -0.7730
vn 0.7188 -0.0019 0.6952
vn -0.7174 -0.0192 0.6964
vn -0.7322 0.0312 -0.6803
vn -0.7292 -0.1265 -0.6725
vn 0.6285 0.0935 -0.7721
vn 0.7163 0.1386 0.6839
vn -0.6949 -0.3427 0.6323
vn 0.4461 0.6700 0.5934
vn 0.3744 0.3166 -0.8715
vn 0.2108 0.9775 0.0048
vn -0.8846 0.4663 0.0018
vn -0.1374 0.9803 0.1416
vn -0.1518 0.9783 -0.1411
vn 0.0503 0.9829 -0.1773
vn 0.3314 0.8242 0.4592
vn -0.3685 0.9106 -0.1872
vn 0.2184 0.9445 0.2455
vn -0.2222 0.9749 -0.0138
vn 0.1125 0.7554 -0.6456
vn 0.4178 0.8901 0.1822
vn -0.0576 0.5079 0.8595
vn 0.2133 0.9749 -0.0631
vn -0.0140 0.9794 -0.2014
vn -0.9901 0.0085 -0.1401
vn -0.6769 0.2337 0.6980
vn 0.0027 -0.0390 -0.9992
vn 0.9373 0.0213 -0.3478
vn -0.9907 -0.0896 0.1026
vn -0.9590 -0.2603 -0.1119
vn -0.0104 0.3099 0.9507
vn -0.9872 0.0838 0.1360
vn 0.0692 0.1289 -0.9892
vn 0.1076 0.2043 0.9730
vn 0.0550 0.2650 0.9627
vn -0.9980 0.0071 -0.0626
vn -0.8730 -0.4761 -0.1059
vn -0.9879 0.0003 -0.1552
vn 0.9004 0.3575 -0.2479
vn 0.8832 -0.4394 0.1637
vn -0.8679 -0.4933 0.0583
vn 0.0027 0.0687 -0.9976
vn 0.9798 0.0464 0.1945
vn 0.0114 0.2400 -0.9707
vn -0.9983 0.0058 -0.0581
vn 0.0018 -0.0349 0.9994
vn 0.9792 0.2013 -0.0244
vn 0.1412 0.0608 0.9881
vn 0.9985 0.0480 -0.0249
vn 0.8927 -0.3465 -0.2881
vn 0.0670 0.1221 -0.9902
vn -0.0817 0.1374 -0.9871
vn 0.9045 -0.4242 -0.0443
vn 0.9055 0.4004 0.1402
vn 0.0019 -0.2557 0.9668
vn -0.7281 -0.1896 -0.6588
vn 0.6448 -0.0653 -0.7616
vn 0.7213 0.0013 0.6926
vn -0.6914 -0.0062 0.7225
vn -0.7347 0.0323 -0.6776
vn -0.7243 -0.1247 -0.6781
vn 0.6286 0.0935 -0.7721
vn 0.7121 0.1363 0.6888
vn -0.6816 -0.3126 0.6616
vn 0.5756 0.6055 0.5495
vn 0.6038 0.2917 -0.7418
vn 0.8688 0.4582 0.1879
vn -0.2217 0.9749 -0.0221
vn 0.0902 0.9735 -0.2100
vn 0.5466 0.6200 0.5628
vn -0.8797 0.4639 0.1044
vn -0.0084 0.5098 0.8602
vn -0.2223 0.9749 -0.0140
vn 0.2530 0.9301 -0.2664
vn 0.8784 0.4633 0.1173
vn 0.0386 0.6869 0.7257
vn 0.2024 0.9777 -0.0557
vn -0.0903 0.8494 -0.5199
vn -0.9845 0.0828 -0.1547
usemtl Rock_06
s off
f 62/1/1 32/2/1 31/3/1
f 34/4/2 21/5/2 40/6/2
f 36/7/3 20/8/3 42/9/3
f 4/10/4 45/11/4 32/2/4
f 12/12/5 39/13/5 25/14/5
f 14/15/6 12/16/6 18/17/6
f 68/18/7 15/19/7 38/20/7
f 47/21/8 32/2/8 60/22/8
f 9/23/9 74/24/9 35/25/9
f 28/26/10 19/27/10 6/28/10
f 57/29/11 31/30/11 15/19/11
f 10/31/12 66/32/12 33/33/12
f 1/34/13 22/35/13 12/12/13
f 48/36/14 17/37/14 51/38/14
f 63/39/14 51/38/14 17/37/14
f 4/10/15 22/35/15 11/40/15
f 72/41/16 16/42/16 36/7/16
f 2/43/17 43/44/17 27/45/17
f 2/43/6 18/17/6 5/46/6
f 73/47/14 17/37/14 56/48/14
f 11/40/18 24/49/18 45/11/18
f 54/50/19 34/4/19 64/51/19
f 8/52/20 37/53/20 43/44/20
f 28/54/6 14/15/6 27/45/6
f 21/5/21 29/55/21 13/56/21
f 10/31/22 39/13/22 22/35/22
f 31/30/23 19/27/23 15/19/23
f 3/57/24 55/58/24 50/59/24
f 29/60/6 5/46/6 18/17/6
f 38/20/25 19/27/25 44/61/25
f 16/42/26 8/52/26 20/8/26
f 7/62/14 67/63/14 69/64/14
f 42/9/27 5/46/27 30/65/27
f 26/66/6 18/17/6 12/16/6
f 9/23/28 41/67/28 21/5/28
f 21/5/29 26/68/29 40/6/29
f 20/8/30 2/43/30 5/46/30
f 7/62/14 56/48/14 17/37/14
f 3/57/31 70/69/31 37/53/31
f 61/70/14 58/71/14 7/62/14
f 19/27/32 23/72/32 6/28/32
f 40/6/33 25/14/33 39/13/33
f 30/65/34 41/67/34 42/9/34
f 44/61/35 27/45/35 43/44/35
f 46/73/36 32/2/36 45/11/36
f 64/51/37 33/33/37 66/32/37
f 40/6/38 33/33/38 34/4/38
f 42/9/39 35/25/39 36/7/39
f 38/20/40 43/44/40 37/53/40
f 23/72/41 45/74/41 24/75/41
f 38/20/42 70/69/42 68/18/42
f 72/41/43 35/25/43 74/24/43
f 6/76/6 23/77/6 24/78/6
f 49/79/44 55/58/44 56/48/44
f 48/80/45 52/81/45 47/21/45
f 61/82/46 60/22/46 62/1/46
f 63/83/47 66/32/47 65/84/47
f 71/85/48 74/24/48 73/86/48
f 69/87/49 68/18/49 70/69/49
f 59/88/50 47/21/50 60/22/50
f 57/29/51 61/89/51 62/90/51
f 65/91/52 52/81/52 51/92/52
f 54/50/53 63/93/53 53/94/53
f 70/69/54 49/79/54 69/64/54
f 68/18/55 58/95/55 57/29/55
f 55/58/56 71/96/56 56/48/56
f 74/24/57 53/97/57 73/98/57
f 10/31/58 47/21/58 52/81/58
f 62/1/59 60/22/59 32/2/59
f 34/4/60 9/23/60 21/5/60
f 36/7/61 16/42/61 20/8/61
f 4/10/62 11/40/62 45/11/62
f 12/12/63 22/35/63 39/13/63
f 14/15/6 1/99/6 12/16/6
f 68/18/64 57/29/64 15/19/64
f 47/21/65 4/10/65 32/2/65
f 9/23/66 54/50/66 74/24/66
f 28/26/67 44/61/67 19/27/67
f 57/29/68 62/90/68 31/30/68
f 10/31/69 52/81/69 66/32/69
f 1/34/70 11/40/70 22/35/70
f 48/36/14 7/62/14 17/37/14
f 17/37/14 53/100/14 63/39/14
f 63/39/14 65/101/14 51/38/14
f 4/10/71 10/31/71 22/35/71
f 72/41/72 55/58/72 16/42/72
f 2/43/73 8/52/73 43/44/73
f 2/43/6 14/15/6 18/17/6
f 56/48/14 71/96/14 73/47/14
f 73/47/14 53/100/14 17/37/14
f 11/40/74 1/34/74 24/49/74
f 54/50/75 9/23/75 34/4/75
f 8/52/76 3/57/76 37/53/76
f 6/76/6 14/15/6 28/54/6
f 14/15/6 2/43/6 27/45/6
f 21/5/77 41/67/77 29/55/77
f 10/31/78 33/33/78 39/13/78
f 31/30/79 46/102/79 19/27/79
f 3/57/80 16/42/80 55/58/80
f 18/17/6 13/103/6 29/60/6
f 29/60/6 30/65/6 5/46/6
f 38/20/81 15/19/81 19/27/81
f 16/42/82 3/57/82 8/52/82
f 69/64/14 49/79/14 7/62/14
f 7/62/14 58/71/14 67/63/14
f 42/9/83 20/8/83 5/46/83
f 12/16/6 25/104/6 26/66/6
f 26/66/6 13/103/6 18/17/6
f 9/23/84 35/25/84 41/67/84
f 21/5/85 13/56/85 26/68/85
f 20/8/86 8/52/86 2/43/86
f 7/62/14 49/79/14 56/48/14
f 3/57/87 50/59/87 70/69/87
f 7/62/14 48/36/14 59/105/14
f 59/105/14 61/70/14 7/62/14
f 19/27/88 46/102/88 23/72/88
f 40/6/89 26/68/89 25/14/89
f 30/65/90 29/55/90 41/67/90
f 44/61/91 28/26/91 27/45/91
f 46/73/92 31/106/92 32/2/92
f 64/51/93 34/4/93 33/33/93
f 40/6/94 39/13/94 33/33/94
f 42/9/95 41/67/95 35/25/95
f 38/20/96 44/61/96 43/44/96
f 23/72/97 46/102/97 45/74/97
f 38/20/98 37/53/98 70/69/98
f 72/41/99 36/7/99 35/25/99
f 24/78/6 1/99/6 14/15/6
f 14/15/6 6/76/6 24/78/6
f 49/79/100 50/59/100 55/58/100
f 48/80/101 51/107/101 52/81/101
f 61/82/46 59/108/46 60/22/46
f 63/83/47 64/51/47 66/32/47
f 71/85/102 72/41/102 74/24/102
f 69/87/103 67/109/103 68/18/103
f 59/88/104 48/110/104 47/21/104
f 57/29/105 58/111/105 61/89/105
f 65/91/106 66/32/106 52/81/106
f 54/50/107 64/51/107 63/93/107
f 70/69/108 50/59/108 49/79/108
f 68/18/109 67/112/109 58/95/109
f 55/58/110 72/41/110 71/96/110
f 74/24/111 54/50/111 53/97/111
f 10/31/112 4/10/112 47/21/112
