# Blender v2.90.0 OBJ File: 'TomatoPlant_Stage_01.blend'
# www.blender.org
mtllib TomatoPlant_Stage_01.mtl
o TomatoPlant_Stage_01_Cylinder.040
v -0.046619 -0.867669 -0.083100
v -0.046619 0.183034 -0.048983
v 0.051447 -0.867669 -0.011850
v 0.019001 0.183034 -0.001308
v 0.013989 -0.867669 0.103434
v -0.006064 0.183034 0.075833
v -0.107228 -0.867669 0.103434
v -0.087174 0.183034 0.075833
v -0.144686 -0.867669 -0.011850
v -0.112239 0.183034 -0.001308
v -0.046619 -0.716913 -0.048983
v 0.019001 -0.716913 -0.001308
v -0.006064 -0.716913 0.075833
v -0.087174 -0.716913 0.075833
v -0.112239 -0.716913 -0.001308
v -0.074091 0.142575 -0.009335
v -0.074091 0.156240 -0.004331
v -0.026725 0.142575 -0.009335
v -0.026725 0.156240 -0.004331
v -0.050408 0.146628 -0.241115
v -0.071760 0.142172 -0.160349
v -0.071760 0.160921 -0.159338
v -0.029057 0.142172 -0.160349
v -0.029057 0.160921 -0.159338
v -0.194611 0.009810 -0.560092
v -0.194611 0.013985 -0.563085
v 0.093793 0.009810 -0.560092
v 0.093793 0.013985 -0.563085
v -0.050409 -0.089634 -0.829694
v -0.050409 -0.085459 -0.832686
v -0.287554 0.031545 -0.374097
v -0.287554 0.036531 -0.375334
v 0.186737 0.031545 -0.374097
v 0.186737 0.036531 -0.375334
v -0.050409 0.098966 -0.451247
v -0.050409 0.093980 -0.450009
v -0.201355 0.083734 -0.163837
v -0.201355 0.088720 -0.165075
v 0.100537 0.083734 -0.163837
v 0.100537 0.088720 -0.165075
v -0.050409 0.160295 -0.182840
v -0.050409 0.165280 -0.184078
v -0.050453 0.146074 -0.065174
v -0.051602 0.152973 -0.065041
v -0.049216 0.145842 -0.042441
v -0.050365 0.152741 -0.042308
v 0.059855 0.127345 -0.059968
v 0.020805 0.132498 -0.068069
v 0.021991 0.141444 -0.068042
v 0.021920 0.132288 -0.047573
v 0.023106 0.141235 -0.047547
v 0.194413 0.035165 -0.137653
v 0.196195 0.036873 -0.137733
v 0.201946 0.033751 0.000764
v 0.203728 0.035459 0.000684
v 0.337909 -0.064608 -0.077062
v 0.340059 -0.062547 -0.077158
v 0.106180 0.062362 -0.177317
v 0.107206 0.064608 -0.177350
v 0.118568 0.060036 0.050314
v 0.119594 0.062282 0.050281
v 0.154746 0.086218 -0.065552
v 0.153720 0.083972 -0.065519
v 0.013881 0.105217 -0.130359
v 0.014907 0.107463 -0.130392
v 0.021767 0.103736 0.014531
v 0.022793 0.105982 0.014498
v 0.033579 0.138962 -0.058419
v 0.034605 0.141208 -0.058452
v 0.000322 0.159638 -0.002395
v -0.011069 0.168497 -0.004278
v -0.001096 0.167732 0.044253
v -0.012487 0.176592 0.042370
v 0.195188 0.287171 0.005443
v 0.129263 0.237942 -0.009698
v 0.118629 0.253131 -0.012657
v 0.127986 0.245240 0.032358
v 0.117351 0.260429 0.029399
v 0.542872 0.313134 -0.134921
v 0.543248 0.318184 -0.135786
v 0.534242 0.362421 0.149109
v 0.534618 0.367471 0.148245
v 0.820333 0.394123 0.005878
v 0.820709 0.399173 0.005014
v 0.375687 0.219099 -0.218057
v 0.374144 0.223918 -0.218940
v 0.361494 0.300152 0.249041
v 0.359951 0.304972 0.248158
v 0.399253 0.356101 -0.000318
v 0.400796 0.351282 0.000565
v 0.166574 0.168627 -0.128127
v 0.165031 0.173447 -0.129010
v 0.157540 0.220219 0.169187
v 0.155997 0.225039 0.168304
v 0.138362 0.268432 0.006968
v 0.136819 0.273251 0.006085
v -0.039362 -0.135441 0.059254
v -0.035333 -0.128423 0.051044
v -0.074419 -0.129029 0.047528
v -0.070390 -0.122011 0.039319
v -0.089798 -0.034423 0.205264
v -0.063262 -0.073416 0.158720
v -0.058590 -0.061386 0.151329
v -0.094869 -0.067636 0.148148
v -0.090197 -0.055605 0.140758
v -0.062718 -0.013858 0.501020
v -0.062148 -0.009858 0.501502
v -0.276176 0.025182 0.429625
v -0.275606 0.029182 0.430108
v -0.232860 0.050293 0.679319
v -0.232290 0.054293 0.679801
v 0.038509 -0.088342 0.393196
v 0.039531 -0.084525 0.392228
v -0.312530 -0.024140 0.275785
v -0.311508 -0.020323 0.274817
v -0.132020 0.020176 0.361357
v -0.133042 0.016359 0.362325
v 0.018044 -0.128320 0.214058
v 0.019066 -0.124502 0.213089
v -0.205398 -0.087454 0.139324
v -0.204375 -0.083637 0.138355
v -0.077980 -0.049266 0.161815
v -0.076958 -0.045448 0.160847
v -0.064176 -0.107002 0.089086
v -0.061642 -0.102632 0.086809
v -0.061825 -0.116318 0.073825
v -0.059290 -0.111948 0.071548
v -0.149578 -0.106640 0.065049
v -0.120616 -0.105180 0.078228
v -0.119331 -0.099092 0.074709
v -0.118496 -0.113579 0.064469
v -0.117211 -0.107491 0.060950
v -0.282770 -0.117734 0.116176
v -0.283689 -0.116326 0.115175
v -0.268451 -0.174459 0.023253
v -0.269369 -0.173051 0.022252
v -0.404194 -0.189407 0.076339
v -0.405303 -0.187709 0.075131
v -0.216702 -0.095345 0.154506
v -0.216924 -0.093702 0.153469
v -0.193153 -0.188632 0.001691
v -0.193375 -0.186989 0.000654
v -0.230551 -0.118804 0.059997
v -0.230328 -0.120447 0.061034
v -0.131182 -0.098663 0.130928
v -0.131404 -0.097020 0.129891
v -0.116193 -0.158041 0.033659
v -0.116415 -0.156398 0.032622
v -0.127100 -0.103120 0.066365
v -0.127322 -0.101477 0.065327
vt 1.000000 1.000000
vt 0.800000 0.548327
vt 1.000000 0.548327
vt 0.800000 1.000000
vt 0.600000 0.548327
vt 0.600000 1.000000
vt 0.400000 0.548327
vt 0.250000 0.490000
vt 0.108932 0.055836
vt 0.391068 0.055836
vt 0.400000 1.000000
vt 0.200000 0.548327
vt 0.200000 1.000000
vt 0.000000 0.548327
vt 0.978254 0.324164
vt 0.608932 0.055836
vt 0.521746 0.324164
vt 0.200000 0.500000
vt 0.000000 0.500000
vt 0.400000 0.500000
vt 0.600000 0.500000
vt 0.800000 0.500000
vt 1.000000 0.500000
vt 0.375000 0.125000
vt 0.625000 0.125000
vt 0.500000 0.375000
vt 0.625000 0.625000
vt 0.375000 0.750000
vt 0.375000 0.625000
vt 0.625000 0.750000
vt 0.375000 1.000000
vt 0.125000 0.750000
vt 0.125000 0.625000
vt 0.875000 0.750000
vt 0.875000 0.625000
vt 0.375000 0.000000
vt 0.625000 0.083333
vt 0.375000 0.000000
vt 0.625000 0.000000
vt 0.375000 0.375000
vt 0.625000 0.500000
vt 0.375000 0.500000
vt 0.250000 0.666667
vt 0.375000 0.750000
vt 0.250000 0.750000
vt 0.875000 0.750000
vt 0.750000 0.666667
vt 0.875000 0.666667
vt 0.125000 0.750000
vt 0.125000 0.666667
vt 0.625000 0.750000
vt 0.625000 0.666667
vt 0.375000 0.666667
vt 0.625000 0.250000
vt 0.375000 0.250000
vt 0.750000 0.500000
vt 0.875000 0.500000
vt 0.250000 0.500000
vt 0.375000 0.083333
vt 0.375000 0.875000
vt 0.625000 1.000000
vt 0.375000 1.000000
vt 0.125000 0.500000
vt 0.375000 0.125000
vt 0.625000 0.125000
vt 0.500000 0.375000
vt 0.625000 0.625000
vt 0.375000 0.750000
vt 0.375000 0.625000
vt 0.625000 0.750000
vt 0.375000 1.000000
vt 0.125000 0.750000
vt 0.125000 0.625000
vt 0.875000 0.750000
vt 0.875000 0.625000
vt 0.375000 0.000000
vt 0.625000 0.083333
vt 0.375000 0.000000
vt 0.625000 0.000000
vt 0.375000 0.375000
vt 0.625000 0.500000
vt 0.375000 0.500000
vt 0.250000 0.666667
vt 0.375000 0.750000
vt 0.250000 0.750000
vt 0.875000 0.750000
vt 0.750000 0.666667
vt 0.875000 0.666667
vt 0.125000 0.750000
vt 0.125000 0.666667
vt 0.625000 0.750000
vt 0.625000 0.666667
vt 0.375000 0.666667
vt 0.625000 0.250000
vt 0.375000 0.250000
vt 0.750000 0.500000
vt 0.875000 0.500000
vt 0.250000 0.500000
vt 0.375000 0.083333
vt 0.375000 0.875000
vt 0.625000 1.000000
vt 0.375000 1.000000
vt 0.125000 0.500000
vt 0.375000 0.125000
vt 0.625000 0.125000
vt 0.500000 0.375000
vt 0.625000 0.625000
vt 0.375000 0.750000
vt 0.375000 0.625000
vt 0.625000 1.000000
vt 0.375000 1.000000
vt 0.125000 0.750000
vt 0.125000 0.625000
vt 0.875000 0.750000
vt 0.625000 0.750000
vt 0.875000 0.625000
vt 0.375000 0.000000
vt 0.625000 0.083333
vt 0.375000 0.000000
vt 0.625000 0.000000
vt 0.375000 0.375000
vt 0.625000 0.500000
vt 0.375000 0.500000
vt 0.250000 0.666667
vt 0.375000 0.750000
vt 0.250000 0.750000
vt 0.875000 0.750000
vt 0.750000 0.666667
vt 0.875000 0.666667
vt 0.125000 0.750000
vt 0.125000 0.666667
vt 0.625000 0.750000
vt 0.625000 0.666667
vt 0.375000 0.666667
vt 0.625000 0.250000
vt 0.375000 0.250000
vt 0.750000 0.500000
vt 0.875000 0.500000
vt 0.250000 0.500000
vt 0.375000 0.083333
vt 0.375000 0.875000
vt 0.625000 1.000000
vt 0.375000 1.000000
vt 0.125000 0.500000
vt 0.375000 0.125000
vt 0.625000 0.125000
vt 0.500000 0.375000
vt 0.625000 0.625000
vt 0.375000 0.750000
vt 0.375000 0.625000
vt 0.625000 0.750000
vt 0.375000 1.000000
vt 0.125000 0.750000
vt 0.125000 0.625000
vt 0.875000 0.750000
vt 0.875000 0.625000
vt 0.375000 0.000000
vt 0.375000 0.083333
vt 0.625000 0.000000
vt 0.625000 0.083333
vt 0.375000 0.375000
vt 0.625000 0.500000
vt 0.375000 0.500000
vt 0.250000 0.666667
vt 0.375000 0.750000
vt 0.250000 0.750000
vt 0.875000 0.750000
vt 0.750000 0.666667
vt 0.875000 0.666667
vt 0.125000 0.750000
vt 0.125000 0.666667
vt 0.625000 0.750000
vt 0.625000 0.666667
vt 0.375000 0.666667
vt 0.625000 0.250000
vt 0.375000 0.250000
vt 0.750000 0.500000
vt 0.875000 0.500000
vt 0.250000 0.500000
vt 0.375000 0.875000
vt 0.625000 1.000000
vt 0.375000 1.000000
vt 0.125000 0.500000
vt 0.375000 0.125000
vt 0.625000 0.125000
vt 0.500000 0.375000
vt 0.625000 0.625000
vt 0.375000 0.750000
vt 0.375000 0.625000
vt 0.625000 1.000000
vt 0.375000 1.000000
vt 0.125000 0.625000
vt 0.125000 0.750000
vt 0.875000 0.625000
vt 0.625000 0.750000
vt 0.375000 0.000000
vt 0.625000 0.083333
vt 0.375000 0.000000
vt 0.625000 0.000000
vt 0.375000 0.375000
vt 0.625000 0.500000
vt 0.375000 0.500000
vt 0.250000 0.666667
vt 0.375000 0.750000
vt 0.250000 0.750000
vt 0.875000 0.750000
vt 0.750000 0.666667
vt 0.875000 0.666667
vt 0.125000 0.750000
vt 0.125000 0.666667
vt 0.625000 0.750000
vt 0.625000 0.666667
vt 0.375000 0.666667
vt 0.625000 0.250000
vt 0.375000 0.250000
vt 0.750000 0.500000
vt 0.875000 0.500000
vt 0.250000 0.500000
vt 0.375000 0.083333
vt 0.375000 0.875000
vt 0.625000 1.000000
vt 0.375000 1.000000
vt 0.125000 0.500000
vt 0.478254 0.324164
vt 0.021746 0.324164
vt 0.000000 1.000000
vt 0.750000 0.490000
vt 0.891068 0.055836
vt 0.625000 1.000000
vt 0.625000 0.000000
vt 0.625000 0.375000
vt 0.750000 0.750000
vt 0.625000 0.875000
vt 0.625000 1.000000
vt 0.625000 0.000000
vt 0.625000 0.375000
vt 0.750000 0.750000
vt 0.625000 0.875000
vt 0.625000 0.000000
vt 0.625000 0.375000
vt 0.750000 0.750000
vt 0.625000 0.875000
vt 0.625000 1.000000
vt 0.625000 0.000000
vt 0.375000 0.000000
vt 0.625000 0.375000
vt 0.750000 0.750000
vt 0.625000 0.875000
vt 0.875000 0.750000
vt 0.625000 0.000000
vt 0.625000 0.375000
vt 0.750000 0.750000
vt 0.625000 0.875000
vn 0.5878 0.0000 -0.8090
vn 0.9511 0.0000 0.3090
vn 0.0000 0.0000 1.0000
vn 0.0000 1.0000 -0.0000
vn -0.9511 0.0000 0.3090
vn -0.5878 0.0000 -0.8090
vn 0.0000 -1.0000 0.0000
vn -0.5782 0.1801 -0.7958
vn -0.9355 0.1801 0.3040
vn -0.0000 0.1801 0.9837
vn 0.9355 0.1801 0.3040
vn 0.5782 0.1801 -0.7958
vn -0.9669 0.0137 -0.2549
vn 0.9999 0.0008 -0.0154
vn -0.0000 -0.3439 0.9390
vn 0.0000 -1.0000 0.0027
vn 0.0000 0.9995 0.0302
vn -0.0000 0.9851 -0.1722
vn 0.0000 -0.9985 -0.0551
vn 0.9669 0.0137 -0.2549
vn -0.9999 0.0008 -0.0154
vn -0.9292 0.0891 0.3588
vn 0.8870 -0.2689 -0.3753
vn -0.4632 -0.8602 0.2135
vn -0.2879 0.9504 -0.1178
vn 0.2879 -0.9504 0.1178
vn 0.2879 0.9504 -0.1178
vn 0.9291 0.0891 0.3588
vn -0.8870 -0.2689 -0.3753
vn 0.1895 0.8840 -0.4274
vn -0.1895 0.8840 -0.4274
vn -0.1896 -0.8839 0.4275
vn 0.8722 -0.2849 -0.3976
vn -0.8943 -0.1078 -0.4343
vn -0.0000 0.2409 0.9705
vn 0.1896 -0.8839 0.4275
vn 0.2001 -0.0236 -0.9795
vn 0.0696 -0.0122 0.9975
vn -0.9849 -0.1650 0.0519
vn -0.1872 -0.9823 0.0001
vn 0.1548 0.9879 0.0017
vn 0.3507 0.9364 -0.0095
vn -0.1302 -0.9915 -0.0030
vn 0.3052 -0.0433 0.9513
vn -0.0390 0.0082 -0.9992
vn -0.3862 0.1631 -0.9079
vn 0.3130 -0.2844 0.9062
vn -0.3934 -0.8013 -0.4506
vn 0.2754 0.9153 -0.2940
vn -0.2754 -0.9153 0.2940
vn 0.3067 0.9094 0.2810
vn -0.2852 0.1442 0.9476
vn 0.2125 -0.2655 -0.9404
vn 0.6258 0.7696 0.1270
vn 0.6091 0.7727 -0.1785
vn -0.6276 -0.7683 -0.1255
vn 0.3850 -0.3622 0.8489
vn 0.3577 -0.1769 -0.9169
vn -0.9080 0.4156 0.0537
vn -0.6112 -0.7714 0.1772
vn 0.2391 -0.0217 -0.9707
vn -0.0172 0.1796 0.9836
vn -0.6217 -0.7747 0.1155
vn 0.5189 -0.8394 0.1614
vn -0.5467 0.8220 -0.1593
vn -0.3666 0.9148 -0.1699
vn 0.5674 -0.8082 0.1575
vn 0.1813 0.3088 0.9337
vn 0.0427 -0.1622 -0.9858
vn -0.3246 -0.2701 -0.9065
vn 0.4337 0.1206 0.8930
vn 0.2801 -0.9107 -0.3038
vn -0.3862 0.8083 -0.4444
vn 0.3862 -0.8083 0.4444
vn -0.4034 0.9067 0.1228
vn -0.3803 0.0475 0.9237
vn 0.4868 -0.1825 -0.8542
vn -0.1019 0.9947 0.0167
vn -0.0905 0.9299 -0.3565
vn 0.1018 -0.9947 -0.0168
vn 0.4615 0.1163 0.8795
vn 0.4534 -0.0182 -0.8911
vn -0.9533 -0.3010 0.0233
vn -0.9534 -0.3010 0.0233
vn 0.0904 -0.9299 0.3566
vn 0.8606 -0.0217 0.5088
vn -0.9369 0.1796 -0.3000
vn 0.0685 -0.7747 -0.6286
vn -0.3042 -0.8394 0.4504
vn 0.3101 0.8220 -0.4776
vn 0.2683 0.9148 -0.3020
vn -0.3144 -0.8082 0.4979
vn -0.9463 0.3088 -0.0956
vn 0.9317 -0.1622 0.3250
vn 0.9616 -0.2700 -0.0496
vn -0.9801 0.1206 0.1579
vn 0.2101 -0.9107 0.3558
vn 0.5368 0.8083 -0.2417
vn -0.5368 -0.8083 0.2417
vn -0.0013 0.9067 -0.4217
vn -0.7748 0.0475 -0.6304
vn 0.6777 -0.1825 0.7123
vn 0.0134 0.9947 -0.1024
vn 0.3675 0.9299 0.0161
vn -0.0132 -0.9947 0.1023
vn -0.9752 0.1163 0.1884
vn 0.7226 -0.0182 0.6910
vn 0.2525 -0.3010 -0.9196
vn -0.3676 -0.9299 -0.0162
vn -0.3749 0.5219 0.7662
vn 0.1153 -0.5152 -0.8493
vn 0.8797 -0.3335 0.3391
vn -0.1244 -0.8553 0.5030
vn 0.1566 0.8535 -0.4969
vn -0.0442 0.8497 -0.5255
vn -0.1810 -0.8516 0.4920
vn -0.1228 -0.4770 -0.8703
vn -0.1455 0.5179 0.8430
vn 0.2430 0.5411 0.8051
vn -0.2118 -0.6544 -0.7259
vn 0.0403 -0.5053 0.8620
vn -0.0327 0.9664 -0.2548
vn 0.0327 -0.9664 0.2548
vn 0.0424 0.6690 -0.7421
vn 0.4853 -0.4189 -0.7675
vn -0.4530 0.3010 0.8392
vn -0.3268 0.6861 -0.6500
vn -0.3667 0.8441 -0.3911
vn 0.3292 -0.6862 0.6487
vn -0.3134 -0.6776 -0.6654
vn -0.5573 0.3881 0.7340
vn 0.9849 0.1653 0.0509
vn 0.3688 -0.8427 0.3922
vn 0.9999 0.0054 -0.0149
vn -0.9999 0.0054 -0.0149
vn -0.2879 -0.9504 0.1178
vn -0.4632 0.8602 -0.2135
vn 0.4632 -0.8602 0.2135
vn 0.4632 0.8602 -0.2135
vn 0.9292 0.0891 0.3588
vn 0.3250 0.9064 -0.2697
vn -0.3250 0.9064 -0.2697
vn -0.3247 -0.9070 0.2682
vn 0.8943 -0.1078 -0.4343
vn -0.8722 -0.2849 -0.3976
vn 0.3247 -0.9070 0.2682
vn 0.0699 -0.0076 0.9975
vn -0.0387 0.0128 -0.9992
vn -0.3067 -0.9094 -0.2810
vn 0.3431 0.8108 -0.4743
vn -0.3431 -0.8108 0.4743
vn 0.3934 0.8013 0.4506
vn 0.4496 0.8379 0.3096
vn 0.4143 0.8445 -0.3394
vn -0.4482 -0.8387 -0.3093
vn 0.4549 -0.1951 0.8689
vn 0.2902 -0.3444 -0.8929
vn -0.4129 -0.8453 0.3390
vn -0.0201 0.1831 0.9829
vn 0.0398 -0.1586 -0.9865
vn -0.3247 -0.2700 -0.9065
vn 0.4337 0.1207 0.8930
vn 0.4034 -0.9067 -0.1228
vn -0.2524 0.7523 -0.6085
vn 0.2524 -0.7523 0.6085
vn -0.2801 0.9107 0.3038
vn 0.4868 -0.1826 -0.8542
vn -0.2521 0.9549 0.1566
vn -0.2327 0.8439 -0.4835
vn 0.2537 -0.9546 -0.1563
vn 0.3998 0.2875 0.8703
vn 0.5137 -0.1818 -0.8385
vn 0.2342 -0.8436 0.4832
vn -0.9354 0.1831 -0.3025
vn 0.9332 -0.1586 0.3224
vn 0.0013 -0.9067 0.4217
vn 0.6554 0.7523 -0.0662
vn -0.6554 -0.7523 0.0662
vn -0.2101 0.9107 -0.3557
vn -0.0773 0.9549 -0.2865
vn 0.5300 0.8439 -0.0834
vn 0.0765 -0.9546 0.2880
vn -0.9486 0.2875 0.1320
vn 0.6548 -0.1818 0.7336
vn -0.5302 -0.8436 0.0850
vn 0.1165 -0.5113 -0.8515
vn -0.1443 0.5218 0.8408
vn -0.0424 -0.6690 0.7421
vn -0.1611 0.9838 -0.0781
vn 0.1611 -0.9838 0.0781
vn -0.0403 0.5053 -0.8620
vn -0.4530 0.3011 0.8391
vn -0.1077 0.6186 -0.7783
vn -0.1925 0.9544 -0.2282
vn 0.1062 -0.6192 0.7780
vn -0.3241 -0.5359 -0.7796
vn -0.5408 0.2236 0.8109
vn 0.9849 0.1653 0.0508
vn 0.1909 -0.9546 0.2285
usemtl Green_TomatoPlant
s off
f 2/1/1 12/2/1 11/3/1
f 4/4/2 13/5/2 12/2/2
f 6/6/3 14/7/3 13/5/3
f 2/8/4 8/9/4 6/10/4
f 8/11/5 15/12/5 14/7/5
f 10/13/6 11/14/6 15/12/6
f 3/15/7 7/16/7 9/17/7
f 9/18/8 11/14/8 1/19/8
f 14/7/9 9/18/9 7/20/9
f 5/21/10 14/7/10 7/20/10
f 3/22/11 13/5/11 5/21/11
f 11/3/12 3/22/12 1/23/12
f 21/24/13 22/25/13 20/26/13
f 24/27/14 18/28/14 23/29/14
f 19/30/15 16/31/15 18/28/15
f 23/29/16 16/32/16 21/33/16
f 24/27/17 17/34/17 19/30/17
f 20/26/18 22/35/18 24/27/18
f 20/26/19 23/29/19 21/33/19
f 20/26/20 24/27/20 23/29/20
f 16/36/21 22/25/21 21/24/21
f 32/37/22 37/38/22 38/39/22
f 29/40/23 28/41/23 27/42/23
f 36/43/24 39/44/24 41/45/24
f 38/46/25 35/47/25 32/48/25
f 36/43/26 37/49/26 31/50/26
f 35/47/27 40/51/27 34/52/27
f 34/52/28 39/44/28 33/53/28
f 26/54/29 29/40/29 25/55/29
f 35/47/30 28/41/30 30/56/30
f 26/57/31 35/47/31 30/56/31
f 27/42/32 36/43/32 29/58/32
f 34/52/33 27/42/33 28/41/33
f 32/37/34 25/55/34 31/59/34
f 41/60/35 38/61/35 37/62/35
f 40/51/35 41/60/35 39/44/35
f 36/43/36 25/63/36 29/58/36
f 48/64/37 49/65/37 47/66/37
f 51/67/38 45/68/38 50/69/38
f 46/70/39 43/71/39 45/68/39
f 50/69/40 43/72/40 48/73/40
f 51/67/41 44/74/41 46/70/41
f 47/66/42 49/75/42 51/67/42
f 47/66/43 50/69/43 48/73/43
f 47/66/44 51/67/44 50/69/44
f 43/76/45 49/65/45 48/64/45
f 59/77/46 64/78/46 65/79/46
f 56/80/47 55/81/47 54/82/47
f 63/83/48 66/84/48 68/85/48
f 65/86/49 62/87/49 59/88/49
f 63/83/50 64/89/50 58/90/50
f 62/87/51 67/91/51 61/92/51
f 61/92/52 66/84/52 60/93/52
f 53/94/53 56/80/53 52/95/53
f 62/87/54 55/81/54 57/96/54
f 53/97/55 62/87/55 57/96/55
f 54/82/56 63/83/56 56/98/56
f 61/92/57 54/82/57 55/81/57
f 59/77/58 52/95/58 58/99/58
f 68/100/59 65/101/59 64/102/59
f 67/91/59 68/100/59 66/84/59
f 63/83/60 52/103/60 56/98/60
f 75/104/61 76/105/61 74/106/61
f 78/107/62 72/108/62 77/109/62
f 72/108/63 71/110/63 70/111/63
f 77/109/64 70/112/64 75/113/64
f 78/107/65 71/114/65 73/115/65
f 74/106/66 76/116/66 78/107/66
f 74/106/67 77/109/67 75/113/67
f 74/106/68 78/107/68 77/109/68
f 70/117/69 76/105/69 75/104/69
f 86/118/70 91/119/70 92/120/70
f 83/121/71 82/122/71 81/123/71
f 90/124/72 93/125/72 95/126/72
f 92/127/73 89/128/73 86/129/73
f 90/124/74 91/130/74 85/131/74
f 89/128/75 94/132/75 88/133/75
f 94/132/76 87/134/76 88/133/76
f 80/135/77 83/121/77 79/136/77
f 89/128/78 82/122/78 84/137/78
f 80/138/79 89/128/79 84/137/79
f 81/123/80 90/124/80 83/139/80
f 88/133/81 81/123/81 82/122/81
f 86/118/82 79/136/82 85/140/82
f 95/141/83 92/142/83 91/143/83
f 94/132/84 95/141/84 93/125/84
f 90/124/85 79/144/85 83/139/85
f 102/145/86 103/146/86 101/147/86
f 105/148/87 99/149/87 104/150/87
f 100/151/88 97/152/88 99/149/88
f 104/150/89 97/153/89 102/154/89
f 105/148/90 98/155/90 100/151/90
f 101/147/91 103/156/91 105/148/91
f 101/147/92 104/150/92 102/154/92
f 101/147/93 105/148/93 104/150/93
f 97/157/94 103/146/94 102/145/94
f 112/158/95 119/159/95 113/160/95
f 110/161/96 109/162/96 108/163/96
f 117/164/97 120/165/97 122/166/97
f 119/167/98 116/168/98 113/169/98
f 117/164/99 118/170/99 112/171/99
f 116/168/100 121/172/100 115/173/100
f 115/173/101 120/165/101 114/174/101
f 107/175/102 110/161/102 106/176/102
f 116/168/103 109/162/103 111/177/103
f 107/178/104 116/168/104 111/177/104
f 108/163/105 117/164/105 110/179/105
f 115/173/106 108/163/106 109/162/106
f 113/160/107 106/176/107 112/158/107
f 122/180/108 119/181/108 118/182/108
f 121/172/108 122/180/108 120/165/108
f 117/164/109 106/183/109 110/179/109
f 129/184/110 130/185/110 128/186/110
f 132/187/111 126/188/111 131/189/111
f 126/188/112 125/190/112 124/191/112
f 129/192/113 126/188/113 124/193/113
f 130/194/114 127/195/114 132/187/114
f 128/186/115 130/194/115 132/187/115
f 128/186/116 131/189/116 129/192/116
f 128/186/117 132/187/117 131/189/117
f 124/196/118 130/185/118 129/184/118
f 140/197/119 145/198/119 146/199/119
f 137/200/120 136/201/120 135/202/120
f 144/203/121 147/204/121 149/205/121
f 146/206/122 143/207/122 140/208/122
f 144/203/123 145/209/123 139/210/123
f 143/207/124 148/211/124 142/212/124
f 148/211/125 141/213/125 142/212/125
f 134/214/126 137/200/126 133/215/126
f 143/207/127 136/201/127 138/216/127
f 134/217/128 143/207/128 138/216/128
f 135/202/129 144/203/129 137/218/129
f 142/212/130 135/202/130 136/201/130
f 140/197/131 133/215/131 139/219/131
f 149/220/132 146/221/132 145/222/132
f 148/211/132 149/220/132 147/204/132
f 144/203/133 133/223/133 137/218/133
f 2/1/1 4/4/1 12/2/1
f 4/4/2 6/6/2 13/5/2
f 6/6/3 8/11/3 14/7/3
f 6/10/4 4/224/4 2/8/4
f 2/8/4 10/225/4 8/9/4
f 8/11/5 10/13/5 15/12/5
f 10/13/6 2/226/6 11/14/6
f 9/17/7 1/227/7 3/15/7
f 3/15/7 5/228/7 7/16/7
f 9/18/8 15/12/8 11/14/8
f 14/7/9 15/12/9 9/18/9
f 5/21/10 13/5/10 14/7/10
f 3/22/11 12/2/11 13/5/11
f 11/3/12 12/2/12 3/22/12
f 24/27/134 19/30/134 18/28/134
f 19/30/15 17/229/15 16/31/15
f 23/29/16 18/28/16 16/32/16
f 24/27/17 22/35/17 17/34/17
f 16/36/135 17/230/135 22/25/135
f 32/37/22 31/59/22 37/38/22
f 29/40/23 30/231/23 28/41/23
f 36/43/136 33/53/136 39/44/136
f 38/46/137 42/232/137 35/47/137
f 36/43/138 41/45/138 37/49/138
f 35/47/139 42/232/139 40/51/139
f 34/52/140 40/51/140 39/44/140
f 26/54/29 30/231/29 29/40/29
f 35/47/141 34/52/141 28/41/141
f 26/57/142 32/48/142 35/47/142
f 27/42/143 33/53/143 36/43/143
f 34/52/144 33/53/144 27/42/144
f 32/37/145 26/54/145 25/55/145
f 41/60/35 42/233/35 38/61/35
f 40/51/35 42/233/35 41/60/35
f 36/43/146 31/50/146 25/63/146
f 51/67/147 46/70/147 45/68/147
f 46/70/39 44/234/39 43/71/39
f 50/69/40 45/68/40 43/72/40
f 51/67/41 49/75/41 44/74/41
f 43/76/148 44/235/148 49/65/148
f 59/77/46 58/99/46 64/78/46
f 56/80/47 57/236/47 55/81/47
f 63/83/149 60/93/149 66/84/149
f 65/86/150 69/237/150 62/87/150
f 63/83/151 68/85/151 64/89/151
f 62/87/152 69/237/152 67/91/152
f 61/92/52 67/91/52 66/84/52
f 53/94/53 57/236/53 56/80/53
f 62/87/153 61/92/153 55/81/153
f 53/97/154 59/88/154 62/87/154
f 54/82/155 60/93/155 63/83/155
f 61/92/156 60/93/156 54/82/156
f 59/77/157 53/94/157 52/95/157
f 68/100/59 69/238/59 65/101/59
f 67/91/59 69/238/59 68/100/59
f 63/83/158 58/90/158 52/103/158
f 78/107/159 73/115/159 72/108/159
f 72/108/63 73/115/63 71/110/63
f 77/109/64 72/108/64 70/112/64
f 78/107/65 76/116/65 71/114/65
f 70/117/160 71/239/160 76/105/160
f 86/118/161 85/140/161 91/119/161
f 83/121/162 84/240/162 82/122/162
f 90/124/163 87/134/163 93/125/163
f 92/127/164 96/241/164 89/128/164
f 90/124/165 95/126/165 91/130/165
f 89/128/166 96/241/166 94/132/166
f 94/132/76 93/125/76 87/134/76
f 80/135/167 84/240/167 83/121/167
f 89/128/168 88/133/168 82/122/168
f 80/138/169 86/129/169 89/128/169
f 81/123/170 87/134/170 90/124/170
f 88/133/171 87/134/171 81/123/171
f 86/118/172 80/135/172 79/136/172
f 95/141/83 96/242/83 92/142/83
f 94/132/83 96/242/83 95/141/83
f 90/124/173 85/131/173 79/144/173
f 105/148/174 100/151/174 99/149/174
f 100/151/88 98/243/88 97/152/88
f 104/150/89 99/149/89 97/153/89
f 105/148/90 103/156/90 98/155/90
f 97/157/175 98/244/175 103/146/175
f 112/158/95 118/245/95 119/159/95
f 110/161/96 111/246/96 109/162/96
f 117/164/176 114/174/176 120/165/176
f 119/167/177 123/247/177 116/168/177
f 117/164/178 122/166/178 118/170/178
f 116/168/179 123/247/179 121/172/179
f 115/173/101 121/172/101 120/165/101
f 107/175/102 111/246/102 110/161/102
f 116/168/180 115/173/180 109/162/180
f 107/178/181 113/169/181 116/168/181
f 108/163/182 114/174/182 117/164/182
f 115/173/183 114/174/183 108/163/183
f 113/160/184 107/175/184 106/176/184
f 122/180/108 123/248/108 119/181/108
f 121/172/108 123/248/108 122/180/108
f 117/164/185 112/171/185 106/183/185
f 132/187/186 127/195/186 126/188/186
f 126/188/112 127/195/112 125/190/112
f 129/192/113 131/189/113 126/188/113
f 130/194/114 125/249/114 127/195/114
f 124/196/187 125/250/187 130/185/187
f 140/197/119 139/219/119 145/198/119
f 137/200/120 138/251/120 136/201/120
f 144/203/188 141/213/188 147/204/188
f 146/206/189 150/252/189 143/207/189
f 144/203/190 149/205/190 145/209/190
f 143/207/191 150/252/191 148/211/191
f 148/211/125 147/204/125 141/213/125
f 134/214/192 138/251/192 137/200/192
f 143/207/193 142/212/193 136/201/193
f 134/217/194 140/208/194 143/207/194
f 135/202/195 141/213/195 144/203/195
f 142/212/196 141/213/196 135/202/196
f 140/197/197 134/214/197 133/215/197
f 149/220/132 150/253/132 146/221/132
f 148/211/198 150/253/198 149/220/198
f 144/203/199 139/210/199 133/223/199
