# Blender v2.90.0 OBJ File: 'Trunk_02.blend'
# www.blender.org
mtllib Trunk_02.mtl
o Trunk_02_Circle
v -0.000000 0.000000 -0.668845
v -0.636109 0.000000 -0.206684
v -0.393137 0.000000 0.541107
v 0.393137 0.000000 0.541107
v 0.636109 0.000000 -0.206685
v -0.000000 0.586456 -0.455158
v -0.445046 0.661537 -0.140652
v -0.275053 0.783021 0.368231
v 0.275053 0.783021 0.368231
v 0.445045 0.661537 -0.140652
v -0.000000 1.183419 -0.431197
v -0.370922 1.225074 -0.078034
v -0.313658 1.130726 0.204295
v 0.152600 1.292473 0.357704
v 0.246912 0.865777 -0.078034
v -0.438240 1.219995 -0.099309
v -0.000000 1.166983 -0.500045
v -0.355263 1.144023 0.259995
v 0.194205 1.305770 0.413403
v 0.314231 0.860698 -0.099309
v -0.000000 0.256174 -0.252523
v -0.246912 0.297829 -0.078034
v -0.152600 0.365229 0.204295
v 0.152600 0.365229 0.204295
v 0.246912 0.297829 -0.078034
vt 0.000000 0.000000
vt 0.000000 0.000000
vt 0.000000 0.000000
vt 0.000000 0.000000
vt 0.000000 0.000000
vt 0.000000 0.000000
vt 0.000000 0.000000
vt 0.000000 0.000000
vt 0.000000 0.000000
vt 0.000000 0.000000
vt 0.000000 0.000000
vt 0.000000 0.000000
vt 0.000000 0.000000
vt 0.000000 0.000000
vt 0.000000 0.000000
vt 0.000000 0.000000
vt 0.000000 0.000000
vt 0.000000 0.000000
vt 0.000000 0.000000
vt 0.000000 0.000000
vt 0.000000 0.000000
vt 0.000000 0.000000
vt 0.000000 0.000000
vt 0.000000 0.000000
vt 0.000000 0.000000
vn 0.0000 -1.0000 0.0000
vn 0.4595 0.4596 -0.7600
vn 0.5341 0.2353 -0.8120
vn 0.0000 0.2156 0.9765
vn -0.5638 0.2828 -0.7760
vn 0.9425 0.2011 0.2669
vn -0.9240 0.2369 0.3002
vn 0.9792 0.1310 -0.1548
vn -0.3190 0.2064 0.9250
vn -0.5830 -0.0626 -0.8100
vn 0.9840 0.1430 0.1062
vn -0.9746 -0.0047 0.2241
vn -0.0283 0.9888 -0.1464
vn 0.4163 0.9043 0.0951
vn -0.2764 0.9608 -0.0229
vn -0.1721 0.6849 -0.7080
vn 0.7794 0.6093 -0.1455
vn -0.0000 0.9727 -0.2322
vn -0.5771 0.0000 0.8167
vn 0.0000 0.0000 -1.0000
vn 0.5874 0.1531 0.7947
vn -0.9674 0.0413 -0.2499
vn 0.7673 -0.0494 -0.6394
vn 0.5638 0.2828 -0.7760
vn -0.5341 0.2353 -0.8120
vn 0.9240 0.2369 0.3002
vn -0.9425 0.2011 0.2669
vn 0.9160 0.1927 -0.3520
vn 0.0000 -0.0861 0.9963
vn -0.6693 0.0630 -0.7403
vn 0.8401 0.5193 0.1567
vn -0.9352 -0.1065 0.3378
vn -0.0942 0.9683 -0.2312
vn -0.1783 0.9218 0.3442
vn -0.1961 0.9106 -0.3639
vn 0.4621 0.7204 -0.5172
vn 0.2353 0.7987 0.5538
vn -0.7577 0.1235 0.6408
vn 0.2589 0.1577 -0.9530
vn 0.6920 0.0926 0.7159
vn -0.9485 0.0000 -0.3168
usemtl Trunk_02
s off
f 5/1/1 4/2/1 3/3/1
f 6/4/2 20/5/2 10/6/2
f 5/1/3 6/4/3 10/6/3
f 4/2/4 8/7/4 3/3/4
f 2/8/5 6/4/5 1/9/5
f 4/2/6 10/6/6 9/10/6
f 3/3/7 7/11/7 2/8/7
f 13/12/8 22/13/8 12/14/8
f 8/7/9 19/15/9 18/16/9
f 7/11/10 17/17/10 6/4/10
f 9/10/11 20/5/11 19/15/11
f 7/11/12 18/16/12 16/18/12
f 11/19/13 16/18/13 12/14/13
f 13/12/14 16/18/14 18/16/14
f 14/20/15 18/16/15 19/15/15
f 14/20/16 20/5/16 15/21/16
f 11/19/17 20/5/17 17/17/17
f 23/22/18 25/23/18 21/24/18
f 15/21/19 21/24/19 25/23/19
f 13/12/20 24/25/20 23/22/20
f 11/19/21 22/13/21 21/24/21
f 15/21/22 24/25/22 14/20/22
f 3/3/1 2/8/1 1/9/1
f 1/9/1 5/1/1 3/3/1
f 6/4/23 17/17/23 20/5/23
f 5/1/24 1/9/24 6/4/24
f 4/2/4 9/10/4 8/7/4
f 2/8/25 7/11/25 6/4/25
f 4/2/26 5/1/26 10/6/26
f 3/3/27 8/7/27 7/11/27
f 13/12/28 23/22/28 22/13/28
f 8/7/29 9/10/29 19/15/29
f 7/11/30 16/18/30 17/17/30
f 9/10/31 10/6/31 20/5/31
f 7/11/32 8/7/32 18/16/32
f 11/19/33 17/17/33 16/18/33
f 13/12/34 12/14/34 16/18/34
f 14/20/35 13/12/35 18/16/35
f 14/20/36 19/15/36 20/5/36
f 11/19/37 15/21/37 20/5/37
f 21/24/18 22/13/18 23/22/18
f 23/22/18 24/25/18 25/23/18
f 15/21/38 11/19/38 21/24/38
f 13/12/39 14/20/39 24/25/39
f 11/19/40 12/14/40 22/13/40
f 15/21/41 25/23/41 24/25/41
