# Blender v2.90.0 OBJ File: 'WatermelonPlant_Stage04.blend'
# www.blender.org
mtllib WatermelonPlant_Stage04.mtl
o WatermelonPlant_Stage04_Cylinder.008
v -1.661646 -0.201243 -0.516825
v -1.668295 -0.207917 -0.516381
v -1.596189 -0.681311 -0.441974
v -1.602838 -0.687986 -0.441530
v -1.796605 -0.568188 -1.055200
v -1.803253 -0.574863 -1.054755
v -1.537096 0.179802 -0.218740
v -1.542801 0.173791 -0.214337
v -1.404355 -0.793729 -0.066949
v -1.410060 -0.799740 -0.062546
v -1.605663 -0.438927 -0.183482
v -1.599958 -0.432915 -0.187885
v -1.102658 0.224857 0.660642
v -1.108363 0.218846 0.665045
v -1.049158 -0.167513 0.721819
v -1.054863 -0.173524 0.726222
v -1.163518 -0.063642 0.758844
v -1.169223 -0.069654 0.763247
v -1.385419 0.144478 0.082237
v -1.274687 0.409441 0.336393
v -1.280392 0.403430 0.340796
v -1.391124 0.138467 0.086640
v -1.292820 -0.534649 0.188125
v -1.140341 -0.575855 0.490018
v -1.308998 -0.186734 0.443268
v -1.454478 -0.309825 0.127692
v -1.460183 -0.315837 0.132095
v -1.314703 -0.192745 0.447671
v -1.146046 -0.581866 0.494421
v -1.298525 -0.540661 0.192528
v -0.066507 -1.316383 -1.244260
v -0.067341 -1.331416 -1.291402
v 0.037810 -1.250856 -1.268731
v 0.036975 -1.265890 -1.315872
v -0.242177 -0.563408 -1.207344
v -0.208539 -0.844023 -1.203244
v -0.215397 -0.846459 -1.266337
v -0.114491 -0.784947 -1.225306
v -0.121349 -0.787383 -1.288399
v -1.104063 0.977836 -0.509456
v -1.108729 0.987289 -0.522636
v -0.379932 1.432700 -0.679321
v -0.384598 1.442153 -0.692501
v -0.963426 2.039085 -0.188224
v -0.968093 2.048538 -0.201404
v -1.303862 0.167051 -0.545319
v -1.307155 0.171084 -0.561689
v 0.164605 1.089471 -0.889790
v 0.161312 1.093503 -0.906160
v -0.673108 0.870476 -0.922573
v -0.669814 0.866444 -0.906203
v -0.436394 -0.991735 -0.948112
v -0.439687 -0.987703 -0.964481
v 0.155455 -0.619965 -1.086947
v 0.152162 -0.615933 -1.103316
v -0.191042 -0.743931 -1.268909
v -0.194335 -0.739899 -1.285279
v -0.938769 -0.171511 -0.697397
v -1.026629 -0.794596 -0.743221
v -1.029922 -0.790564 -0.759591
v -0.942063 -0.167479 -0.713766
v 0.085621 0.471961 -0.937696
v 0.459584 0.138970 -1.091854
v -0.350632 -0.207139 -1.148007
v -0.510222 0.329653 -1.027105
v -0.513515 0.333685 -1.043475
v -0.353926 -0.203108 -1.164377
v 0.456291 0.143002 -1.108224
v 0.082328 0.475993 -0.954066
v 1.730224 -0.437711 1.234255
v 1.736624 -0.441453 1.239345
v 1.482426 0.058422 1.461957
v 1.488827 0.054680 1.467047
v 1.509758 -0.365793 1.901429
v 1.516159 -0.369535 1.906519
v 1.857855 -0.555314 0.744826
v 1.865115 -0.557965 0.746283
v 1.355345 0.450796 1.206584
v 1.362606 0.448145 1.208040
v 1.714684 -0.135118 1.114955
v 1.707424 -0.132467 1.113499
v 1.705959 0.087057 -0.042516
v 1.713219 0.084406 -0.041059
v 1.503428 0.492557 0.143590
v 1.510688 0.489907 0.145046
v 1.716182 0.249106 0.072901
v 1.723442 0.246455 0.074357
v 1.781237 -0.289163 0.506257
v 1.859620 -0.333349 0.125258
v 1.866880 -0.335999 0.126714
v 1.788497 -0.291814 0.507713
v 1.430691 0.412690 0.828375
v 1.351038 0.684919 0.592595
v 1.713262 0.121915 0.419767
v 1.710343 -0.005275 0.766634
v 1.717603 -0.007926 0.768090
v 1.720523 0.119264 0.421223
v 1.358298 0.682269 0.594052
v 1.437951 0.410040 0.829832
v 1.370949 0.174235 -0.198782
v -0.501512 0.174236 -0.553480
v 1.554593 0.174235 0.285745
v 1.370949 -0.178645 -0.056867
v 0.869225 -0.436971 -0.307676
v 0.183856 -0.531525 -0.399479
v -0.501512 -0.436971 -0.307676
v -1.003237 -0.178644 -0.056867
v 1.370949 -0.324813 0.285745
v 0.869225 -0.690141 0.285745
v 0.183856 -0.823860 0.285746
v -0.501512 -0.690140 0.285745
v -1.003237 -0.324811 0.285745
v 1.370949 -0.178644 0.628357
v 0.869225 -0.436970 0.879167
v 0.183856 -0.531524 0.970969
v -0.501512 -0.436970 0.879167
v -1.003237 -0.178644 0.628357
v -1.186880 0.174237 0.285745
v 1.370950 0.174236 0.770271
v 0.869225 0.174236 1.124970
v 0.183856 0.174237 1.254798
v -0.501512 0.174237 1.124969
v -1.003236 0.174237 0.770272
v 1.370950 0.527116 0.628357
v 0.869225 0.785442 0.879166
v 0.183857 0.879997 0.970968
v -0.501512 0.785443 0.879166
v -1.003236 0.527117 0.628357
v 1.370950 0.673283 0.285744
v 0.869225 1.038612 0.285744
v 0.183857 1.172332 0.285744
v -0.501512 1.038612 0.285744
v -1.003236 0.673284 0.285744
v 1.370949 0.527115 -0.056868
v 0.869225 0.785442 -0.307678
v 0.183856 0.879996 -0.399480
v -0.501512 0.785442 -0.307677
v -1.003237 0.527116 -0.056868
v 0.869225 0.174235 -0.553480
v 0.183856 0.174235 -0.683309
v -1.003236 0.174236 -0.198782
vt 0.625000 0.027778
vt 0.375000 0.000000
vt 0.625000 0.000000
vt 0.375000 0.375000
vt 0.625000 0.500000
vt 0.375000 0.500000
vt 0.250000 0.722222
vt 0.375000 0.750000
vt 0.250000 0.750000
vt 0.875000 0.750000
vt 0.750000 0.722222
vt 0.875000 0.722222
vt 0.125000 0.750000
vt 0.125000 0.722222
vt 0.625000 0.750000
vt 0.625000 0.722222
vt 0.375000 0.722222
vt 0.625000 0.250000
vt 0.375000 0.250000
vt 0.750000 0.666667
vt 0.750000 0.500000
vt 0.875000 0.500000
vt 0.250000 0.666667
vt 0.250000 0.500000
vt 0.375000 0.666667
vt 0.625000 0.083333
vt 0.375000 0.083333
vt 0.375000 0.875000
vt 0.625000 1.000000
vt 0.375000 1.000000
vt 0.125000 0.500000
vt 0.625000 0.694444
vt 0.625000 0.666667
vt 0.375000 0.694444
vt 0.750000 0.694444
vt 0.250000 0.694444
vt 0.125000 0.666667
vt 0.125000 0.694444
vt 0.875000 0.666667
vt 0.875000 0.694444
vt 0.375000 0.055556
vt 0.625000 0.055556
vt 0.375000 0.125000
vt 0.625000 0.125000
vt 0.500000 0.375000
vt 0.625000 0.625000
vt 0.375000 0.750000
vt 0.375000 0.625000
vt 0.625000 1.000000
vt 0.375000 1.000000
vt 0.125000 0.625000
vt 0.125000 0.750000
vt 0.875000 0.625000
vt 0.625000 0.750000
vt 0.375000 0.000000
vt 0.625000 0.027778
vt 0.375000 0.000000
vt 0.625000 0.000000
vt 0.375000 0.375000
vt 0.625000 0.500000
vt 0.375000 0.500000
vt 0.250000 0.722222
vt 0.375000 0.750000
vt 0.250000 0.750000
vt 0.875000 0.750000
vt 0.750000 0.722222
vt 0.875000 0.722222
vt 0.125000 0.750000
vt 0.125000 0.722222
vt 0.625000 0.750000
vt 0.625000 0.722222
vt 0.375000 0.722222
vt 0.625000 0.250000
vt 0.375000 0.250000
vt 0.750000 0.666667
vt 0.750000 0.500000
vt 0.875000 0.500000
vt 0.250000 0.666667
vt 0.250000 0.500000
vt 0.625000 0.666667
vt 0.625000 0.083333
vt 0.375000 0.083333
vt 0.375000 0.875000
vt 0.625000 1.000000
vt 0.375000 1.000000
vt 0.125000 0.500000
vt 0.625000 0.694444
vt 0.375000 0.666667
vt 0.375000 0.694444
vt 0.750000 0.694444
vt 0.250000 0.694444
vt 0.125000 0.666667
vt 0.125000 0.694444
vt 0.875000 0.666667
vt 0.875000 0.694444
vt 0.625000 0.055556
vt 0.375000 0.055556
vt 0.375000 0.027778
vt 0.625000 0.000000
vt 0.625000 0.027778
vt 0.375000 0.375000
vt 0.625000 0.500000
vt 0.375000 0.500000
vt 0.250000 0.722222
vt 0.375000 0.750000
vt 0.250000 0.750000
vt 0.875000 0.750000
vt 0.750000 0.722222
vt 0.875000 0.722222
vt 0.125000 0.750000
vt 0.125000 0.722222
vt 0.625000 0.750000
vt 0.625000 0.722222
vt 0.375000 0.722222
vt 0.625000 0.250000
vt 0.375000 0.250000
vt 0.750000 0.666667
vt 0.750000 0.500000
vt 0.875000 0.500000
vt 0.250000 0.666667
vt 0.250000 0.500000
vt 0.625000 0.666667
vt 0.625000 0.083333
vt 0.375000 0.083333
vt 0.625000 0.875000
vt 0.375000 1.000000
vt 0.375000 0.875000
vt 0.125000 0.500000
vt 0.375000 0.694444
vt 0.375000 0.666667
vt 0.625000 0.694444
vt 0.750000 0.694444
vt 0.250000 0.694444
vt 0.125000 0.666667
vt 0.125000 0.694444
vt 0.875000 0.666667
vt 0.875000 0.694444
vt 0.625000 0.055556
vt 0.375000 0.027778
vt 0.625000 0.375000
vt 0.750000 0.750000
vt 0.625000 0.875000
vt 0.875000 0.750000
vt 0.625000 0.000000
vt 0.375000 0.027778
vt 0.625000 0.375000
vt 0.750000 0.750000
vt 0.625000 0.875000
vt 0.375000 0.000000
vt 0.625000 0.375000
vt 0.750000 0.750000
vt 0.625000 1.000000
vt 0.375000 0.055556
vt 0.750000 0.333333
vt 0.625000 0.166667
vt 0.750000 0.166667
vt 0.750000 0.500000
vt 0.625000 0.666667
vt 0.625000 0.500000
vt 0.750000 0.833333
vt 0.687500 1.000000
vt 0.625000 0.833333
vt 0.687500 0.000000
vt 0.625000 0.333333
vt 0.750000 0.666667
vt 0.500000 0.666667
vt 0.500000 0.500000
vt 0.562500 1.000000
vt 0.500000 0.833333
vt 0.562500 0.000000
vt 0.500000 0.166667
vt 0.500000 0.333333
vt 0.437500 1.000000
vt 0.375000 0.833333
vt 0.437500 0.000000
vt 0.375000 0.166667
vt 0.375000 0.500000
vt 0.375000 0.333333
vt 0.375000 0.666667
vt 0.312500 0.000000
vt 0.250000 0.166667
vt 0.250000 0.500000
vt 0.250000 0.333333
vt 0.250000 0.666667
vt 0.312500 1.000000
vt 0.250000 0.833333
vt 0.187500 0.000000
vt 0.125000 0.166667
vt 0.125000 0.333333
vt 0.125000 0.833333
vt 0.125000 0.666667
vt 0.125000 0.500000
vt 0.187500 1.000000
vt 0.062500 0.000000
vt 0.000000 0.166667
vt 0.000000 0.333333
vt 0.000000 0.833333
vt 0.000000 0.666667
vt 0.000000 0.500000
vt 0.062500 1.000000
vt 1.000000 0.333333
vt 0.875000 0.500000
vt 0.875000 0.333333
vt 1.000000 0.833333
vt 0.875000 0.666667
vt 1.000000 0.666667
vt 1.000000 0.166667
vt 0.875000 0.166667
vt 1.000000 0.500000
vt 0.937500 1.000000
vt 0.875000 0.833333
vt 0.937500 0.000000
vt 0.812500 1.000000
vt 0.812500 0.000000
vn 0.3221 -0.7391 -0.5916
vn -0.6553 0.6752 0.3387
vn -0.4862 -0.7146 0.5029
vn 0.8385 -0.1425 -0.5260
vn -0.8385 0.1425 0.5260
vn 0.7048 0.2246 -0.6729
vn -0.7897 0.4266 -0.4408
vn 0.6890 -0.6676 0.2823
vn 0.9282 0.2727 -0.2531
vn 0.9757 -0.0444 -0.2144
vn -0.9282 -0.2729 0.2530
vn -0.5989 0.6295 0.4950
vn 0.7934 -0.5142 0.3259
vn -0.4598 -0.1977 -0.8657
vn -0.9758 0.0445 0.2143
vn -0.7854 0.5717 -0.2372
vn -0.5238 0.7676 0.3693
vn 0.7832 0.2311 -0.5772
vn 0.7580 0.4083 -0.5087
vn -0.9184 0.1133 0.3792
vn -0.9183 0.1751 0.3550
vn 0.9184 -0.1133 -0.3792
vn 0.9183 -0.1751 -0.3550
vn -0.7580 -0.4083 0.5087
vn 0.5320 -0.7673 -0.3582
vn 0.7867 -0.5658 0.2470
vn 0.9869 0.1167 -0.1118
vn -0.9410 -0.3183 0.1146
vn -0.5562 0.7945 -0.2435
vn -0.2363 0.0133 -0.9716
vn 0.2186 0.0163 0.9757
vn 0.3217 -0.1639 0.9325
vn -0.2050 -0.0389 -0.9780
vn -0.8569 -0.5030 0.1126
vn 0.9486 0.2952 -0.1145
vn 0.3607 0.9199 0.1540
vn -0.7740 -0.6115 -0.1646
vn 0.3551 0.3046 -0.8838
vn 0.3779 0.1896 0.9062
vn -0.3779 -0.1896 -0.9062
vn -0.0866 0.0411 0.9954
vn -0.8936 0.3598 0.2684
vn 0.9380 -0.0195 -0.3461
vn 0.2372 -0.4633 0.8539
vn 0.5989 -0.3037 0.7410
vn -0.2370 0.4634 -0.8538
vn -0.5956 -0.7376 -0.3182
vn 0.9439 -0.2218 -0.2446
vn -0.4565 0.8382 0.2983
vn -0.5990 0.3037 -0.7409
vn -0.9693 0.1068 0.2213
vn -0.6748 -0.7366 -0.0457
vn 0.0011 -0.0775 0.9970
vn -0.0868 -0.2434 0.9660
vn -0.5240 0.0359 -0.8510
vn -0.6083 -0.0021 -0.7937
vn 0.5240 -0.0359 0.8510
vn 0.6083 0.0021 0.7937
vn 0.0868 0.2434 -0.9660
vn 0.6883 0.7243 0.0399
vn 0.9672 -0.1199 -0.2241
vn 0.0592 -0.3512 -0.9344
vn -0.1365 0.7085 0.6924
vn -0.7650 -0.6025 -0.2274
vn 0.9435 0.3290 -0.0397
vn -0.9435 -0.3290 0.0397
vn 0.8479 0.5264 0.0623
vn 0.3763 0.8910 -0.2540
vn -0.4680 -0.8817 -0.0596
vn 0.8542 0.3996 0.3326
vn 0.9389 0.1851 0.2903
vn -0.8542 -0.3996 -0.3326
vn -0.4123 0.4050 0.8161
vn -0.3626 -0.9232 0.1273
vn 0.3484 0.5291 -0.7737
vn -0.9389 -0.1850 -0.2903
vn 0.3473 0.9374 -0.0253
vn 0.0955 0.6675 0.7384
vn 0.8583 0.4988 0.1207
vn 0.8278 0.5244 0.1993
vn -0.9619 -0.2540 -0.1012
vn -0.9813 -0.1777 -0.0734
vn 0.9619 0.2540 0.1012
vn 0.9813 0.1777 0.0734
vn -0.8278 -0.5244 -0.1993
vn -0.1027 -0.6802 -0.7258
vn -0.3492 -0.9363 0.0367
vn 0.3222 -0.7391 -0.5916
vn -0.6552 0.6752 0.3387
vn -0.7048 -0.2246 0.6729
vn 0.9064 -0.2944 -0.3030
vn -0.9064 0.2944 0.3030
vn 0.4862 0.7146 -0.5029
vn 0.6890 -0.6675 0.2823
vn 0.8704 0.3589 -0.3369
vn 0.9597 -0.1115 -0.2579
vn -0.8703 -0.3586 0.3377
vn -0.4539 0.7652 0.4566
vn 0.6328 -0.5976 0.4923
vn -0.9596 0.1115 0.2585
vn 0.8609 0.3263 -0.3903
vn -0.8701 0.1782 0.4594
vn -0.9478 0.1083 0.3000
vn 0.8701 -0.1782 -0.4594
vn 0.9478 -0.1083 -0.3000
vn -0.7832 -0.2311 0.5772
vn -0.8609 -0.3263 0.3903
vn 0.5321 -0.7672 -0.3582
vn 0.7867 -0.5657 0.2470
vn -0.9407 -0.3180 0.1181
vn 0.9489 0.2954 -0.1110
vn 0.0866 -0.0411 -0.9954
vn 0.7605 0.0810 0.6442
vn -0.7605 -0.0810 -0.6442
vn -0.3551 -0.3046 0.8838
vn 0.0921 -0.4114 0.9068
vn 0.6357 -0.1903 0.7481
vn -0.0919 0.4105 -0.9072
vn -0.5561 -0.8261 -0.0916
vn 0.8741 -0.1911 -0.4465
vn -0.6353 0.1897 -0.7486
vn 0.0813 -0.3421 0.9361
vn -0.4917 -0.1445 -0.8587
vn -0.5966 0.1422 -0.7899
vn 0.4917 0.1445 0.8587
vn 0.5966 -0.1422 0.7899
vn -0.0011 0.0775 -0.9970
vn -0.0813 0.3421 -0.9361
vn 0.0592 -0.3513 -0.9344
vn -0.1364 0.7085 0.6924
vn -0.8479 -0.5264 -0.0623
vn 0.9984 -0.0547 -0.0117
vn -0.9984 0.0547 0.0117
vn 0.7650 0.6025 0.2274
vn 0.3762 0.8910 -0.2540
vn 0.8391 0.4602 0.2902
vn 0.9642 0.1561 0.2144
vn -0.8392 -0.4603 -0.2897
vn 0.0350 0.5531 0.8324
vn -0.5381 -0.8409 0.0585
vn -0.9642 -0.1566 -0.2138
vn 0.0956 0.6675 0.7384
vn 0.8471 0.4672 0.2533
vn -0.9655 -0.2597 0.0203
vn -0.9646 -0.1965 -0.1757
vn 0.9655 0.2597 -0.0203
vn 0.9646 0.1965 0.1757
vn -0.8583 -0.4988 -0.1207
vn -0.8471 -0.4672 -0.2533
vn -0.1028 -0.6802 -0.7258
vn -0.5485 -0.3120 -0.7758
vn 0.1731 -0.3675 -0.9138
vn 0.9257 -0.1411 -0.3509
vn -0.9257 -0.1411 -0.3509
vn -0.1731 -0.3675 -0.9138
vn 0.5485 -0.3120 -0.7758
vn 0.1766 -0.9053 -0.3862
vn 0.9285 -0.3417 -0.1458
vn -0.9285 -0.3417 -0.1458
vn -0.1766 -0.9053 -0.3862
vn 0.5565 -0.7642 -0.3260
vn -0.5565 -0.7642 -0.3260
vn 0.9285 -0.3417 0.1458
vn -0.9285 -0.3417 0.1458
vn -0.1766 -0.9053 0.3862
vn 0.5565 -0.7642 0.3260
vn -0.5565 -0.7642 0.3260
vn 0.1766 -0.9053 0.3862
vn -0.9257 -0.1411 0.3509
vn -0.1731 -0.3675 0.9138
vn 0.5485 -0.3120 0.7758
vn -0.5485 -0.3120 0.7758
vn 0.1731 -0.3675 0.9138
vn 0.9257 -0.1411 0.3509
vn -0.9257 0.1411 0.3509
vn -0.1731 0.3675 0.9138
vn 0.5485 0.3120 0.7758
vn -0.5485 0.3120 0.7758
vn 0.1731 0.3675 0.9138
vn 0.9257 0.1411 0.3509
vn -0.9285 0.3417 0.1458
vn -0.1766 0.9053 0.3862
vn 0.5565 0.7642 0.3260
vn -0.5565 0.7642 0.3260
vn 0.1766 0.9053 0.3862
vn 0.9285 0.3417 0.1458
vn -0.1766 0.9053 -0.3862
vn 0.5565 0.7642 -0.3260
vn -0.5565 0.7642 -0.3260
vn 0.1766 0.9053 -0.3862
vn 0.9285 0.3417 -0.1458
vn -0.9285 0.3417 -0.1458
vn 0.5485 0.3120 -0.7758
vn -0.5485 0.3120 -0.7758
vn 0.1731 0.3675 -0.9138
vn 0.9257 0.1411 -0.3509
vn -0.9257 0.1411 -0.3509
vn -0.1731 0.3675 -0.9138
usemtl OldGreenWatermelonPlan
s off
f 21/1/1 13/2/1 14/3/1
f 5/4/2 4/5/2 3/6/2
f 25/7/3 15/8/3 17/9/3
f 14/10/4 28/11/4 21/12/4
f 25/7/5 13/13/5 20/14/5
f 28/11/6 16/15/6 29/16/6
f 16/15/7 24/17/7 29/16/7
f 2/18/8 5/4/8 1/19/8
f 11/20/9 4/5/9 6/21/9
f 2/22/10 11/20/10 6/21/10
f 3/6/11 12/23/11 5/24/11
f 4/5/12 9/25/12 3/6/12
f 8/26/13 1/19/13 7/27/13
f 17/28/14 14/29/14 13/30/14
f 16/15/14 17/28/14 15/8/14
f 12/23/15 1/31/15 5/24/15
f 30/32/16 9/25/16 10/33/16
f 30/32/17 24/17/17 23/34/17
f 11/20/18 30/32/18 10/33/18
f 28/11/19 30/32/19 27/35/19
f 26/36/20 7/37/20 12/23/20
f 25/7/21 19/38/21 26/36/21
f 8/39/22 27/35/22 11/20/22
f 22/40/23 28/11/23 27/35/23
f 12/23/24 23/34/24 26/36/24
f 23/34/24 25/7/24 26/36/24
f 8/26/25 19/41/25 22/42/25
f 19/41/26 21/1/26 22/42/26
f 36/43/27 37/44/27 35/45/27
f 39/46/28 33/47/28 38/48/28
f 33/47/29 32/49/29 31/50/29
f 36/51/30 33/47/30 31/52/30
f 37/53/31 34/54/31 39/46/31
f 35/45/32 37/53/32 39/46/32
f 35/45/33 38/48/33 36/51/33
f 35/45/34 39/46/34 38/48/34
f 31/55/35 37/44/35 36/43/35
f 60/56/36 52/57/36 53/58/36
f 44/59/37 43/60/37 42/61/37
f 64/62/38 54/63/38 56/64/38
f 53/65/39 67/66/39 60/67/39
f 64/62/40 52/68/40 59/69/40
f 67/66/41 55/70/41 68/71/41
f 55/70/42 63/72/42 68/71/42
f 41/73/43 44/59/43 40/74/43
f 50/75/44 43/60/44 45/76/44
f 41/77/45 50/75/45 45/76/45
f 42/61/46 51/78/46 44/79/46
f 49/80/47 42/61/47 43/60/47
f 47/81/48 40/74/48 46/82/48
f 56/83/49 53/84/49 52/85/49
f 55/70/49 56/83/49 54/63/49
f 51/78/50 40/86/50 44/79/50
f 69/87/51 48/88/51 49/80/51
f 68/71/52 62/89/52 69/87/52
f 50/75/53 69/87/53 49/80/53
f 67/66/54 69/87/54 66/90/54
f 65/91/55 46/92/55 51/78/55
f 64/62/56 58/93/56 65/91/56
f 47/94/57 66/90/57 50/75/57
f 61/95/58 67/66/58 66/90/58
f 51/78/59 62/89/59 65/91/59
f 62/89/59 64/62/59 65/91/59
f 46/82/60 61/96/60 47/81/60
f 58/97/61 60/56/61 61/96/61
f 89/98/62 83/99/62 90/100/62
f 74/101/63 73/102/63 72/103/63
f 94/104/64 84/105/64 86/106/64
f 83/107/65 97/108/65 90/109/65
f 94/104/66 82/110/66 89/111/66
f 97/108/67 85/112/67 98/113/67
f 98/113/68 84/105/68 93/114/68
f 71/115/69 74/101/69 70/116/69
f 80/117/70 73/102/70 75/118/70
f 71/119/71 80/117/71 75/118/71
f 72/103/72 81/120/72 74/121/72
f 79/122/73 72/103/73 73/102/73
f 77/123/74 70/116/74 76/124/74
f 87/125/75 82/126/75 86/127/75
f 85/112/75 86/127/75 84/105/75
f 81/120/76 70/128/76 74/121/76
f 79/122/77 92/129/77 78/130/77
f 98/113/78 92/129/78 99/131/78
f 80/117/79 99/131/79 79/122/79
f 97/108/80 99/131/80 96/132/80
f 95/133/81 76/134/81 81/120/81
f 94/104/82 88/135/82 95/133/82
f 77/136/83 96/132/83 80/117/83
f 91/137/84 97/108/84 96/132/84
f 81/120/85 92/129/85 95/133/85
f 92/129/85 94/104/85 95/133/85
f 76/124/86 91/138/86 77/123/86
f 91/138/87 89/98/87 90/100/87
f 21/1/88 20/139/88 13/2/88
f 5/4/89 6/140/89 4/5/89
f 25/7/90 24/17/90 15/8/90
f 14/10/91 18/141/91 28/11/91
f 25/7/92 17/9/92 13/13/92
f 28/11/93 18/141/93 16/15/93
f 16/15/7 15/8/7 24/17/7
f 2/18/94 6/140/94 5/4/94
f 11/20/95 10/33/95 4/5/95
f 2/22/96 8/39/96 11/20/96
f 3/6/97 9/25/97 12/23/97
f 4/5/98 10/33/98 9/25/98
f 8/26/99 2/18/99 1/19/99
f 17/28/14 18/142/14 14/29/14
f 16/15/14 18/142/14 17/28/14
f 12/23/100 7/37/100 1/31/100
f 30/32/16 23/34/16 9/25/16
f 30/32/17 29/16/17 24/17/17
f 11/20/19 27/35/19 30/32/19
f 28/11/101 29/16/101 30/32/101
f 26/36/102 19/38/102 7/37/102
f 25/7/103 20/14/103 19/38/103
f 8/39/104 22/40/104 27/35/104
f 22/40/105 21/12/105 28/11/105
f 12/23/106 9/25/106 23/34/106
f 23/34/107 24/17/107 25/7/107
f 8/26/108 7/27/108 19/41/108
f 19/41/109 20/139/109 21/1/109
f 39/46/110 34/54/110 33/47/110
f 33/47/29 34/54/29 32/49/29
f 36/51/30 38/48/30 33/47/30
f 37/53/31 32/143/31 34/54/31
f 31/55/111 32/144/111 37/44/111
f 60/56/36 59/145/36 52/57/36
f 44/59/37 45/146/37 43/60/37
f 64/62/112 63/72/112 54/63/112
f 53/65/113 57/147/113 67/66/113
f 64/62/114 56/64/114 52/68/114
f 67/66/115 57/147/115 55/70/115
f 55/70/42 54/63/42 63/72/42
f 41/73/43 45/146/43 44/59/43
f 50/75/116 49/80/116 43/60/116
f 41/77/117 47/94/117 50/75/117
f 42/61/118 48/88/118 51/78/118
f 49/80/119 48/88/119 42/61/119
f 47/81/120 41/73/120 40/74/120
f 56/83/49 57/148/49 53/84/49
f 55/70/49 57/148/49 56/83/49
f 51/78/121 46/92/121 40/86/121
f 69/87/51 62/89/51 48/88/51
f 68/71/52 63/72/52 62/89/52
f 50/75/54 66/90/54 69/87/54
f 67/66/122 68/71/122 69/87/122
f 65/91/123 58/93/123 46/92/123
f 64/62/124 59/69/124 58/93/124
f 47/94/125 61/95/125 66/90/125
f 61/95/126 60/67/126 67/66/126
f 51/78/127 48/88/127 62/89/127
f 62/89/128 63/72/128 64/62/128
f 46/82/60 58/97/60 61/96/60
f 58/97/61 59/145/61 60/56/61
f 89/98/129 82/149/129 83/99/129
f 74/101/130 75/150/130 73/102/130
f 94/104/131 93/114/131 84/105/131
f 83/107/132 87/151/132 97/108/132
f 94/104/133 86/106/133 82/110/133
f 97/108/134 87/151/134 85/112/134
f 98/113/135 85/112/135 84/105/135
f 71/115/69 75/150/69 74/101/69
f 80/117/136 79/122/136 73/102/136
f 71/119/137 77/136/137 80/117/137
f 72/103/138 78/130/138 81/120/138
f 79/122/139 78/130/139 72/103/139
f 77/123/140 71/115/140 70/116/140
f 87/125/75 83/152/75 82/126/75
f 85/112/75 87/125/75 86/127/75
f 81/120/141 76/134/141 70/128/141
f 79/122/77 99/131/77 92/129/77
f 98/113/142 93/114/142 92/129/142
f 80/117/80 96/132/80 99/131/80
f 97/108/143 98/113/143 99/131/143
f 95/133/144 88/135/144 76/134/144
f 94/104/145 89/111/145 88/135/145
f 77/136/146 91/137/146 96/132/146
f 91/137/147 90/109/147 97/108/147
f 81/120/148 78/130/148 92/129/148
f 92/129/149 93/114/149 94/104/149
f 76/124/150 88/153/150 91/138/150
f 91/138/87 88/153/87 89/98/87
usemtl OldDarkGreenWatermelonPlan
f 101/154/151 107/155/151 141/156/151
f 140/157/152 104/158/152 105/159/152
f 100/160/153 102/161/153 103/162/153
f 118/163/154 141/156/154 107/155/154
f 140/157/155 106/164/155 101/154/155
f 139/165/156 103/162/156 104/158/156
f 105/159/157 109/166/157 110/167/157
f 103/162/158 102/168/158 108/169/158
f 118/170/159 107/155/159 112/171/159
f 105/159/160 111/172/160 106/164/160
f 104/158/161 108/169/161 109/166/161
f 106/164/162 112/171/162 107/155/162
f 108/169/163 102/173/163 113/174/163
f 118/175/164 112/171/164 117/176/164
f 111/172/165 115/177/165 116/178/165
f 108/169/166 114/179/166 109/166/166
f 112/171/167 116/178/167 117/176/167
f 109/166/168 115/177/168 110/167/168
f 118/180/169 117/176/169 123/181/169
f 116/178/170 121/182/170 122/183/170
f 113/174/171 120/184/171 114/179/171
f 117/176/172 122/183/172 123/181/172
f 114/179/173 121/182/173 115/177/173
f 113/174/174 102/185/174 119/186/174
f 118/187/175 123/181/175 128/188/175
f 121/182/176 127/189/176 122/183/176
f 120/184/177 124/190/177 125/191/177
f 122/183/178 128/188/178 123/181/178
f 121/182/179 125/191/179 126/192/179
f 119/186/180 102/193/180 124/190/180
f 118/194/181 128/188/181 133/195/181
f 126/192/182 132/196/182 127/189/182
f 125/191/183 129/197/183 130/198/183
f 127/189/184 133/195/184 128/188/184
f 126/192/185 130/198/185 131/199/185
f 124/190/186 102/200/186 129/197/186
f 132/201/187 136/202/187 137/203/187
f 129/204/188 135/205/188 130/206/188
f 133/207/189 137/203/189 138/208/189
f 130/206/190 136/202/190 131/209/190
f 129/204/191 102/210/191 134/211/191
f 118/212/192 133/207/192 138/208/192
f 134/211/193 139/165/193 135/205/193
f 138/208/194 101/154/194 141/156/194
f 135/205/195 140/157/195 136/202/195
f 134/211/196 102/213/196 100/160/196
f 118/214/197 138/208/197 141/156/197
f 137/203/198 140/157/198 101/154/198
f 101/154/151 106/164/151 107/155/151
f 140/157/152 139/165/152 104/158/152
f 140/157/155 105/159/155 106/164/155
f 139/165/156 100/160/156 103/162/156
f 105/159/157 104/158/157 109/166/157
f 105/159/160 110/167/160 111/172/160
f 104/158/161 103/162/161 108/169/161
f 106/164/162 111/172/162 112/171/162
f 111/172/165 110/167/165 115/177/165
f 108/169/166 113/174/166 114/179/166
f 112/171/167 111/172/167 116/178/167
f 109/166/168 114/179/168 115/177/168
f 116/178/170 115/177/170 121/182/170
f 113/174/171 119/186/171 120/184/171
f 117/176/172 116/178/172 122/183/172
f 114/179/173 120/184/173 121/182/173
f 121/182/176 126/192/176 127/189/176
f 120/184/177 119/186/177 124/190/177
f 122/183/178 127/189/178 128/188/178
f 121/182/179 120/184/179 125/191/179
f 126/192/182 131/199/182 132/196/182
f 125/191/183 124/190/183 129/197/183
f 127/189/184 132/196/184 133/195/184
f 126/192/185 125/191/185 130/198/185
f 132/201/187 131/209/187 136/202/187
f 129/204/188 134/211/188 135/205/188
f 133/207/189 132/201/189 137/203/189
f 130/206/190 135/205/190 136/202/190
f 134/211/193 100/160/193 139/165/193
f 138/208/194 137/203/194 101/154/194
f 135/205/195 139/165/195 140/157/195
f 137/203/198 136/202/198 140/157/198
